Bitter-Regular.ufo
<glyph name="exclam" format="1">
  <advance width="320"/>
  <unicode hex="0021"/>
  <outline>
    <contour>
      <point x="220" y="750" type="line"/>
      <point x="105" y="750" type="line"/>
      <point x="120" y="245" type="line"/>
      <point x="205" y="250" type="line"/>
    </contour>
    <contour>
      <point x="95" y="15"/>
      <point x="120" y="-10"/>
      <point x="160" y="-10" type="curve" smooth="yes"/>
      <point x="195" y="-10"/>
      <point x="225" y="15"/>
      <point x="225" y="60" type="curve" smooth="yes"/>
      <point x="225" y="105"/>
      <point x="200" y="130"/>
      <point x="160" y="130" type="curve" smooth="yes"/>
      <point x="125" y="130"/>
      <point x="95" y="105"/>
      <point x="95" y="60" type="curve" smooth="yes"/>
    </contour>
  </outline>
</glyph>
<glyph name="quotedbl" format="1">
  <advance width="388"/>
  <unicode hex="0022"/>
  <outline>
    <contour>
      <point x="333" y="770" type="line"/>
      <point x="237" y="770" type="line"/>
      <point x="237" y="520" type="line"/>
      <point x="312" y="520" type="line"/>
    </contour>
    <contour>
      <point x="160" y="770" type="line"/>
      <point x="65" y="770" type="line"/>
      <point x="65" y="520" type="line"/>
      <point x="140" y="520" type="line"/>
    </contour>
  </outline>
</glyph>
<glyph name="numbersign" format="1">
  <advance width="690"/>
  <unicode hex="0023"/>
  <outline>
    <contour>
      <point x="90" y="380" type="line"/>
      <point x="200" y="380" type="line"/>
      <point x="181" y="235" type="line"/>
      <point x="65" y="235" type="line"/>
      <point x="65" y="170" type="line"/>
      <point x="172" y="170" type="line"/>
      <point x="150" y="0" type="line"/>
      <point x="230" y="0" type="line"/>
      <point x="252" y="170" type="line"/>
      <point x="397" y="170" type="line"/>
      <point x="375" y="0" type="line"/>
      <point x="455" y="0" type="line"/>
      <point x="477" y="170" type="line"/>
      <point x="600" y="170" type="line"/>
      <point x="600" y="235" type="line"/>
      <point x="486" y="235" type="line"/>
      <point x="505" y="380" type="line"/>
      <point x="625" y="380" type="line"/>
      <point x="625" y="445" type="line"/>
      <point x="514" y="445" type="line"/>
      <point x="535" y="600" type="line"/>
      <point x="455" y="600" type="line"/>
      <point x="434" y="445" type="line"/>
      <point x="289" y="445" type="line"/>
      <point x="310" y="600" type="line"/>
      <point x="230" y="600" type="line"/>
      <point x="209" y="445" type="line"/>
      <point x="90" y="445" type="line"/>
    </contour>
    <contour>
      <point x="280" y="380" type="line"/>
      <point x="425" y="380" type="line"/>
      <point x="406" y="235" type="line"/>
      <point x="261" y="235" type="line"/>
    </contour>
  </outline>
</glyph>
<glyph name="dollar" format="1">
  <advance width="545"/>
  <unicode hex="0024"/>
  <outline>
    <contour>
      <point x="240" y="750" type="line"/>
      <point x="240" y="634" type="line"/>
      <point x="147" y="621"/>
      <point x="70" y="567"/>
      <point x="70" y="460" type="curve" smooth="yes"/>
      <point x="70" y="243"/>
      <point x="391" y="304"/>
      <point x="391" y="165" type="curve" smooth="yes"/>
      <point x="391" y="101"/>
      <point x="320" y="73"/>
      <point x="250" y="73" type="curve" smooth="yes"/>
      <point x="191" y="73"/>
      <point x="155" y="93"/>
      <point x="155" y="93" type="curve"/>
      <point x="135" y="185" type="line"/>
      <point x="65" y="185" type="line"/>
      <point x="65" y="25" type="line"/>
      <point x="65" y="25"/>
      <point x="145" y="-8"/>
      <point x="240" y="-10" type="curve"/>
      <point x="240" y="-140" type="line"/>
      <point x="315" y="-140" type="line"/>
      <point x="315" y="-4" type="line"/>
      <point x="413" y="14"/>
      <point x="490" y="74"/>
      <point x="490" y="185" type="curve" smooth="yes"/>
      <point x="490" y="388"/>
      <point x="170" y="338"/>
      <point x="170" y="475" type="curve" smooth="yes"/>
      <point x="170" y="520"/>
      <point x="210" y="560"/>
      <point x="290" y="560" type="curve" smooth="yes"/>
      <point x="340" y="560"/>
      <point x="385" y="540"/>
      <point x="385" y="540" type="curve"/>
      <point x="410" y="450" type="line"/>
      <point x="470" y="450" type="line"/>
      <point x="475" y="600" type="line"/>
      <point x="475" y="600"/>
      <point x="397" y="631"/>
      <point x="315" y="637" type="curve"/>
      <point x="315" y="750" type="line"/>
    </contour>
  </outline>
</glyph>
<glyph name="ampersand" format="1">
  <advance width="670"/>
  <unicode hex="0026"/>
  <outline>
    <contour>
      <point x="550" y="330" type="line"/>
      <point x="630" y="350" type="line"/>
      <point x="630" y="410" type="line"/>
      <point x="320" y="410" type="line" smooth="yes"/>
      <point x="250" y="410"/>
      <point x="190" y="455"/>
      <point x="190" y="525" type="curve" smooth="yes"/>
      <point x="190" y="585"/>
      <point x="230" y="625"/>
      <point x="310" y="625" type="curve" smooth="yes"/>
      <point x="380" y="625"/>
      <point x="420" y="610"/>
      <point x="420" y="610" type="curve"/>
      <point x="441" y="530" type="line"/>
      <point x="505" y="530" type="line"/>
      <point x="510" y="670" type="line"/>
      <point x="510" y="670"/>
      <point x="408" y="710"/>
      <point x="320" y="710" type="curve" smooth="yes"/>
      <point x="178" y="710"/>
      <point x="87" y="654"/>
      <point x="87" y="530" type="curve" smooth="yes"/>
      <point x="87" y="411"/>
      <point x="205" y="380"/>
      <point x="205" y="380" type="curve"/>
      <point x="205" y="380"/>
      <point x="70" y="315"/>
      <point x="70" y="195" type="curve" smooth="yes"/>
      <point x="70" y="75"/>
      <point x="140" y="-10"/>
      <point x="305" y="-10" type="curve" smooth="yes"/>
      <point x="455" y="-10"/>
      <point x="550" y="70"/>
      <point x="550" y="210" type="curve" smooth="yes"/>
    </contour>
    <contour>
      <point x="450" y="205" type="line"/>
      <point x="450" y="120"/>
      <point x="400" y="75"/>
      <point x="315" y="75" type="curve" smooth="yes"/>
      <point x="230" y="75"/>
      <point x="175" y="115"/>
      <point x="175" y="200" type="curve" smooth="yes"/>
      <point x="175" y="275"/>
      <point x="240" y="330"/>
      <point x="315" y="330" type="curve" smooth="yes"/>
      <point x="450" y="330" type="line"/>
    </contour>
  </outline>
</glyph>
<glyph name="quotesingle" format="1">
  <advance width="205"/>
  <unicode hex="0027"/>
  <outline>
    <contour>
      <point x="55" y="770" type="line"/>
      <point x="55" y="520" type="line"/>
      <point x="130" y="520" type="line"/>
      <point x="150" y="770" type="line"/>
    </contour>
  </outline>
</glyph>
<glyph name="parenleft" format="1">
  <advance width="330"/>
  <unicode hex="0028"/>
  <outline>
    <contour>
      <point x="240" y="770" type="line"/>
      <point x="130" y="610"/>
      <point x="74" y="475"/>
      <point x="74" y="280" type="curve" smooth="yes"/>
      <point x="74" y="80"/>
      <point x="125" y="-70"/>
      <point x="240" y="-230" type="curve"/>
      <point x="329" y="-230" type="line"/>
      <point x="230" y="-90"/>
      <point x="174" y="115"/>
      <point x="174" y="285" type="curve" smooth="yes"/>
      <point x="174" y="445"/>
      <point x="235" y="625"/>
      <point x="330" y="770" type="curve"/>
    </contour>
  </outline>
</glyph>
<glyph name="parenright" format="1">
  <advance width="330"/>
  <unicode hex="0029"/>
  <outline>
    <contour>
      <point x="-1" y="770" type="line"/>
      <point x="94" y="625"/>
      <point x="155" y="445"/>
      <point x="155" y="285" type="curve" smooth="yes"/>
      <point x="155" y="115"/>
      <point x="99" y="-90"/>
      <point x="0" y="-230" type="curve"/>
      <point x="89" y="-230" type="line"/>
      <point x="204" y="-70"/>
      <point x="255" y="80"/>
      <point x="255" y="280" type="curve" smooth="yes"/>
      <point x="255" y="475"/>
      <point x="199" y="610"/>
      <point x="89" y="770" type="curve"/>
    </contour>
  </outline>
</glyph>
<glyph name="asterisk" format="1">
  <advance width="403"/>
  <unicode hex="002A"/>
  <outline>
    <contour>
      <point x="170" y="609" type="line"/>
      <point x="49" y="655" type="line"/>
      <point x="25" y="585" type="line"/>
      <point x="153" y="560" type="line"/>
      <point x="70" y="457" type="line"/>
      <point x="130" y="415" type="line"/>
      <point x="195" y="528" type="line"/>
      <point x="188" y="562" type="line"/>
      <point x="153" y="560" type="line"/>
      <point x="183" y="577" type="line"/>
      <point x="170" y="609" type="line"/>
      <point x="196" y="586" type="line"/>
      <point x="223" y="608" type="line"/>
      <point x="209" y="577" type="line"/>
      <point x="238" y="558" type="line"/>
      <point x="204" y="562" type="line"/>
      <point x="195" y="528" type="line"/>
      <point x="264" y="415" type="line"/>
      <point x="322" y="459" type="line"/>
      <point x="238" y="558" type="line"/>
      <point x="363" y="587" type="line"/>
      <point x="338" y="657" type="line"/>
      <point x="223" y="608" type="line"/>
      <point x="230" y="735" type="line"/>
      <point x="157" y="733" type="line"/>
    </contour>
  </outline>
</glyph>
<glyph name="plus" format="1">
  <advance width="620"/>
  <unicode hex="002B"/>
  <outline>
    <contour>
      <point x="268" y="530" type="line"/>
      <point x="268" y="305" type="line"/>
      <point x="50" y="305" type="line"/>
      <point x="50" y="225" type="line"/>
      <point x="268" y="225" type="line"/>
      <point x="268" y="0" type="line"/>
      <point x="353" y="0" type="line"/>
      <point x="353" y="225" type="line"/>
      <point x="570" y="225" type="line"/>
      <point x="570" y="305" type="line"/>
      <point x="353" y="305" type="line"/>
      <point x="353" y="530" type="line"/>
    </contour>
  </outline>
</glyph>
<glyph name="comma" format="1">
  <advance width="265"/>
  <unicode hex="002C"/>
  <outline>
    <contour>
      <point x="96" y="130"/>
      <point x="70" y="101"/>
      <point x="70" y="63" type="curve" smooth="yes"/>
      <point x="70" y="28"/>
      <point x="93" y="10"/>
      <point x="93" y="-10" type="curve" smooth="yes"/>
      <point x="93" y="-46"/>
      <point x="40" y="-116"/>
      <point x="40" y="-116" type="curve"/>
      <point x="85" y="-154" type="line"/>
      <point x="155" y="-79"/>
      <point x="200" y="0"/>
      <point x="200" y="56" type="curve" smooth="yes"/>
      <point x="200" y="112"/>
      <point x="170" y="130"/>
      <point x="135" y="130" type="curve" smooth="yes"/>
    </contour>
  </outline>
</glyph>
<glyph name="hyphen" format="1">
  <advance width="375"/>
  <unicode hex="002D"/>
  <outline>
    <contour>
      <point x="60" y="230" type="line"/>
      <point x="320" y="230" type="line"/>
      <point x="320" y="315" type="line"/>
      <point x="60" y="315" type="line"/>
    </contour>
  </outline>
</glyph>
<glyph name="period" format="1">
  <advance width="260"/>
  <unicode hex="002E"/>
  <outline>
    <contour>
      <point x="95" y="130"/>
      <point x="65" y="105"/>
      <point x="65" y="60" type="curve" smooth="yes"/>
      <point x="65" y="15"/>
      <point x="90" y="-10"/>
      <point x="130" y="-10" type="curve" smooth="yes"/>
      <point x="165" y="-10"/>
      <point x="195" y="15"/>
      <point x="195" y="60" type="curve" smooth="yes"/>
      <point x="195" y="105"/>
      <point x="170" y="130"/>
      <point x="130" y="130" type="curve" smooth="yes"/>
    </contour>
  </outline>
</glyph>
<glyph name="slash" format="1">
  <advance width="506"/>
  <unicode hex="002F"/>
  <outline>
    <contour>
      <point x="371" y="700" type="line"/>
      <point x="40" y="0" type="line"/>
      <point x="145" y="0" type="line"/>
      <point x="476" y="700" type="line"/>
    </contour>
  </outline>
</glyph>
<glyph name="zero" format="1">
  <advance width="645"/>
  <unicode hex="0030"/>
  <outline>
    <contour>
      <point x="145" y="710"/>
      <point x="70" y="570"/>
      <point x="70" y="345" type="curve" smooth="yes"/>
      <point x="70" y="120"/>
      <point x="145" y="-10"/>
      <point x="325" y="-10" type="curve" smooth="yes"/>
      <point x="505" y="-10"/>
      <point x="585" y="125"/>
      <point x="585" y="360" type="curve" smooth="yes"/>
      <point x="585" y="585"/>
      <point x="525" y="710"/>
      <point x="335" y="710" type="curve" smooth="yes"/>
    </contour>
    <contour>
      <point x="440" y="625"/>
      <point x="475" y="535"/>
      <point x="475" y="355" type="curve" smooth="yes"/>
      <point x="475" y="170"/>
      <point x="435" y="75"/>
      <point x="330" y="75" type="curve" smooth="yes"/>
      <point x="225" y="75"/>
      <point x="180" y="170"/>
      <point x="180" y="350" type="curve" smooth="yes"/>
      <point x="180" y="535"/>
      <point x="220" y="625"/>
      <point x="330" y="625" type="curve" smooth="yes"/>
    </contour>
  </outline>
</glyph>
<glyph name="one" format="1">
  <advance width="512"/>
  <unicode hex="0031"/>
  <outline>
    <contour>
      <point x="487" y="85" type="line"/>
      <point x="337" y="85" type="line"/>
      <point x="337" y="700" type="line"/>
      <point x="253" y="700" type="line"/>
      <point x="20" y="547" type="line"/>
      <point x="62" y="475" type="line"/>
      <point x="232" y="585" type="line"/>
      <point x="232" y="85" type="line"/>
      <point x="78" y="85" type="line"/>
      <point x="78" y="0" type="line"/>
      <point x="487" y="0" type="line"/>
    </contour>
  </outline>
</glyph>
<glyph name="two" format="1">
  <advance width="570"/>
  <unicode hex="0032"/>
  <outline>
    <contour>
      <point x="45" y="0" type="line"/>
      <point x="520" y="0" type="line"/>
      <point x="520" y="85" type="line"/>
      <point x="185" y="85" type="line"/>
      <point x="400" y="275"/>
      <point x="500" y="390"/>
      <point x="500" y="520" type="curve" smooth="yes"/>
      <point x="500" y="660"/>
      <point x="410" y="710"/>
      <point x="260" y="710" type="curve" smooth="yes"/>
      <point x="165" y="710"/>
      <point x="55" y="670"/>
      <point x="55" y="670" type="curve"/>
      <point x="60" y="510" type="line"/>
      <point x="140" y="510" type="line"/>
      <point x="150" y="605" type="line"/>
      <point x="150" y="605"/>
      <point x="200" y="625"/>
      <point x="255" y="625" type="curve" smooth="yes"/>
      <point x="340" y="625"/>
      <point x="390" y="580"/>
      <point x="390" y="510" type="curve" smooth="yes"/>
      <point x="390" y="400"/>
      <point x="280" y="295"/>
      <point x="45" y="85" type="curve"/>
    </contour>
  </outline>
</glyph>
<glyph name="three" format="1">
  <advance width="550"/>
  <unicode hex="0033"/>
  <outline>
    <contour>
      <point x="145" y="710"/>
      <point x="35" y="670"/>
      <point x="35" y="670" type="curve"/>
      <point x="40" y="515" type="line"/>
      <point x="120" y="515" type="line"/>
      <point x="130" y="605" type="line"/>
      <point x="130" y="605"/>
      <point x="180" y="625"/>
      <point x="240" y="625" type="curve" smooth="yes"/>
      <point x="320" y="625"/>
      <point x="370" y="585"/>
      <point x="370" y="525" type="curve" smooth="yes"/>
      <point x="370" y="445"/>
      <point x="310" y="405"/>
      <point x="220" y="405" type="curve" smooth="yes"/>
      <point x="140" y="405" type="line"/>
      <point x="140" y="325" type="line"/>
      <point x="215" y="325" type="line" smooth="yes"/>
      <point x="315" y="325"/>
      <point x="380" y="280"/>
      <point x="380" y="205" type="curve" smooth="yes"/>
      <point x="380" y="120"/>
      <point x="320" y="75"/>
      <point x="230" y="75" type="curve" smooth="yes"/>
      <point x="135" y="75"/>
      <point x="50" y="120"/>
      <point x="50" y="120" type="curve"/>
      <point x="20" y="40" type="line"/>
      <point x="20" y="40"/>
      <point x="95" y="-10"/>
      <point x="225" y="-10" type="curve" smooth="yes"/>
      <point x="345" y="-10"/>
      <point x="490" y="45"/>
      <point x="490" y="210" type="curve" smooth="yes"/>
      <point x="490" y="280"/>
      <point x="438" y="349"/>
      <point x="345" y="368" type="curve"/>
      <point x="432" y="390"/>
      <point x="475" y="449"/>
      <point x="475" y="535" type="curve" smooth="yes"/>
      <point x="475" y="660"/>
      <point x="380" y="710"/>
      <point x="245" y="710" type="curve" smooth="yes"/>
    </contour>
  </outline>
</glyph>
<glyph name="four" format="1">
  <advance width="610"/>
  <unicode hex="0034"/>
  <outline>
    <contour>
      <point x="20" y="240" type="line"/>
      <point x="30" y="165" type="line"/>
      <point x="352" y="165" type="line"/>
      <point x="352" y="0" type="line"/>
      <point x="455" y="0" type="line"/>
      <point x="455" y="165" type="line"/>
      <point x="570" y="165" type="line"/>
      <point x="570" y="250" type="line"/>
      <point x="455" y="250" type="line"/>
      <point x="455" y="700" type="line"/>
      <point x="340" y="715" type="line"/>
    </contour>
    <contour>
      <point x="352" y="580" type="line"/>
      <point x="352" y="250" type="line"/>
      <point x="130" y="250" type="line"/>
    </contour>
  </outline>
</glyph>
<glyph name="five" format="1">
  <advance width="530"/>
  <unicode hex="0035"/>
  <outline>
    <contour>
      <point x="452" y="700" type="line"/>
      <point x="73" y="700" type="line"/>
      <point x="60" y="345" type="line"/>
      <point x="165" y="345" type="line" smooth="yes"/>
      <point x="290" y="345"/>
      <point x="370" y="300"/>
      <point x="370" y="210" type="curve" smooth="yes"/>
      <point x="370" y="120"/>
      <point x="300" y="75"/>
      <point x="225" y="75" type="curve" smooth="yes"/>
      <point x="130" y="75"/>
      <point x="50" y="120"/>
      <point x="50" y="120" type="curve"/>
      <point x="20" y="40" type="line"/>
      <point x="20" y="40"/>
      <point x="100" y="-10"/>
      <point x="230" y="-10" type="curve" smooth="yes"/>
      <point x="350" y="-10"/>
      <point x="480" y="65"/>
      <point x="480" y="215" type="curve" smooth="yes"/>
      <point x="480" y="340"/>
      <point x="372" y="425"/>
      <point x="190" y="425" type="curve" smooth="yes"/>
      <point x="158" y="425" type="line"/>
      <point x="167" y="615" type="line"/>
      <point x="449" y="615" type="line"/>
    </contour>
  </outline>
</glyph>
<glyph name="six" format="1">
  <advance width="600"/>
  <unicode hex="0036"/>
  <outline>
    <contour>
      <point x="500" y="700" type="line"/>
      <point x="500" y="700"/>
      <point x="475" y="710"/>
      <point x="425" y="710" type="curve" smooth="yes"/>
      <point x="180" y="710"/>
      <point x="60" y="535"/>
      <point x="60" y="295" type="curve" smooth="yes"/>
      <point x="60" y="120"/>
      <point x="140" y="-10"/>
      <point x="315" y="-10" type="curve" smooth="yes"/>
      <point x="445" y="-10"/>
      <point x="555" y="80"/>
      <point x="555" y="220" type="curve" smooth="yes"/>
      <point x="555" y="355"/>
      <point x="455" y="430"/>
      <point x="340" y="430" type="curve" smooth="yes"/>
      <point x="240" y="430"/>
      <point x="170" y="380"/>
      <point x="170" y="380" type="curve"/>
      <point x="170" y="380"/>
      <point x="185" y="625"/>
      <point x="420" y="625" type="curve" smooth="yes"/>
      <point x="465" y="625"/>
      <point x="495" y="620"/>
      <point x="495" y="620" type="curve"/>
    </contour>
    <contour>
      <point x="165" y="300" type="line"/>
      <point x="165" y="300"/>
      <point x="230" y="345"/>
      <point x="310" y="345" type="curve" smooth="yes"/>
      <point x="400" y="345"/>
      <point x="450" y="300"/>
      <point x="450" y="210" type="curve" smooth="yes"/>
      <point x="450" y="125"/>
      <point x="395" y="75"/>
      <point x="315" y="75" type="curve" smooth="yes"/>
      <point x="235" y="75"/>
      <point x="165" y="130"/>
      <point x="165" y="270" type="curve" smooth="yes"/>
    </contour>
  </outline>
</glyph>
<glyph name="seven" format="1">
  <advance width="502"/>
  <unicode hex="0037"/>
  <outline>
    <contour>
      <point x="5" y="700" type="line"/>
      <point x="5" y="515" type="line"/>
      <point x="80" y="515" type="line"/>
      <point x="100" y="610" type="line"/>
      <point x="368" y="610" type="line"/>
      <point x="103" y="0" type="line"/>
      <point x="218" y="0" type="line"/>
      <point x="485" y="625" type="line"/>
      <point x="485" y="700" type="line"/>
    </contour>
  </outline>
</glyph>
<glyph name="eight" format="1">
  <advance width="590"/>
  <unicode hex="0038"/>
  <outline>
    <contour>
      <point x="530" y="635"/>
      <point x="455" y="710"/>
      <point x="310" y="710" type="curve" smooth="yes"/>
      <point x="165" y="710"/>
      <point x="70" y="650"/>
      <point x="70" y="525" type="curve" smooth="yes"/>
      <point x="70" y="441"/>
      <point x="123" y="399"/>
      <point x="188" y="367" type="curve"/>
      <point x="161" y="355"/>
      <point x="50" y="301"/>
      <point x="50" y="190" type="curve" smooth="yes"/>
      <point x="50" y="75"/>
      <point x="130" y="-10"/>
      <point x="285" y="-10" type="curve" smooth="yes"/>
      <point x="445" y="-10"/>
      <point x="540" y="80"/>
      <point x="540" y="200" type="curve" smooth="yes"/>
      <point x="540" y="295"/>
      <point x="475" y="340"/>
      <point x="401" y="371" type="curve"/>
      <point x="440" y="385"/>
      <point x="530" y="430"/>
      <point x="530" y="530" type="curve" smooth="yes"/>
    </contour>
    <contour>
      <point x="430" y="120"/>
      <point x="380" y="76"/>
      <point x="295" y="76" type="curve" smooth="yes"/>
      <point x="210" y="76"/>
      <point x="160" y="120"/>
      <point x="160" y="195" type="curve" smooth="yes"/>
      <point x="160" y="280"/>
      <point x="249" y="319"/>
      <point x="275" y="331" type="curve"/>
      <point x="356" y="299"/>
      <point x="430" y="270"/>
      <point x="430" y="195" type="curve" smooth="yes"/>
    </contour>
    <contour>
      <point x="175" y="585"/>
      <point x="220" y="625"/>
      <point x="300" y="625" type="curve" smooth="yes"/>
      <point x="380" y="625"/>
      <point x="425" y="585"/>
      <point x="425" y="525" type="curve" smooth="yes"/>
      <point x="425" y="450"/>
      <point x="351" y="412"/>
      <point x="318" y="400" type="curve"/>
      <point x="245" y="426"/>
      <point x="175" y="453"/>
      <point x="175" y="525" type="curve" smooth="yes"/>
    </contour>
  </outline>
</glyph>
<glyph name="nine" format="1">
  <advance width="600"/>
  <unicode hex="0039"/>
  <outline>
    <contour>
      <point x="100" y="0" type="line"/>
      <point x="100" y="0"/>
      <point x="130" y="-10"/>
      <point x="180" y="-10" type="curve" smooth="yes"/>
      <point x="425" y="-10"/>
      <point x="540" y="165"/>
      <point x="540" y="405" type="curve" smooth="yes"/>
      <point x="540" y="580"/>
      <point x="460" y="710"/>
      <point x="285" y="710" type="curve" smooth="yes"/>
      <point x="155" y="710"/>
      <point x="45" y="625"/>
      <point x="45" y="480" type="curve" smooth="yes"/>
      <point x="45" y="345"/>
      <point x="145" y="275"/>
      <point x="260" y="275" type="curve" smooth="yes"/>
      <point x="360" y="275"/>
      <point x="430" y="325"/>
      <point x="430" y="325" type="curve"/>
      <point x="430" y="325"/>
      <point x="425" y="75"/>
      <point x="185" y="75" type="curve" smooth="yes"/>
      <point x="140" y="75"/>
      <point x="105" y="80"/>
      <point x="105" y="80" type="curve"/>
    </contour>
    <contour>
      <point x="435" y="405" type="line"/>
      <point x="435" y="405"/>
      <point x="370" y="360"/>
      <point x="290" y="360" type="curve" smooth="yes"/>
      <point x="200" y="360"/>
      <point x="150" y="400"/>
      <point x="150" y="490" type="curve" smooth="yes"/>
      <point x="150" y="575"/>
      <point x="205" y="625"/>
      <point x="285" y="625" type="curve" smooth="yes"/>
      <point x="365" y="625"/>
      <point x="435" y="570"/>
      <point x="435" y="435" type="curve" smooth="yes"/>
    </contour>
  </outline>
</glyph>
<glyph name="colon" format="1">
  <advance width="280"/>
  <unicode hex="003A"/>
  <outline>
    <contour>
      <point x="105" y="455"/>
      <point x="75" y="430"/>
      <point x="75" y="385" type="curve" smooth="yes"/>
      <point x="75" y="340"/>
      <point x="100" y="315"/>
      <point x="140" y="315" type="curve" smooth="yes"/>
      <point x="175" y="315"/>
      <point x="205" y="340"/>
      <point x="205" y="385" type="curve" smooth="yes"/>
      <point x="205" y="430"/>
      <point x="180" y="455"/>
      <point x="140" y="455" type="curve" smooth="yes"/>
    </contour>
    <contour>
      <point x="105" y="130"/>
      <point x="75" y="105"/>
      <point x="75" y="60" type="curve" smooth="yes"/>
      <point x="75" y="15"/>
      <point x="100" y="-10"/>
      <point x="140" y="-10" type="curve" smooth="yes"/>
      <point x="175" y="-10"/>
      <point x="205" y="15"/>
      <point x="205" y="60" type="curve" smooth="yes"/>
      <point x="205" y="105"/>
      <point x="180" y="130"/>
      <point x="140" y="130" type="curve" smooth="yes"/>
    </contour>
  </outline>
</glyph>
<glyph name="semicolon" format="1">
  <advance width="280"/>
  <unicode hex="003B"/>
  <outline>
    <contour>
      <point x="45" y="-116" type="line"/>
      <point x="45" y="-116"/>
      <point x="98" y="-46"/>
      <point x="98" y="-10" type="curve" smooth="yes"/>
      <point x="98" y="10"/>
      <point x="75" y="28"/>
      <point x="75" y="63" type="curve" smooth="yes"/>
      <point x="75" y="101"/>
      <point x="101" y="130"/>
      <point x="140" y="130" type="curve" smooth="yes"/>
      <point x="175" y="130"/>
      <point x="205" y="112"/>
      <point x="205" y="56" type="curve" smooth="yes"/>
      <point x="205" y="0"/>
      <point x="160" y="-79"/>
      <point x="90" y="-154" type="curve"/>
    </contour>
    <contour>
      <point x="74" y="340"/>
      <point x="99" y="315"/>
      <point x="139" y="315" type="curve" smooth="yes"/>
      <point x="174" y="315"/>
      <point x="204" y="340"/>
      <point x="204" y="385" type="curve" smooth="yes"/>
      <point x="204" y="430"/>
      <point x="179" y="455"/>
      <point x="139" y="455" type="curve" smooth="yes"/>
      <point x="104" y="455"/>
      <point x="74" y="430"/>
      <point x="74" y="385" type="curve" smooth="yes"/>
    </contour>
  </outline>
</glyph>
<glyph name="less" format="1">
  <advance width="610"/>
  <unicode hex="003C"/>
  <outline>
    <contour>
      <point x="50" y="300" type="line"/>
      <point x="50" y="230" type="line"/>
      <point x="560" y="-5" type="line"/>
      <point x="560" y="80" type="line"/>
      <point x="160" y="265" type="line"/>
      <point x="560" y="445" type="line"/>
      <point x="560" y="530" type="line"/>
    </contour>
  </outline>
</glyph>
<glyph name="equal" format="1">
  <advance width="600"/>
  <unicode hex="003D"/>
  <outline>
    <contour>
      <point x="55" y="135" type="line"/>
      <point x="545" y="135" type="line"/>
      <point x="545" y="215" type="line"/>
      <point x="55" y="215" type="line"/>
    </contour>
    <contour>
      <point x="55" y="330" type="line"/>
      <point x="545" y="330" type="line"/>
      <point x="545" y="410" type="line"/>
      <point x="55" y="410" type="line"/>
    </contour>
  </outline>
</glyph>
<glyph name="greater" format="1">
  <advance width="610"/>
  <unicode hex="003E"/>
  <outline>
    <contour>
      <point x="50" y="80" type="line"/>
      <point x="50" y="-5" type="line"/>
      <point x="560" y="230" type="line"/>
      <point x="560" y="300" type="line"/>
      <point x="50" y="530" type="line"/>
      <point x="50" y="445" type="line"/>
      <point x="450" y="265" type="line"/>
    </contour>
  </outline>
</glyph>
<glyph name="question" format="1">
  <advance width="481"/>
  <unicode hex="003F"/>
  <outline>
    <contour>
      <point x="131" y="15"/>
      <point x="156" y="-10"/>
      <point x="196" y="-10" type="curve" smooth="yes"/>
      <point x="231" y="-10"/>
      <point x="261" y="15"/>
      <point x="261" y="60" type="curve" smooth="yes"/>
      <point x="261" y="105"/>
      <point x="236" y="130"/>
      <point x="196" y="130" type="curve" smooth="yes"/>
      <point x="161" y="130"/>
      <point x="131" y="105"/>
      <point x="131" y="60" type="curve" smooth="yes"/>
    </contour>
    <contour>
      <point x="233" y="234" type="line"/>
      <point x="233" y="234"/>
      <point x="231" y="262"/>
      <point x="231" y="296" type="curve" smooth="yes"/>
      <point x="231" y="385"/>
      <point x="416" y="440"/>
      <point x="416" y="590" type="curve" smooth="yes"/>
      <point x="416" y="710"/>
      <point x="316" y="745"/>
      <point x="211" y="745" type="curve" smooth="yes"/>
      <point x="151" y="745"/>
      <point x="85" y="722"/>
      <point x="85" y="722" type="curve"/>
      <point x="101" y="647" type="line"/>
      <point x="101" y="647"/>
      <point x="156" y="660"/>
      <point x="206" y="660" type="curve" smooth="yes"/>
      <point x="276" y="660"/>
      <point x="311" y="635"/>
      <point x="311" y="580" type="curve" smooth="yes"/>
      <point x="311" y="469"/>
      <point x="134" y="413"/>
      <point x="134" y="326" type="curve" smooth="yes"/>
      <point x="134" y="296"/>
      <point x="143" y="228"/>
      <point x="143" y="228" type="curve"/>
    </contour>
  </outline>
</glyph>
<glyph name="at" format="1">
  <advance width="820"/>
  <unicode hex="0040"/>
  <outline>
    <contour>
      <point x="299" y="465" type="line"/>
      <point x="299" y="465"/>
      <point x="363" y="485"/>
      <point x="401" y="485" type="curve" smooth="yes"/>
      <point x="446" y="485"/>
      <point x="469" y="467"/>
      <point x="469" y="430" type="curve" smooth="yes"/>
      <point x="469" y="382" type="line"/>
      <point x="415" y="382" type="line" smooth="yes"/>
      <point x="305" y="382"/>
      <point x="253" y="346"/>
      <point x="253" y="271" type="curve" smooth="yes"/>
      <point x="253" y="198"/>
      <point x="292" y="159"/>
      <point x="364" y="159" type="curve" smooth="yes"/>
      <point x="426" y="159"/>
      <point x="482" y="221"/>
      <point x="482" y="221" type="curve"/>
      <point x="482" y="221"/>
      <point x="500" y="155"/>
      <point x="591" y="155" type="curve" smooth="yes"/>
      <point x="695" y="155"/>
      <point x="760" y="234"/>
      <point x="760" y="360" type="curve" smooth="yes"/>
      <point x="760" y="576"/>
      <point x="629" y="710"/>
      <point x="420" y="710" type="curve" smooth="yes"/>
      <point x="206" y="710"/>
      <point x="65" y="565"/>
      <point x="65" y="345" type="curve" smooth="yes"/>
      <point x="65" y="116"/>
      <point x="180" y="-10"/>
      <point x="390" y="-10" type="curve" smooth="yes"/>
      <point x="494" y="-10"/>
      <point x="555" y="30"/>
      <point x="555" y="30" type="curve"/>
      <point x="515" y="90" type="line"/>
      <point x="515" y="90"/>
      <point x="460" y="65"/>
      <point x="395" y="65" type="curve" smooth="yes"/>
      <point x="237" y="65"/>
      <point x="145" y="170"/>
      <point x="145" y="350" type="curve" smooth="yes"/>
      <point x="145" y="527"/>
      <point x="248" y="635"/>
      <point x="415" y="635" type="curve" smooth="yes"/>
      <point x="577" y="635"/>
      <point x="680" y="527"/>
      <point x="680" y="355" type="curve" smooth="yes"/>
      <point x="680" y="268"/>
      <point x="648" y="215"/>
      <point x="596" y="215" type="curve" smooth="yes"/>
      <point x="567" y="215"/>
      <point x="549" y="231"/>
      <point x="549" y="259" type="curve" smooth="yes"/>
      <point x="549" y="438" type="line"/>
      <point x="549" y="516"/>
      <point x="508" y="553"/>
      <point x="421" y="553" type="curve" smooth="yes"/>
      <point x="356" y="553"/>
      <point x="281" y="522"/>
      <point x="281" y="522" type="curve"/>
    </contour>
    <contour>
      <point x="469" y="328" type="line"/>
      <point x="469" y="270" type="line"/>
      <point x="469" y="270"/>
      <point x="430" y="225"/>
      <point x="383" y="225" type="curve" smooth="yes"/>
      <point x="351" y="225"/>
      <point x="331" y="243"/>
      <point x="331" y="271" type="curve" smooth="yes"/>
      <point x="331" y="312"/>
      <point x="356" y="328"/>
      <point x="421" y="328" type="curve" smooth="yes"/>
    </contour>
  </outline>
</glyph>
<glyph name="B" format="1">
  <advance width="630"/>
  <unicode hex="0042"/>
  <outline>
    <contour>
      <point x="225" y="700" type="line"/>
      <point x="40" y="695" type="line"/>
      <point x="40" y="640" type="line"/>
      <point x="125" y="620" type="line"/>
      <point x="125" y="80" type="line"/>
      <point x="40" y="60" type="line"/>
      <point x="40" y="0" type="line"/>
      <point x="325" y="0" type="line" smooth="yes"/>
      <point x="490" y="0"/>
      <point x="580" y="60"/>
      <point x="580" y="200" type="curve" smooth="yes"/>
      <point x="580" y="280"/>
      <point x="530" y="339"/>
      <point x="425" y="363" type="curve"/>
      <point x="509" y="384"/>
      <point x="555" y="435"/>
      <point x="555" y="525" type="curve" smooth="yes"/>
      <point x="555" y="645"/>
      <point x="465" y="700"/>
      <point x="340" y="700" type="curve" smooth="yes"/>
    </contour>
    <contour>
      <point x="410" y="325"/>
      <point x="475" y="295"/>
      <point x="475" y="195" type="curve" smooth="yes"/>
      <point x="475" y="120"/>
      <point x="425" y="80"/>
      <point x="330" y="80" type="curve" smooth="yes"/>
      <point x="225" y="80" type="line"/>
      <point x="225" y="325" type="line"/>
      <point x="300" y="325" type="line"/>
    </contour>
    <contour>
      <point x="400" y="620"/>
      <point x="450" y="585"/>
      <point x="450" y="515" type="curve" smooth="yes"/>
      <point x="450" y="435"/>
      <point x="390" y="400"/>
      <point x="300" y="400" type="curve" smooth="yes"/>
      <point x="225" y="400" type="line"/>
      <point x="225" y="620" type="line"/>
      <point x="335" y="620" type="line"/>
    </contour>
  </outline>
</glyph>
<glyph name="C" format="1">
  <advance width="665"/>
  <unicode hex="0043"/>
  <outline>
    <contour>
      <point x="540" y="490" type="line"/>
      <point x="615" y="490" type="line"/>
      <point x="620" y="660" type="line"/>
      <point x="620" y="660"/>
      <point x="505" y="710"/>
      <point x="395" y="710" type="curve" smooth="yes"/>
      <point x="190" y="710"/>
      <point x="60" y="565"/>
      <point x="60" y="335" type="curve" smooth="yes"/>
      <point x="60" y="110"/>
      <point x="180" y="-10"/>
      <point x="380" y="-10" type="curve" smooth="yes"/>
      <point x="530" y="-10"/>
      <point x="630" y="95"/>
      <point x="630" y="95" type="curve"/>
      <point x="590" y="160" type="line"/>
      <point x="590" y="160"/>
      <point x="495" y="80"/>
      <point x="390" y="80" type="curve" smooth="yes"/>
      <point x="265" y="80"/>
      <point x="175" y="160"/>
      <point x="175" y="340" type="curve" smooth="yes"/>
      <point x="175" y="525"/>
      <point x="250" y="625"/>
      <point x="385" y="625" type="curve" smooth="yes"/>
      <point x="460" y="625"/>
      <point x="513" y="605"/>
      <point x="513" y="605" type="curve"/>
    </contour>
  </outline>
</glyph>
<glyph name="D" format="1">
  <advance width="730"/>
  <unicode hex="0044"/>
  <outline>
    <contour>
      <point x="235" y="80" type="line"/>
      <point x="235" y="620" type="line"/>
      <point x="355" y="620" type="line" smooth="yes"/>
      <point x="480" y="620"/>
      <point x="560" y="540"/>
      <point x="560" y="355" type="curve" smooth="yes"/>
      <point x="560" y="165"/>
      <point x="475" y="80"/>
      <point x="350" y="80" type="curve" smooth="yes"/>
    </contour>
    <contour>
      <point x="45" y="0" type="line"/>
      <point x="345" y="0" type="line" smooth="yes"/>
      <point x="545" y="0"/>
      <point x="675" y="140"/>
      <point x="675" y="360" type="curve" smooth="yes"/>
      <point x="675" y="580"/>
      <point x="555" y="700"/>
      <point x="360" y="700" type="curve" smooth="yes"/>
      <point x="235" y="700" type="line"/>
      <point x="45" y="695" type="line"/>
      <point x="45" y="640" type="line"/>
      <point x="130" y="620" type="line"/>
      <point x="130" y="80" type="line"/>
      <point x="45" y="60" type="line"/>
    </contour>
  </outline>
</glyph>
<glyph name="F" format="1">
  <advance width="570"/>
  <unicode hex="0046"/>
  <outline>
    <contour>
      <point x="230" y="700" type="line"/>
      <point x="40" y="695" type="line"/>
      <point x="40" y="640" type="line"/>
      <point x="125" y="620" type="line"/>
      <point x="125" y="80" type="line"/>
      <point x="40" y="60" type="line"/>
      <point x="40" y="0" type="line"/>
      <point x="330" y="0" type="line"/>
      <point x="330" y="60" type="line"/>
      <point x="230" y="80" type="line"/>
      <point x="230" y="315" type="line"/>
      <point x="460" y="315" type="line"/>
      <point x="460" y="395" type="line"/>
      <point x="230" y="395" type="line"/>
      <point x="230" y="620" type="line"/>
      <point x="445" y="620" type="line"/>
      <point x="470" y="535" type="line"/>
      <point x="535" y="535" type="line"/>
      <point x="535" y="700" type="line"/>
    </contour>
  </outline>
</glyph>
<glyph name="H" format="1">
  <advance width="795"/>
  <unicode hex="0048"/>
  <outline>
    <contour>
      <point x="325" y="60" type="line"/>
      <point x="230" y="80" type="line"/>
      <point x="230" y="320" type="line"/>
      <point x="565" y="320" type="line"/>
      <point x="565" y="80" type="line"/>
      <point x="470" y="60" type="line"/>
      <point x="470" y="0" type="line"/>
      <point x="755" y="0" type="line"/>
      <point x="755" y="60" type="line"/>
      <point x="670" y="80" type="line"/>
      <point x="670" y="620" type="line"/>
      <point x="755" y="640" type="line"/>
      <point x="755" y="700" type="line"/>
      <point x="470" y="695" type="line"/>
      <point x="470" y="640" type="line"/>
      <point x="565" y="620" type="line"/>
      <point x="565" y="400" type="line"/>
      <point x="230" y="400" type="line"/>
      <point x="230" y="620" type="line"/>
      <point x="325" y="640" type="line"/>
      <point x="325" y="700" type="line"/>
      <point x="40" y="695" type="line"/>
      <point x="40" y="640" type="line"/>
      <point x="125" y="620" type="line"/>
      <point x="125" y="80" type="line"/>
      <point x="40" y="60" type="line"/>
      <point x="40" y="0" type="line"/>
      <point x="325" y="0" type="line"/>
    </contour>
  </outline>
</glyph>
<glyph name="I" format="1">
  <advance width="365"/>
  <unicode hex="0049"/>
  <outline>
    <contour>
      <point x="320" y="60" type="line"/>
      <point x="235" y="80" type="line"/>
      <point x="235" y="620" type="line"/>
      <point x="320" y="640" type="line"/>
      <point x="320" y="700" type="line"/>
      <point x="45" y="695" type="line"/>
      <point x="45" y="640" type="line"/>
      <point x="130" y="620" type="line"/>
      <point x="130" y="80" type="line"/>
      <point x="45" y="60" type="line"/>
      <point x="45" y="0" type="line"/>
      <point x="320" y="0" type="line"/>
    </contour>
  </outline>
</glyph>
<glyph name="J" format="1">
  <advance width="359"/>
  <unicode hex="004A"/>
  <outline>
    <contour>
      <point x="44" y="695" type="line"/>
      <point x="44" y="640" type="line"/>
      <point x="129" y="620" type="line"/>
      <point x="129" y="25" type="line" smooth="yes"/>
      <point x="129" y="-35"/>
      <point x="104" y="-70"/>
      <point x="39" y="-70" type="curve" smooth="yes"/>
      <point x="-11" y="-70" type="line"/>
      <point x="-20" y="-145" type="line"/>
      <point x="-20" y="-145"/>
      <point x="19" y="-150"/>
      <point x="44" y="-150" type="curve" smooth="yes"/>
      <point x="164" y="-150"/>
      <point x="234" y="-75"/>
      <point x="234" y="45" type="curve" smooth="yes"/>
      <point x="234" y="620" type="line"/>
      <point x="319" y="640" type="line"/>
      <point x="319" y="700" type="line"/>
    </contour>
  </outline>
</glyph>
<glyph name="K" format="1">
  <advance width="690"/>
  <unicode hex="004B"/>
  <outline>
    <contour>
      <point x="500" y="695" type="line"/>
      <point x="327" y="400" type="line"/>
      <point x="235" y="400" type="line"/>
      <point x="235" y="620" type="line"/>
      <point x="330" y="640" type="line"/>
      <point x="330" y="700" type="line"/>
      <point x="45" y="695" type="line"/>
      <point x="45" y="640" type="line"/>
      <point x="130" y="620" type="line"/>
      <point x="130" y="80" type="line"/>
      <point x="45" y="60" type="line"/>
      <point x="45" y="0" type="line"/>
      <point x="330" y="0" type="line"/>
      <point x="330" y="60" type="line"/>
      <point x="235" y="80" type="line"/>
      <point x="235" y="320" type="line"/>
      <point x="333" y="320" type="line"/>
      <point x="505" y="80" type="line"/>
      <point x="420" y="60" type="line"/>
      <point x="420" y="0" type="line"/>
      <point x="705" y="0" type="line"/>
      <point x="705" y="60" type="line"/>
      <point x="620" y="80" type="line"/>
      <point x="414" y="367" type="line"/>
      <point x="566" y="620" type="line"/>
      <point x="665" y="640" type="line"/>
      <point x="665" y="700" type="line"/>
    </contour>
  </outline>
</glyph>
<glyph name="L" format="1">
  <advance width="530"/>
  <unicode hex="004C"/>
  <outline>
    <contour>
      <point x="225" y="620" type="line"/>
      <point x="310" y="640" type="line"/>
      <point x="310" y="700" type="line"/>
      <point x="35" y="695" type="line"/>
      <point x="35" y="640" type="line"/>
      <point x="120" y="620" type="line"/>
      <point x="120" y="80" type="line"/>
      <point x="35" y="60" type="line"/>
      <point x="35" y="0" type="line"/>
      <point x="520" y="0" type="line"/>
      <point x="520" y="195" type="line"/>
      <point x="450" y="195" type="line"/>
      <point x="430" y="80" type="line"/>
      <point x="225" y="80" type="line"/>
    </contour>
  </outline>
</glyph>
<glyph name="M" format="1">
  <advance width="885"/>
  <unicode hex="004D"/>
  <outline>
    <contour>
      <point x="635" y="695" type="line"/>
      <point x="446" y="300" type="line"/>
      <point x="265" y="700" type="line"/>
      <point x="40" y="695" type="line"/>
      <point x="40" y="640" type="line"/>
      <point x="125" y="620" type="line"/>
      <point x="125" y="80" type="line"/>
      <point x="40" y="60" type="line"/>
      <point x="40" y="0" type="line"/>
      <point x="310" y="0" type="line"/>
      <point x="310" y="60" type="line"/>
      <point x="215" y="80" type="line"/>
      <point x="215" y="580" type="line"/>
      <point x="240" y="510" type="line"/>
      <point x="395" y="185" type="line"/>
      <point x="475" y="190" type="line"/>
      <point x="630" y="505" type="line"/>
      <point x="660" y="580" type="line"/>
      <point x="660" y="80" type="line"/>
      <point x="565" y="60" type="line"/>
      <point x="565" y="0" type="line"/>
      <point x="845" y="0" type="line"/>
      <point x="845" y="60" type="line"/>
      <point x="760" y="80" type="line"/>
      <point x="760" y="620" type="line"/>
      <point x="845" y="640" type="line"/>
      <point x="845" y="700" type="line"/>
    </contour>
  </outline>
</glyph>
<glyph name="N" format="1">
  <advance width="790"/>
  <unicode hex="004E"/>
  <outline>
    <contour>
      <point x="495" y="695" type="line"/>
      <point x="495" y="640" type="line"/>
      <point x="580" y="620" type="line"/>
      <point x="580" y="141" type="line"/>
      <point x="250" y="700" type="line"/>
      <point x="40" y="695" type="line"/>
      <point x="40" y="640" type="line"/>
      <point x="125" y="620" type="line"/>
      <point x="125" y="80" type="line"/>
      <point x="40" y="60" type="line"/>
      <point x="40" y="0" type="line"/>
      <point x="310" y="0" type="line"/>
      <point x="310" y="60" type="line"/>
      <point x="215" y="80" type="line"/>
      <point x="215" y="551" type="line"/>
      <point x="545" y="0" type="line"/>
      <point x="670" y="0" type="line"/>
      <point x="670" y="620" type="line"/>
      <point x="755" y="640" type="line"/>
      <point x="755" y="700" type="line"/>
    </contour>
  </outline>
</glyph>
<glyph name="O" format="1">
  <advance width="755"/>
  <unicode hex="004F"/>
  <outline>
    <contour>
      <point x="185" y="710"/>
      <point x="60" y="565"/>
      <point x="60" y="345" type="curve" smooth="yes"/>
      <point x="60" y="115"/>
      <point x="170" y="-10"/>
      <point x="365" y="-10" type="curve" smooth="yes"/>
      <point x="560" y="-10"/>
      <point x="695" y="140"/>
      <point x="695" y="360" type="curve" smooth="yes"/>
      <point x="695" y="575"/>
      <point x="580" y="710"/>
      <point x="385" y="710" type="curve" smooth="yes"/>
    </contour>
    <contour>
      <point x="510" y="625"/>
      <point x="580" y="535"/>
      <point x="580" y="355" type="curve" smooth="yes"/>
      <point x="580" y="165"/>
      <point x="500" y="75"/>
      <point x="370" y="75" type="curve" smooth="yes"/>
      <point x="240" y="75"/>
      <point x="175" y="170"/>
      <point x="175" y="350" type="curve" smooth="yes"/>
      <point x="175" y="540"/>
      <point x="250" y="625"/>
      <point x="380" y="625" type="curve" smooth="yes"/>
    </contour>
  </outline>
</glyph>
<glyph name="P" format="1">
  <advance width="590"/>
  <unicode hex="0050"/>
  <outline>
    <contour>
      <point x="230" y="700" type="line"/>
      <point x="40" y="695" type="line"/>
      <point x="40" y="640" type="line"/>
      <point x="125" y="620" type="line"/>
      <point x="125" y="80" type="line"/>
      <point x="40" y="60" type="line"/>
      <point x="40" y="0" type="line"/>
      <point x="315" y="0" type="line"/>
      <point x="315" y="60" type="line"/>
      <point x="230" y="80" type="line"/>
      <point x="230" y="260" type="line"/>
      <point x="295" y="260" type="line" smooth="yes"/>
      <point x="465" y="260"/>
      <point x="565" y="340"/>
      <point x="565" y="495" type="curve" smooth="yes"/>
      <point x="565" y="620"/>
      <point x="485" y="700"/>
      <point x="335" y="700" type="curve" smooth="yes"/>
    </contour>
    <contour>
      <point x="415" y="620"/>
      <point x="460" y="560"/>
      <point x="460" y="480" type="curve" smooth="yes"/>
      <point x="460" y="390"/>
      <point x="405" y="340"/>
      <point x="295" y="340" type="curve" smooth="yes"/>
      <point x="230" y="340" type="line"/>
      <point x="230" y="620" type="line"/>
      <point x="330" y="620" type="line"/>
    </contour>
  </outline>
</glyph>
<glyph name="Q" format="1">
  <advance width="740"/>
  <unicode hex="0051"/>
  <outline>
    <contour>
      <point x="785" y="-65" type="line"/>
      <point x="785" y="-65"/>
      <point x="725" y="-100"/>
      <point x="690" y="-100" type="curve" smooth="yes"/>
      <point x="655" y="-100"/>
      <point x="616" y="-78"/>
      <point x="585" y="-60" type="curve" smooth="yes"/>
      <point x="477" y="5" type="line"/>
      <point x="618" y="47"/>
      <point x="705" y="180"/>
      <point x="705" y="360" type="curve" smooth="yes"/>
      <point x="705" y="575"/>
      <point x="595" y="710"/>
      <point x="395" y="710" type="curve" smooth="yes"/>
      <point x="195" y="710"/>
      <point x="60" y="565"/>
      <point x="60" y="345" type="curve" smooth="yes"/>
      <point x="60" y="128"/>
      <point x="162" y="5"/>
      <point x="341" y="-8" type="curve"/>
      <point x="540" y="-130" type="line" smooth="yes"/>
      <point x="580" y="-154"/>
      <point x="630" y="-185"/>
      <point x="670" y="-185" type="curve" smooth="yes"/>
      <point x="725" y="-185"/>
      <point x="825" y="-125"/>
      <point x="825" y="-125" type="curve"/>
    </contour>
    <contour>
      <point x="530" y="625"/>
      <point x="595" y="530"/>
      <point x="595" y="355" type="curve" smooth="yes"/>
      <point x="595" y="170"/>
      <point x="520" y="75"/>
      <point x="380" y="75" type="curve" smooth="yes"/>
      <point x="240" y="75"/>
      <point x="170" y="175"/>
      <point x="170" y="350" type="curve" smooth="yes"/>
      <point x="170" y="535"/>
      <point x="250" y="625"/>
      <point x="390" y="625" type="curve" smooth="yes"/>
    </contour>
  </outline>
</glyph>
<glyph name="R" format="1">
  <advance width="650"/>
  <unicode hex="0052"/>
  <outline>
    <contour>
      <point x="40" y="0" type="line"/>
      <point x="315" y="0" type="line"/>
      <point x="315" y="60" type="line"/>
      <point x="230" y="80" type="line"/>
      <point x="230" y="305" type="line"/>
      <point x="275" y="305" type="line" smooth="yes"/>
      <point x="341" y="305"/>
      <point x="363" y="285"/>
      <point x="410" y="185" type="curve" smooth="yes"/>
      <point x="495" y="0" type="line"/>
      <point x="645" y="0" type="line"/>
      <point x="645" y="60" type="line"/>
      <point x="574" y="76" type="line"/>
      <point x="495" y="235" type="line" smooth="yes"/>
      <point x="469" y="285"/>
      <point x="451" y="311"/>
      <point x="435" y="325" type="curve"/>
      <point x="521" y="357"/>
      <point x="565" y="423"/>
      <point x="565" y="520" type="curve" smooth="yes"/>
      <point x="565" y="632"/>
      <point x="481" y="700"/>
      <point x="340" y="700" type="curve" smooth="yes"/>
      <point x="230" y="700" type="line"/>
      <point x="40" y="695" type="line"/>
      <point x="40" y="640" type="line"/>
      <point x="125" y="620" type="line"/>
      <point x="125" y="80" type="line"/>
      <point x="40" y="60" type="line"/>
    </contour>
    <contour>
      <point x="230" y="620" type="line"/>
      <point x="335" y="620" type="line"/>
      <point x="408" y="620"/>
      <point x="460" y="572"/>
      <point x="460" y="505" type="curve" smooth="yes"/>
      <point x="460" y="426"/>
      <point x="403" y="380"/>
      <point x="305" y="380" type="curve" smooth="yes"/>
      <point x="230" y="380" type="line"/>
    </contour>
  </outline>
</glyph>
<glyph name="T" format="1">
  <advance width="565"/>
  <unicode hex="0054"/>
  <outline>
    <contour>
      <point x="435" y="60" type="line"/>
      <point x="335" y="80" type="line"/>
      <point x="335" y="620" type="line"/>
      <point x="465" y="620" type="line"/>
      <point x="490" y="520" type="line"/>
      <point x="555" y="520" type="line"/>
      <point x="555" y="700" type="line"/>
      <point x="10" y="700" type="line"/>
      <point x="10" y="520" type="line"/>
      <point x="75" y="520" type="line"/>
      <point x="100" y="620" type="line"/>
      <point x="230" y="620" type="line"/>
      <point x="230" y="80" type="line"/>
      <point x="130" y="60" type="line"/>
      <point x="130" y="0" type="line"/>
      <point x="435" y="0" type="line"/>
    </contour>
  </outline>
</glyph>
<glyph name="U" format="1">
  <advance width="790"/>
  <unicode hex="0055"/>
  <outline>
    <contour>
      <point x="665" y="620" type="line"/>
      <point x="750" y="640" type="line"/>
      <point x="750" y="700" type="line"/>
      <point x="465" y="695" type="line"/>
      <point x="465" y="640" type="line"/>
      <point x="560" y="620" type="line"/>
      <point x="560" y="285" type="line" smooth="yes"/>
      <point x="560" y="130"/>
      <point x="520" y="75"/>
      <point x="395" y="75" type="curve" smooth="yes"/>
      <point x="280" y="75"/>
      <point x="230" y="120"/>
      <point x="230" y="270" type="curve" smooth="yes"/>
      <point x="230" y="620" type="line"/>
      <point x="325" y="640" type="line"/>
      <point x="325" y="700" type="line"/>
      <point x="40" y="695" type="line"/>
      <point x="40" y="640" type="line"/>
      <point x="125" y="620" type="line"/>
      <point x="125" y="270" type="line" smooth="yes"/>
      <point x="125" y="85"/>
      <point x="195" y="-10"/>
      <point x="390" y="-10" type="curve" smooth="yes"/>
      <point x="600" y="-10"/>
      <point x="665" y="100"/>
      <point x="665" y="285" type="curve" smooth="yes"/>
    </contour>
  </outline>
</glyph>
<glyph name="V" format="1">
  <advance width="700"/>
  <unicode hex="0056"/>
  <outline>
    <contour>
      <point x="425" y="695" type="line"/>
      <point x="425" y="640" type="line"/>
      <point x="518" y="620" type="line"/>
      <point x="379" y="216" type="line"/>
      <point x="351" y="135" type="line"/>
      <point x="325" y="216" type="line"/>
      <point x="194" y="621" type="line"/>
      <point x="285" y="640" type="line"/>
      <point x="285" y="700" type="line"/>
      <point x="5" y="695" type="line"/>
      <point x="5" y="640" type="line"/>
      <point x="82" y="620" type="line"/>
      <point x="295" y="0" type="line"/>
      <point x="395" y="0" type="line"/>
      <point x="617" y="620" type="line"/>
      <point x="695" y="640" type="line"/>
      <point x="695" y="700" type="line"/>
    </contour>
  </outline>
</glyph>
<glyph name="X" format="1">
  <advance width="700"/>
  <unicode hex="0058"/>
  <outline>
    <contour>
      <point x="415" y="695" type="line"/>
      <point x="415" y="640" type="line"/>
      <point x="485" y="620" type="line"/>
      <point x="355" y="430" type="line"/>
      <point x="225" y="620" type="line"/>
      <point x="290" y="640" type="line"/>
      <point x="290" y="700" type="line"/>
      <point x="25" y="695" type="line"/>
      <point x="25" y="640" type="line"/>
      <point x="100" y="620" type="line"/>
      <point x="285" y="355" type="line"/>
      <point x="75" y="75" type="line"/>
      <point x="10" y="60" type="line"/>
      <point x="10" y="0" type="line"/>
      <point x="275" y="0" type="line"/>
      <point x="275" y="60" type="line"/>
      <point x="190" y="80" type="line"/>
      <point x="340" y="280" type="line"/>
      <point x="480" y="75" type="line"/>
      <point x="420" y="60" type="line"/>
      <point x="420" y="0" type="line"/>
      <point x="690" y="0" type="line"/>
      <point x="690" y="60" type="line"/>
      <point x="605" y="80" type="line"/>
      <point x="410" y="360" type="line"/>
      <point x="590" y="620" type="line"/>
      <point x="680" y="640" type="line"/>
      <point x="680" y="700" type="line"/>
    </contour>
  </outline>
</glyph>
<glyph name="Y" format="1">
  <advance width="645"/>
  <unicode hex="0059"/>
  <outline>
    <contour>
      <point x="395" y="695" type="line"/>
      <point x="395" y="640" type="line"/>
      <point x="472" y="620" type="line"/>
      <point x="357" y="400" type="line"/>
      <point x="325" y="340" type="line"/>
      <point x="297" y="398" type="line"/>
      <point x="192" y="620" type="line"/>
      <point x="260" y="640" type="line"/>
      <point x="260" y="700" type="line"/>
      <point x="10" y="695" type="line"/>
      <point x="10" y="640" type="line"/>
      <point x="77" y="621" type="line" smooth="yes"/>
      <point x="270" y="259" type="line"/>
      <point x="270" y="80" type="line"/>
      <point x="185" y="60" type="line"/>
      <point x="185" y="0" type="line"/>
      <point x="460" y="0" type="line"/>
      <point x="460" y="60" type="line"/>
      <point x="375" y="80" type="line"/>
      <point x="375" y="261" type="line"/>
      <point x="573" y="622" type="line"/>
      <point x="635" y="640" type="line"/>
      <point x="635" y="700" type="line"/>
    </contour>
  </outline>
</glyph>
<glyph name="Z" format="1">
  <advance width="615"/>
  <unicode hex="005A"/>
  <outline>
    <contour>
      <point x="70" y="700" type="line"/>
      <point x="70" y="520" type="line"/>
      <point x="135" y="520" type="line"/>
      <point x="160" y="620" type="line"/>
      <point x="440" y="620" type="line"/>
      <point x="40" y="70" type="line"/>
      <point x="40" y="0" type="line"/>
      <point x="570" y="0" type="line"/>
      <point x="570" y="180" type="line"/>
      <point x="505" y="180" type="line"/>
      <point x="485" y="80" type="line"/>
      <point x="175" y="80" type="line"/>
      <point x="575" y="630" type="line"/>
      <point x="575" y="700" type="line"/>
    </contour>
  </outline>
</glyph>
<glyph name="bracketleft" format="1">
  <advance width="345"/>
  <unicode hex="005B"/>
  <outline>
    <contour>
      <point x="305" y="-160" type="line"/>
      <point x="185" y="-149" type="line"/>
      <point x="185" y="689" type="line"/>
      <point x="305" y="700" type="line"/>
      <point x="305" y="765" type="line"/>
      <point x="90" y="770" type="line"/>
      <point x="90" y="-230" type="line"/>
      <point x="305" y="-225" type="line"/>
    </contour>
  </outline>
</glyph>
<glyph name="backslash" format="1">
  <advance width="506"/>
  <unicode hex="005C"/>
  <outline>
    <contour>
      <point x="135" y="700" type="line"/>
      <point x="30" y="700" type="line"/>
      <point x="361" y="0" type="line"/>
      <point x="466" y="0" type="line"/>
    </contour>
  </outline>
</glyph>
<glyph name="bracketright" format="1">
  <advance width="345"/>
  <unicode hex="005D"/>
  <outline>
    <contour>
      <point x="40" y="765" type="line"/>
      <point x="40" y="700" type="line"/>
      <point x="160" y="689" type="line"/>
      <point x="160" y="-149" type="line"/>
      <point x="40" y="-160" type="line"/>
      <point x="40" y="-225" type="line"/>
      <point x="255" y="-230" type="line"/>
      <point x="255" y="770" type="line"/>
    </contour>
  </outline>
</glyph>
<glyph name="asciicircum" format="1">
  <advance width="570"/>
  <unicode hex="005E"/>
  <outline>
    <contour>
      <point x="250" y="700" type="line"/>
      <point x="60" y="320" type="line"/>
      <point x="145" y="320" type="line"/>
      <point x="282" y="600" type="line"/>
      <point x="423" y="320" type="line"/>
      <point x="510" y="320" type="line"/>
      <point x="320" y="700" type="line"/>
    </contour>
  </outline>
</glyph>
<glyph name="underscore" format="1">
  <advance width="500"/>
  <unicode hex="005F"/>
  <outline>
    <contour>
      <point x="-2" y="-80" type="line"/>
      <point x="-2" y="-150" type="line"/>
      <point x="502" y="-150" type="line"/>
      <point x="502" y="-80" type="line"/>
    </contour>
  </outline>
</glyph>
<glyph name="grave" format="1">
  <advance width="245"/>
  <unicode hex="0060"/>
  <outline>
    <contour>
      <point x="0" y="725" type="line"/>
      <point x="210" y="595" type="line"/>
      <point x="245" y="645" type="line"/>
      <point x="50" y="800" type="line"/>
    </contour>
  </outline>
</glyph>
<glyph name="a" format="1">
  <advance width="565"/>
  <unicode hex="0061"/>
  <outline>
    <contour>
      <point x="80" y="375" type="line"/>
      <point x="145" y="375" type="line"/>
      <point x="159" y="450" type="line"/>
      <point x="159" y="450"/>
      <point x="200" y="465"/>
      <point x="260" y="465" type="curve" smooth="yes"/>
      <point x="320" y="465"/>
      <point x="355" y="435"/>
      <point x="355" y="375" type="curve" smooth="yes"/>
      <point x="355" y="295" type="line"/>
      <point x="275" y="295" type="line" smooth="yes"/>
      <point x="135" y="295"/>
      <point x="45" y="255"/>
      <point x="45" y="140" type="curve" smooth="yes"/>
      <point x="45" y="45"/>
      <point x="100" y="-10"/>
      <point x="195" y="-10" type="curve" smooth="yes"/>
      <point x="265" y="-10"/>
      <point x="325" y="36"/>
      <point x="359" y="70" type="curve"/>
      <point x="380" y="0" type="line"/>
      <point x="535" y="5" type="line"/>
      <point x="535" y="60" type="line"/>
      <point x="455" y="80" type="line"/>
      <point x="455" y="385" type="line" smooth="yes"/>
      <point x="455" y="500"/>
      <point x="386" y="540"/>
      <point x="270" y="540" type="curve" smooth="yes"/>
      <point x="185" y="540"/>
      <point x="75" y="500"/>
      <point x="75" y="500" type="curve"/>
    </contour>
    <contour>
      <point x="355" y="230" type="line"/>
      <point x="355" y="150" type="line"/>
      <point x="355" y="150"/>
      <point x="295" y="70"/>
      <point x="220" y="70" type="curve" smooth="yes"/>
      <point x="175" y="70"/>
      <point x="147" y="100"/>
      <point x="147" y="145" type="curve" smooth="yes"/>
      <point x="147" y="205"/>
      <point x="185" y="230"/>
      <point x="285" y="230" type="curve" smooth="yes"/>
    </contour>
  </outline>
</glyph>
<glyph name="b" format="1">
  <advance width="590"/>
  <unicode hex="0062"/>
  <outline>
    <contour>
      <point x="185" y="770" type="line"/>
      <point x="5" y="765" type="line"/>
      <point x="5" y="710" type="line"/>
      <point x="85" y="690" type="line"/>
      <point x="85" y="15" type="line"/>
      <point x="85" y="15"/>
      <point x="160" y="-10"/>
      <point x="270" y="-10" type="curve" smooth="yes"/>
      <point x="450" y="-10"/>
      <point x="545" y="110"/>
      <point x="545" y="280" type="curve" smooth="yes"/>
      <point x="545" y="435"/>
      <point x="480" y="540"/>
      <point x="335" y="540" type="curve" smooth="yes"/>
      <point x="270" y="540"/>
      <point x="218" y="508"/>
      <point x="185" y="482" type="curve"/>
    </contour>
    <contour>
      <point x="185" y="395" type="line"/>
      <point x="185" y="395"/>
      <point x="225" y="460"/>
      <point x="315" y="460" type="curve" smooth="yes"/>
      <point x="405" y="460"/>
      <point x="440" y="380"/>
      <point x="440" y="270" type="curve" smooth="yes"/>
      <point x="440" y="160"/>
      <point x="401" y="70"/>
      <point x="285" y="70" type="curve" smooth="yes"/>
      <point x="211" y="70"/>
      <point x="185" y="80"/>
      <point x="185" y="80" type="curve"/>
    </contour>
  </outline>
</glyph>
<glyph name="f" format="1">
  <advance width="415"/>
  <unicode hex="0066"/>
  <outline>
    <contour>
      <point x="45" y="515" type="line"/>
      <point x="45" y="450" type="line"/>
      <point x="135" y="450" type="line"/>
      <point x="135" y="80" type="line"/>
      <point x="50" y="55" type="line"/>
      <point x="50" y="0" type="line"/>
      <point x="335" y="0" type="line"/>
      <point x="335" y="55" type="line"/>
      <point x="235" y="80" type="line"/>
      <point x="235" y="450" type="line"/>
      <point x="364" y="450" type="line"/>
      <point x="367" y="525" type="line"/>
      <point x="235" y="525" type="line"/>
      <point x="235" y="605" type="line" smooth="yes"/>
      <point x="235" y="665"/>
      <point x="255" y="705"/>
      <point x="325" y="705" type="curve" smooth="yes"/>
      <point x="360" y="705"/>
      <point x="385" y="700"/>
      <point x="385" y="700" type="curve"/>
      <point x="400" y="620" type="line"/>
      <point x="470" y="620" type="line"/>
      <point x="470" y="745" type="line"/>
      <point x="470" y="745"/>
      <point x="415" y="780"/>
      <point x="320" y="780" type="curve" smooth="yes"/>
      <point x="200" y="780"/>
      <point x="135" y="705"/>
      <point x="135" y="585" type="curve" smooth="yes"/>
      <point x="135" y="525" type="line"/>
    </contour>
  </outline>
</glyph>
<glyph name="g" format="1">
  <advance width="585"/>
  <unicode hex="0067"/>
  <outline>
    <contour>
      <point x="560" y="525" type="line"/>
      <point x="385" y="521" type="line"/>
      <point x="385" y="521"/>
      <point x="350" y="540"/>
      <point x="285" y="540" type="curve"/>
      <point x="155" y="540"/>
      <point x="65" y="475"/>
      <point x="65" y="345" type="curve"/>
      <point x="65" y="225"/>
      <point x="142" y="190"/>
      <point x="142" y="190" type="curve"/>
      <point x="142" y="190"/>
      <point x="90" y="110"/>
      <point x="90" y="77" type="curve"/>
      <point x="90" y="25"/>
      <point x="150" y="20"/>
      <point x="150" y="20" type="curve"/>
      <point x="150" y="20"/>
      <point x="45" y="-15"/>
      <point x="45" y="-105" type="curve" smooth="yes"/>
      <point x="45" y="-215"/>
      <point x="145" y="-250"/>
      <point x="285" y="-250" type="curve" smooth="yes"/>
      <point x="460" y="-250"/>
      <point x="545" y="-180"/>
      <point x="545" y="-70" type="curve" smooth="yes"/>
      <point x="545" y="25"/>
      <point x="475" y="75"/>
      <point x="345" y="75" type="curve" smooth="yes"/>
      <point x="190" y="75" type="line"/>
      <point x="195" y="169" type="line"/>
      <point x="195" y="169"/>
      <point x="225" y="160"/>
      <point x="270" y="160" type="curve"/>
      <point x="400" y="160"/>
      <point x="490" y="220"/>
      <point x="490" y="355" type="curve"/>
      <point x="490" y="420"/>
      <point x="463" y="456"/>
      <point x="463" y="456" type="curve"/>
      <point x="560" y="470" type="line"/>
    </contour>
    <contour>
      <point x="320" y="0" type="line"/>
      <point x="400" y="0"/>
      <point x="450" y="-15"/>
      <point x="450" y="-80" type="curve" smooth="yes"/>
      <point x="450" y="-145"/>
      <point x="400" y="-175"/>
      <point x="300" y="-175" type="curve" smooth="yes"/>
      <point x="205" y="-175"/>
      <point x="145" y="-160"/>
      <point x="145" y="-90" type="curve" smooth="yes"/>
      <point x="145" y="-30"/>
      <point x="210" y="0"/>
      <point x="210" y="0" type="curve"/>
    </contour>
    <contour>
      <point x="355" y="470"/>
      <point x="390" y="425"/>
      <point x="390" y="350" type="curve" smooth="yes"/>
      <point x="390" y="265"/>
      <point x="355" y="230"/>
      <point x="275" y="230" type="curve" smooth="yes"/>
      <point x="200" y="230"/>
      <point x="165" y="280"/>
      <point x="165" y="350" type="curve" smooth="yes"/>
      <point x="165" y="430"/>
      <point x="200" y="470"/>
      <point x="280" y="470" type="curve" smooth="yes"/>
    </contour>
  </outline>
</glyph>
<glyph name="i" format="1">
  <advance width="335"/>
  <unicode hex="0069"/>
  <outline>
    <contour>
      <point x="105" y="650"/>
      <point x="130" y="625"/>
      <point x="170" y="625" type="curve" smooth="yes"/>
      <point x="200" y="625"/>
      <point x="235" y="650"/>
      <point x="235" y="695" type="curve" smooth="yes"/>
      <point x="235" y="745"/>
      <point x="210" y="765"/>
      <point x="170" y="765" type="curve" smooth="yes"/>
      <point x="135" y="765"/>
      <point x="105" y="740"/>
      <point x="105" y="695" type="curve" smooth="yes"/>
    </contour>
    <contour>
      <point x="225" y="530" type="line"/>
      <point x="40" y="525" type="line"/>
      <point x="40" y="470" type="line"/>
      <point x="125" y="450" type="line"/>
      <point x="125" y="80" type="line"/>
      <point x="40" y="55" type="line"/>
      <point x="40" y="0" type="line"/>
      <point x="300" y="0" type="line"/>
      <point x="300" y="55" type="line"/>
      <point x="225" y="80" type="line"/>
    </contour>
  </outline>
</glyph>
<glyph name="k" format="1">
  <advance width="580"/>
  <unicode hex="006B"/>
  <outline>
    <contour>
      <point x="210" y="770" type="line"/>
      <point x="25" y="765" type="line"/>
      <point x="25" y="710" type="line"/>
      <point x="110" y="690" type="line"/>
      <point x="110" y="80" type="line"/>
      <point x="25" y="55" type="line"/>
      <point x="25" y="0" type="line"/>
      <point x="275" y="0" type="line"/>
      <point x="275" y="55" type="line"/>
      <point x="210" y="80" type="line"/>
      <point x="210" y="255" type="line"/>
      <point x="297" y="255" type="line"/>
      <point x="440" y="0" type="line"/>
      <point x="575" y="0" type="line"/>
      <point x="575" y="55" type="line"/>
      <point x="500" y="80" type="line"/>
      <point x="499" y="80" type="line"/>
      <point x="370" y="305" type="line"/>
      <point x="473" y="458" type="line"/>
      <point x="474" y="458" type="line"/>
      <point x="545" y="470" type="line"/>
      <point x="545" y="530" type="line"/>
      <point x="325" y="525" type="line"/>
      <point x="325" y="470" type="line"/>
      <point x="370" y="456" type="line"/>
      <point x="295" y="330" type="line"/>
      <point x="210" y="330" type="line"/>
    </contour>
  </outline>
</glyph>
<glyph name="l" format="1">
  <advance width="307"/>
  <unicode hex="006C"/>
  <outline>
    <contour>
      <point x="212" y="770" type="line"/>
      <point x="25" y="765" type="line"/>
      <point x="25" y="710" type="line"/>
      <point x="110" y="690" type="line"/>
      <point x="110" y="80" type="line"/>
      <point x="25" y="55" type="line"/>
      <point x="25" y="0" type="line"/>
      <point x="302" y="0" type="line"/>
      <point x="302" y="55" type="line"/>
      <point x="212" y="80" type="line"/>
    </contour>
  </outline>
</glyph>
<glyph name="m" format="1">
  <advance width="980"/>
  <unicode hex="006D"/>
  <outline>
    <contour>
      <point x="628" y="540"/>
      <point x="547" y="467"/>
      <point x="534" y="454" type="curve"/>
      <point x="511" y="506"/>
      <point x="467" y="540"/>
      <point x="395" y="540" type="curve" smooth="yes"/>
      <point x="313" y="540"/>
      <point x="237" y="481"/>
      <point x="214" y="459" type="curve"/>
      <point x="205" y="530" type="line"/>
      <point x="40" y="525" type="line"/>
      <point x="40" y="470" type="line"/>
      <point x="125" y="450" type="line"/>
      <point x="125" y="80" type="line"/>
      <point x="40" y="55" type="line"/>
      <point x="40" y="0" type="line"/>
      <point x="290" y="0" type="line"/>
      <point x="290" y="55" type="line"/>
      <point x="225" y="80" type="line"/>
      <point x="225" y="375" type="line"/>
      <point x="225" y="375"/>
      <point x="280" y="455"/>
      <point x="365" y="455" type="curve" smooth="yes"/>
      <point x="430" y="455"/>
      <point x="450" y="420"/>
      <point x="450" y="350" type="curve" smooth="yes"/>
      <point x="450" y="80" type="line"/>
      <point x="385" y="55" type="line"/>
      <point x="385" y="0" type="line"/>
      <point x="615" y="0" type="line"/>
      <point x="615" y="55" type="line"/>
      <point x="550" y="80" type="line"/>
      <point x="550" y="375" type="line"/>
      <point x="550" y="375"/>
      <point x="605" y="455"/>
      <point x="690" y="455" type="curve" smooth="yes"/>
      <point x="755" y="455"/>
      <point x="775" y="420"/>
      <point x="775" y="350" type="curve" smooth="yes"/>
      <point x="775" y="80" type="line"/>
      <point x="710" y="55" type="line"/>
      <point x="710" y="0" type="line"/>
      <point x="950" y="0" type="line"/>
      <point x="950" y="55" type="line"/>
      <point x="875" y="80" type="line"/>
      <point x="875" y="360" type="line" smooth="yes"/>
      <point x="875" y="470"/>
      <point x="830" y="540"/>
      <point x="720" y="540" type="curve" smooth="yes"/>
    </contour>
  </outline>
</glyph>
<glyph name="n" format="1">
  <advance width="665"/>
  <unicode hex="006E"/>
  <outline>
    <contour>
      <point x="317" y="540"/>
      <point x="238" y="480"/>
      <point x="214" y="459" type="curve"/>
      <point x="205" y="530" type="line"/>
      <point x="40" y="525" type="line"/>
      <point x="40" y="470" type="line"/>
      <point x="125" y="450" type="line"/>
      <point x="125" y="80" type="line"/>
      <point x="40" y="55" type="line"/>
      <point x="40" y="0" type="line"/>
      <point x="290" y="0" type="line"/>
      <point x="290" y="55" type="line"/>
      <point x="225" y="80" type="line"/>
      <point x="225" y="375" type="line"/>
      <point x="225" y="375"/>
      <point x="285" y="455"/>
      <point x="370" y="455" type="curve" smooth="yes"/>
      <point x="435" y="455"/>
      <point x="460" y="420"/>
      <point x="460" y="350" type="curve" smooth="yes"/>
      <point x="460" y="80" type="line"/>
      <point x="395" y="55" type="line"/>
      <point x="395" y="0" type="line"/>
      <point x="635" y="0" type="line"/>
      <point x="635" y="55" type="line"/>
      <point x="560" y="80" type="line"/>
      <point x="560" y="360" type="line"/>
      <point x="560" y="470"/>
      <point x="510" y="540"/>
      <point x="400" y="540" type="curve" smooth="yes"/>
    </contour>
  </outline>
</glyph>
<glyph name="p" format="1">
  <advance width="615"/>
  <unicode hex="0070"/>
  <outline>
    <contour>
      <point x="286" y="540"/>
      <point x="233" y="502"/>
      <point x="203" y="474" type="curve"/>
      <point x="195" y="530" type="line"/>
      <point x="25" y="525" type="line"/>
      <point x="25" y="470" type="line"/>
      <point x="110" y="450" type="line"/>
      <point x="110" y="-155" type="line"/>
      <point x="30" y="-175" type="line"/>
      <point x="30" y="-230" type="line"/>
      <point x="315" y="-230" type="line"/>
      <point x="315" y="-175" type="line"/>
      <point x="210" y="-155" type="line"/>
      <point x="210" y="4" type="line"/>
      <point x="237" y="-4"/>
      <point x="267" y="-10"/>
      <point x="300" y="-10" type="curve" smooth="yes"/>
      <point x="485" y="-10"/>
      <point x="570" y="110"/>
      <point x="570" y="280" type="curve" smooth="yes"/>
      <point x="570" y="435"/>
      <point x="500" y="540"/>
      <point x="355" y="540" type="curve" smooth="yes"/>
    </contour>
    <contour>
      <point x="425" y="460"/>
      <point x="465" y="380"/>
      <point x="465" y="270" type="curve" smooth="yes"/>
      <point x="465" y="160"/>
      <point x="431" y="70"/>
      <point x="315" y="70" type="curve" smooth="yes"/>
      <point x="240" y="70"/>
      <point x="210" y="90"/>
      <point x="210" y="90" type="curve"/>
      <point x="210" y="390" type="line"/>
      <point x="210" y="390"/>
      <point x="245" y="460"/>
      <point x="335" y="460" type="curve" smooth="yes"/>
    </contour>
  </outline>
</glyph>
<glyph name="q" format="1">
  <advance width="580"/>
  <unicode hex="0071"/>
  <outline>
    <contour>
      <point x="140" y="540"/>
      <point x="45" y="420"/>
      <point x="45" y="250" type="curve" smooth="yes"/>
      <point x="45" y="90"/>
      <point x="105" y="-10"/>
      <point x="255" y="-10" type="curve" smooth="yes"/>
      <point x="319" y="-10"/>
      <point x="372" y="22"/>
      <point x="405" y="48" type="curve"/>
      <point x="405" y="-155" type="line"/>
      <point x="305" y="-175" type="line"/>
      <point x="305" y="-230" type="line"/>
      <point x="585" y="-230" type="line"/>
      <point x="585" y="-175" type="line"/>
      <point x="505" y="-155" type="line"/>
      <point x="505" y="520" type="line"/>
      <point x="505" y="520"/>
      <point x="430" y="540"/>
      <point x="320" y="540" type="curve" smooth="yes"/>
    </contour>
    <contour>
      <point x="375" y="460"/>
      <point x="405" y="450"/>
      <point x="405" y="450" type="curve"/>
      <point x="405" y="135" type="line"/>
      <point x="405" y="135"/>
      <point x="365" y="70"/>
      <point x="275" y="70" type="curve" smooth="yes"/>
      <point x="185" y="70"/>
      <point x="150" y="150"/>
      <point x="150" y="260" type="curve" smooth="yes"/>
      <point x="150" y="370"/>
      <point x="189" y="460"/>
      <point x="305" y="460" type="curve" smooth="yes"/>
    </contour>
  </outline>
</glyph>
<glyph name="r" format="1">
  <advance width="465"/>
  <unicode hex="0072"/>
  <outline>
    <contour>
      <point x="297" y="540"/>
      <point x="239" y="485"/>
      <point x="214" y="457" type="curve"/>
      <point x="205" y="530" type="line"/>
      <point x="40" y="525" type="line"/>
      <point x="40" y="470" type="line"/>
      <point x="125" y="450" type="line"/>
      <point x="125" y="80" type="line"/>
      <point x="40" y="55" type="line"/>
      <point x="40" y="0" type="line"/>
      <point x="325" y="0" type="line"/>
      <point x="325" y="55" type="line"/>
      <point x="225" y="80" type="line"/>
      <point x="225" y="377" type="line"/>
      <point x="247" y="406"/>
      <point x="295" y="455"/>
      <point x="370" y="455" type="curve"/>
      <point x="385" y="380" type="line"/>
      <point x="450" y="380" type="line"/>
      <point x="455" y="525" type="line"/>
      <point x="455" y="525"/>
      <point x="415" y="540"/>
      <point x="365" y="540" type="curve"/>
    </contour>
  </outline>
</glyph>
<glyph name="s" format="1">
  <advance width="469"/>
  <unicode hex="0073"/>
  <outline>
    <contour>
      <point x="46" y="160" type="line"/>
      <point x="46" y="12" type="line"/>
      <point x="46" y="12"/>
      <point x="112" y="-10"/>
      <point x="204" y="-10" type="curve" smooth="yes"/>
      <point x="324" y="-10"/>
      <point x="424" y="46"/>
      <point x="424" y="161" type="curve" smooth="yes"/>
      <point x="424" y="332"/>
      <point x="145" y="291"/>
      <point x="145" y="398" type="curve" smooth="yes"/>
      <point x="145" y="449"/>
      <point x="183" y="465"/>
      <point x="234" y="465" type="curve" smooth="yes"/>
      <point x="284" y="465"/>
      <point x="315" y="453"/>
      <point x="315" y="453" type="curve"/>
      <point x="331" y="375" type="line"/>
      <point x="396" y="375" type="line"/>
      <point x="399" y="510" type="line"/>
      <point x="399" y="510"/>
      <point x="307" y="540"/>
      <point x="228" y="540" type="curve" smooth="yes"/>
      <point x="125" y="540"/>
      <point x="45" y="488"/>
      <point x="45" y="384" type="curve" smooth="yes"/>
      <point x="45" y="202"/>
      <point x="324" y="252"/>
      <point x="324" y="144" type="curve" smooth="yes"/>
      <point x="324" y="82"/>
      <point x="271" y="65"/>
      <point x="211" y="65" type="curve" smooth="yes"/>
      <point x="157" y="65"/>
      <point x="127" y="74"/>
      <point x="127" y="74" type="curve"/>
      <point x="116" y="160" type="line"/>
    </contour>
  </outline>
</glyph>
<glyph name="t" format="1">
  <advance width="395"/>
  <unicode hex="0074"/>
  <outline>
    <contour>
      <point x="220" y="671" type="line"/>
      <point x="120" y="651" type="line"/>
      <point x="120" y="525" type="line"/>
      <point x="20" y="515" type="line"/>
      <point x="20" y="450" type="line"/>
      <point x="120" y="450" type="line"/>
      <point x="120" y="135" type="line" smooth="yes"/>
      <point x="120" y="23"/>
      <point x="175" y="-10"/>
      <point x="235" y="-10" type="curve" smooth="yes"/>
      <point x="285" y="-10"/>
      <point x="330" y="7"/>
      <point x="375" y="40" type="curve"/>
      <point x="348" y="93" type="line"/>
      <point x="322" y="79"/>
      <point x="294" y="68"/>
      <point x="270" y="68" type="curve" smooth="yes"/>
      <point x="242" y="68"/>
      <point x="220" y="83"/>
      <point x="220" y="129" type="curve" smooth="yes"/>
      <point x="220" y="450" type="line"/>
      <point x="365" y="450" type="line"/>
      <point x="365" y="525" type="line"/>
      <point x="220" y="525" type="line"/>
    </contour>
  </outline>
</glyph>
<glyph name="v" format="1">
  <advance width="559"/>
  <unicode hex="0076"/>
  <outline>
    <contour>
      <point x="330" y="525" type="line"/>
      <point x="330" y="470" type="line"/>
      <point x="399" y="455" type="line"/>
      <point x="294" y="136" type="line"/>
      <point x="280" y="90" type="line"/>
      <point x="266" y="131" type="line"/>
      <point x="160" y="460" type="line"/>
      <point x="230" y="470" type="line"/>
      <point x="230" y="530" type="line"/>
      <point x="5" y="525" type="line"/>
      <point x="5" y="470" type="line"/>
      <point x="55" y="455" type="line"/>
      <point x="219" y="0" type="line"/>
      <point x="329" y="0" type="line"/>
      <point x="499" y="460" type="line"/>
      <point x="554" y="470" type="line"/>
      <point x="554" y="530" type="line"/>
    </contour>
  </outline>
</glyph>
<glyph name="x" format="1">
  <advance width="565"/>
  <unicode hex="0078"/>
  <outline>
    <contour>
      <point x="243" y="530" type="line"/>
      <point x="15" y="525" type="line"/>
      <point x="15" y="470" type="line"/>
      <point x="92" y="456" type="line"/>
      <point x="220" y="265" type="line"/>
      <point x="93" y="78" type="line"/>
      <point x="5" y="55" type="line"/>
      <point x="5" y="0" type="line"/>
      <point x="150" y="0" type="line"/>
      <point x="274" y="199" type="line"/>
      <point x="356" y="67" type="line"/>
      <point x="316" y="55" type="line"/>
      <point x="316" y="0" type="line"/>
      <point x="560" y="0" type="line"/>
      <point x="560" y="55" type="line"/>
      <point x="468" y="78" type="line"/>
      <point x="340" y="270" type="line"/>
      <point x="465" y="455" type="line"/>
      <point x="550" y="470" type="line"/>
      <point x="550" y="530" type="line"/>
      <point x="405" y="525" type="line"/>
      <point x="285" y="335" type="line"/>
      <point x="208" y="464" type="line"/>
      <point x="243" y="470" type="line"/>
    </contour>
  </outline>
</glyph>
<glyph name="y" format="1">
  <advance width="577"/>
  <unicode hex="0079"/>
  <outline>
    <contour>
      <point x="245" y="530" type="line"/>
      <point x="10" y="525" type="line"/>
      <point x="10" y="470" type="line"/>
      <point x="70" y="455" type="line"/>
      <point x="249" y="-2" type="line"/>
      <point x="205" y="-99"/>
      <point x="160" y="-165"/>
      <point x="90" y="-165" type="curve" smooth="yes"/>
      <point x="40" y="-165" type="line"/>
      <point x="31" y="-235" type="line"/>
      <point x="31" y="-235"/>
      <point x="70" y="-240"/>
      <point x="95" y="-240" type="curve" smooth="yes"/>
      <point x="260" y="-240"/>
      <point x="312" y="-75"/>
      <point x="365" y="64" type="curve"/>
      <point x="507" y="460" type="line"/>
      <point x="572" y="470" type="line"/>
      <point x="572" y="530" type="line"/>
      <point x="335" y="525" type="line"/>
      <point x="335" y="470" type="line"/>
      <point x="405" y="455" type="line"/>
      <point x="295" y="110" type="line"/>
      <point x="175" y="460" type="line"/>
      <point x="245" y="470" type="line"/>
    </contour>
  </outline>
</glyph>
<glyph name="z" format="1">
  <advance width="485"/>
  <unicode hex="007A"/>
  <outline>
    <contour>
      <point x="65" y="530" type="line"/>
      <point x="65" y="380" type="line"/>
      <point x="135" y="380" type="line"/>
      <point x="149" y="455" type="line"/>
      <point x="337" y="455" type="line"/>
      <point x="45" y="75" type="line"/>
      <point x="45" y="0" type="line"/>
      <point x="445" y="0" type="line"/>
      <point x="445" y="155" type="line"/>
      <point x="375" y="155" type="line"/>
      <point x="361" y="75" type="line"/>
      <point x="157" y="75" type="line"/>
      <point x="450" y="455" type="line"/>
      <point x="450" y="530" type="line"/>
    </contour>
  </outline>
</glyph>
<glyph name="braceleft" format="1">
  <advance width="370"/>
  <unicode hex="007B"/>
  <outline>
    <contour>
      <point x="340" y="775" type="line"/>
      <point x="295" y="775" type="line" smooth="yes"/>
      <point x="175" y="775"/>
      <point x="125" y="730"/>
      <point x="125" y="605" type="curve" smooth="yes"/>
      <point x="125" y="434" type="line" smooth="yes"/>
      <point x="125" y="374"/>
      <point x="105" y="330"/>
      <point x="30" y="330" type="curve"/>
      <point x="30" y="260" type="line"/>
      <point x="105" y="260"/>
      <point x="125" y="216"/>
      <point x="125" y="156" type="curve" smooth="yes"/>
      <point x="125" y="-55" type="line" smooth="yes"/>
      <point x="125" y="-180"/>
      <point x="175" y="-225"/>
      <point x="295" y="-225" type="curve" smooth="yes"/>
      <point x="340" y="-225" type="line"/>
      <point x="340" y="-160" type="line"/>
      <point x="245" y="-160"/>
      <point x="217" y="-135"/>
      <point x="217" y="-55" type="curve" smooth="yes"/>
      <point x="217" y="156" type="line" smooth="yes"/>
      <point x="217" y="223"/>
      <point x="186" y="272"/>
      <point x="124" y="295" type="curve"/>
      <point x="186" y="318"/>
      <point x="217" y="367"/>
      <point x="217" y="434" type="curve"/>
      <point x="217" y="605" type="line" smooth="yes"/>
      <point x="217" y="685"/>
      <point x="245" y="710"/>
      <point x="340" y="710" type="curve"/>
    </contour>
  </outline>
</glyph>
<glyph name="bar" format="1">
  <advance width="280"/>
  <unicode hex="007C"/>
  <outline>
    <contour>
      <point x="100" y="755" type="line"/>
      <point x="100" y="-230" type="line"/>
      <point x="180" y="-230" type="line"/>
      <point x="180" y="755" type="line"/>
    </contour>
  </outline>
</glyph>
<glyph name="braceright" format="1">
  <advance width="375"/>
  <unicode hex="007D"/>
  <outline>
    <contour>
      <point x="40" y="775" type="line"/>
      <point x="40" y="710" type="line"/>
      <point x="135" y="710"/>
      <point x="163" y="685"/>
      <point x="163" y="605" type="curve" smooth="yes"/>
      <point x="163" y="434" type="line" smooth="yes"/>
      <point x="163" y="367"/>
      <point x="194" y="318"/>
      <point x="256" y="295" type="curve"/>
      <point x="194" y="272"/>
      <point x="163" y="223"/>
      <point x="163" y="156" type="curve" smooth="yes"/>
      <point x="163" y="-55" type="line" smooth="yes"/>
      <point x="163" y="-135"/>
      <point x="135" y="-160"/>
      <point x="40" y="-160" type="curve"/>
      <point x="40" y="-225" type="line"/>
      <point x="85" y="-225" type="line" smooth="yes"/>
      <point x="205" y="-225"/>
      <point x="255" y="-180"/>
      <point x="255" y="-55" type="curve" smooth="yes"/>
      <point x="255" y="156" type="line" smooth="yes"/>
      <point x="255" y="216"/>
      <point x="275" y="260"/>
      <point x="350" y="260" type="curve"/>
      <point x="350" y="330" type="line"/>
      <point x="275" y="330"/>
      <point x="255" y="374"/>
      <point x="255" y="434" type="curve" smooth="yes"/>
      <point x="255" y="605" type="line" smooth="yes"/>
      <point x="255" y="730"/>
      <point x="205" y="775"/>
      <point x="85" y="775" type="curve" smooth="yes"/>
    </contour>
  </outline>
</glyph>
<glyph name="asciitilde" format="1">
  <advance width="626"/>
  <unicode hex="007E"/>
  <outline>
    <contour>
      <point x="106" y="209" type="line"/>
      <point x="106" y="209"/>
      <point x="141" y="265"/>
      <point x="196" y="265" type="curve" smooth="yes"/>
      <point x="274" y="265"/>
      <point x="329" y="195"/>
      <point x="421" y="195" type="curve" smooth="yes"/>
      <point x="512" y="195"/>
      <point x="566" y="299"/>
      <point x="566" y="299" type="curve"/>
      <point x="520" y="335" type="line"/>
      <point x="520" y="335"/>
      <point x="481" y="275"/>
      <point x="426" y="275" type="curve" smooth="yes"/>
      <point x="346" y="275"/>
      <point x="304" y="345"/>
      <point x="211" y="345" type="curve" smooth="yes"/>
      <point x="106" y="345"/>
      <point x="60" y="245"/>
      <point x="60" y="245" type="curve"/>
    </contour>
  </outline>
</glyph>
<glyph name="exclamdown" format="1">
  <advance width="315"/>
  <unicode hex="00A1"/>
  <outline>
    <contour>
      <point x="115" y="290" type="line"/>
      <point x="100" y="-210" type="line"/>
      <point x="215" y="-210" type="line"/>
      <point x="200" y="295" type="line"/>
    </contour>
    <contour>
      <point x="120" y="550"/>
      <point x="90" y="525"/>
      <point x="90" y="480" type="curve" smooth="yes"/>
      <point x="90" y="435"/>
      <point x="115" y="410"/>
      <point x="155" y="410" type="curve" smooth="yes"/>
      <point x="190" y="410"/>
      <point x="220" y="435"/>
      <point x="220" y="480" type="curve" smooth="yes"/>
      <point x="220" y="525"/>
      <point x="195" y="550"/>
      <point x="155" y="550" type="curve" smooth="yes"/>
    </contour>
  </outline>
</glyph>
<glyph name="cent" format="1">
  <advance width="510"/>
  <unicode hex="00A2"/>
  <outline>
    <contour>
      <point x="315" y="700" type="line"/>
      <point x="240" y="700" type="line"/>
      <point x="240" y="604" type="line"/>
      <point x="111" y="582"/>
      <point x="45" y="483"/>
      <point x="45" y="360" type="curve" smooth="yes"/>
      <point x="45" y="226"/>
      <point x="109" y="132"/>
      <point x="240" y="113" type="curve"/>
      <point x="240" y="0" type="line"/>
      <point x="315" y="0" type="line"/>
      <point x="315" y="111" type="line"/>
      <point x="404" y="122"/>
      <point x="479" y="185"/>
      <point x="479" y="185" type="curve"/>
      <point x="440" y="240" type="line"/>
      <point x="440" y="240"/>
      <point x="385" y="190"/>
      <point x="300" y="190" type="curve" smooth="yes"/>
      <point x="200" y="190"/>
      <point x="150" y="250"/>
      <point x="150" y="370" type="curve" smooth="yes"/>
      <point x="150" y="480"/>
      <point x="195" y="530"/>
      <point x="295" y="530" type="curve" smooth="yes"/>
      <point x="345" y="530"/>
      <point x="380" y="520"/>
      <point x="380" y="520" type="curve"/>
      <point x="395" y="435" type="line"/>
      <point x="460" y="435" type="line"/>
      <point x="465" y="565" type="line"/>
      <point x="465" y="565"/>
      <point x="396" y="603"/>
      <point x="315" y="608" type="curve"/>
    </contour>
  </outline>
</glyph>
<glyph name="sterling" format="1">
  <advance width="625"/>
  <unicode hex="00A3"/>
  <outline>
    <contour>
      <point x="215" y="710"/>
      <point x="155" y="630"/>
      <point x="155" y="510" type="curve" smooth="yes"/>
      <point x="155" y="478"/>
      <point x="156" y="446"/>
      <point x="158" y="414" type="curve"/>
      <point x="60" y="403" type="line"/>
      <point x="60" y="335" type="line"/>
      <point x="163" y="335" type="line"/>
      <point x="166" y="287"/>
      <point x="170" y="242"/>
      <point x="170" y="205" type="curve" smooth="yes"/>
      <point x="170" y="120"/>
      <point x="160" y="87"/>
      <point x="115" y="75" type="curve" smooth="yes"/>
      <point x="60" y="60" type="line"/>
      <point x="60" y="0" type="line"/>
      <point x="565" y="0" type="line"/>
      <point x="565" y="185" type="line"/>
      <point x="500" y="185" type="line"/>
      <point x="479" y="80" type="line"/>
      <point x="225" y="80" type="line"/>
      <point x="225" y="80"/>
      <point x="270" y="115"/>
      <point x="270" y="215" type="curve" smooth="yes"/>
      <point x="270" y="248"/>
      <point x="267" y="290"/>
      <point x="264" y="335" type="curve"/>
      <point x="425" y="335" type="line"/>
      <point x="425" y="415" type="line"/>
      <point x="259" y="415" type="line"/>
      <point x="256" y="453"/>
      <point x="255" y="492"/>
      <point x="255" y="530" type="curve" smooth="yes"/>
      <point x="255" y="590"/>
      <point x="285" y="630"/>
      <point x="360" y="630" type="curve" smooth="yes"/>
      <point x="420" y="630"/>
      <point x="480" y="623"/>
      <point x="480" y="623" type="curve"/>
      <point x="495" y="540" type="line"/>
      <point x="560" y="540" type="line"/>
      <point x="560" y="680" type="line"/>
      <point x="560" y="680"/>
      <point x="475" y="710"/>
      <point x="355" y="710" type="curve" smooth="yes"/>
    </contour>
  </outline>
</glyph>
<glyph name="currency" format="1">
  <advance width="578"/>
  <unicode hex="00A4"/>
  <outline>
    <contour>
      <point x="528" y="486" type="line"/>
      <point x="479" y="538" type="line"/>
      <point x="401" y="461" type="line"/>
      <point x="373" y="479"/>
      <point x="337" y="490"/>
      <point x="296" y="490" type="curve" smooth="yes"/>
      <point x="252" y="490"/>
      <point x="213" y="477"/>
      <point x="182" y="456" type="curve"/>
      <point x="99" y="538" type="line"/>
      <point x="50" y="486" type="line"/>
      <point x="132" y="404" type="line"/>
      <point x="112" y="373"/>
      <point x="101" y="336"/>
      <point x="101" y="295" type="curve" smooth="yes"/>
      <point x="101" y="254"/>
      <point x="110" y="218"/>
      <point x="128" y="188" type="curve"/>
      <point x="50" y="110" type="line"/>
      <point x="99" y="58" type="line"/>
      <point x="177" y="135" type="line"/>
      <point x="206" y="116"/>
      <point x="243" y="105"/>
      <point x="286" y="105" type="curve" smooth="yes"/>
      <point x="329" y="105"/>
      <point x="367" y="117"/>
      <point x="398" y="138" type="curve"/>
      <point x="479" y="58" type="line"/>
      <point x="528" y="110" type="line"/>
      <point x="449" y="189" type="line"/>
      <point x="469" y="220"/>
      <point x="481" y="258"/>
      <point x="481" y="300" type="curve" smooth="yes"/>
      <point x="481" y="342"/>
      <point x="471" y="379"/>
      <point x="452" y="410" type="curve"/>
    </contour>
    <contour>
      <point x="186" y="373"/>
      <point x="219" y="420"/>
      <point x="291" y="420" type="curve" smooth="yes"/>
      <point x="364" y="420"/>
      <point x="396" y="373"/>
      <point x="396" y="298" type="curve" smooth="yes"/>
      <point x="396" y="223"/>
      <point x="363" y="175"/>
      <point x="291" y="175" type="curve" smooth="yes"/>
      <point x="219" y="175"/>
      <point x="186" y="223"/>
      <point x="186" y="298" type="curve" smooth="yes"/>
    </contour>
  </outline>
</glyph>
<glyph name="yen" format="1">
  <advance width="645"/>
  <unicode hex="00A5"/>
  <outline>
    <contour>
      <point x="97" y="290" type="line"/>
      <point x="547" y="290" type="line"/>
      <point x="547" y="360" type="line"/>
      <point x="424" y="360" type="line"/>
      <point x="573" y="622" type="line"/>
      <point x="635" y="640" type="line"/>
      <point x="635" y="700" type="line"/>
      <point x="395" y="695" type="line"/>
      <point x="395" y="640" type="line"/>
      <point x="472" y="620" type="line"/>
      <point x="325" y="350" type="line"/>
      <point x="192" y="620" type="line"/>
      <point x="260" y="640" type="line"/>
      <point x="260" y="700" type="line"/>
      <point x="10" y="695" type="line"/>
      <point x="10" y="640" type="line"/>
      <point x="77" y="621" type="line"/>
      <point x="221" y="360" type="line"/>
      <point x="97" y="360" type="line"/>
    </contour>
    <contour>
      <point x="97" y="155" type="line"/>
      <point x="270" y="155" type="line"/>
      <point x="270" y="80" type="line"/>
      <point x="185" y="60" type="line"/>
      <point x="185" y="0" type="line"/>
      <point x="460" y="0" type="line"/>
      <point x="460" y="60" type="line"/>
      <point x="375" y="80" type="line"/>
      <point x="375" y="155" type="line"/>
      <point x="547" y="155" type="line"/>
      <point x="547" y="225" type="line"/>
      <point x="97" y="225" type="line"/>
    </contour>
  </outline>
</glyph>
<glyph name="brokenbar" format="1">
  <advance width="300"/>
  <unicode hex="00A6"/>
  <outline>
    <contour>
      <point x="105" y="145" type="line"/>
      <point x="105" y="-265" type="line"/>
      <point x="185" y="-265" type="line"/>
      <point x="185" y="145" type="line"/>
    </contour>
    <contour>
      <point x="105" y="765" type="line"/>
      <point x="105" y="365" type="line"/>
      <point x="185" y="365" type="line"/>
      <point x="185" y="765" type="line"/>
    </contour>
  </outline>
</glyph>
<glyph name="section" format="1">
  <advance width="545"/>
  <unicode hex="00A7"/>
  <outline>
    <contour>
      <point x="199" y="780"/>
      <point x="120" y="705"/>
      <point x="120" y="595" type="curve" smooth="yes"/>
      <point x="120" y="558"/>
      <point x="130" y="528"/>
      <point x="147" y="502" type="curve"/>
      <point x="116" y="481"/>
      <point x="75" y="436"/>
      <point x="75" y="355" type="curve" smooth="yes"/>
      <point x="75" y="175"/>
      <point x="346" y="150"/>
      <point x="346" y="20" type="curve" smooth="yes"/>
      <point x="346" y="-30"/>
      <point x="310" y="-70"/>
      <point x="253" y="-70" type="curve" smooth="yes"/>
      <point x="218" y="-70"/>
      <point x="196" y="-65"/>
      <point x="196" y="-65" type="curve"/>
      <point x="175" y="40" type="line"/>
      <point x="111" y="40" type="line"/>
      <point x="106" y="-120" type="line"/>
      <point x="106" y="-120"/>
      <point x="166" y="-150"/>
      <point x="251" y="-150" type="curve" smooth="yes"/>
      <point x="363" y="-150"/>
      <point x="441" y="-75"/>
      <point x="441" y="35" type="curve" smooth="yes"/>
      <point x="441" y="71"/>
      <point x="430" y="102"/>
      <point x="413" y="128" type="curve"/>
      <point x="444" y="149"/>
      <point x="485" y="194"/>
      <point x="485" y="275" type="curve" smooth="yes"/>
      <point x="485" y="455"/>
      <point x="215" y="480"/>
      <point x="215" y="610" type="curve" smooth="yes"/>
      <point x="215" y="660"/>
      <point x="251" y="700"/>
      <point x="313" y="700" type="curve" smooth="yes"/>
      <point x="338" y="700"/>
      <point x="367" y="695"/>
      <point x="367" y="695" type="curve"/>
      <point x="391" y="590" type="line"/>
      <point x="451" y="590" type="line"/>
      <point x="456" y="750" type="line"/>
      <point x="456" y="750"/>
      <point x="396" y="780"/>
      <point x="311" y="780" type="curve" smooth="yes"/>
    </contour>
    <contour>
      <point x="277" y="382"/>
      <point x="390" y="344"/>
      <point x="390" y="260" type="curve" smooth="yes"/>
      <point x="390" y="216"/>
      <point x="375" y="193"/>
      <point x="364" y="181" type="curve"/>
      <point x="284" y="248"/>
      <point x="170" y="285"/>
      <point x="170" y="370" type="curve" smooth="yes"/>
      <point x="170" y="413"/>
      <point x="185" y="437"/>
      <point x="197" y="449" type="curve"/>
    </contour>
  </outline>
</glyph>
<glyph name="dieresis" format="1">
  <advance width="515"/>
  <unicode hex="00A8"/>
  <outline>
    <contour>
      <point x="330" y="760"/>
      <point x="305" y="738"/>
      <point x="305" y="700" type="curve" smooth="yes"/>
      <point x="305" y="662"/>
      <point x="326" y="640"/>
      <point x="360" y="640" type="curve" smooth="yes"/>
      <point x="390" y="640"/>
      <point x="415" y="662"/>
      <point x="415" y="700" type="curve" smooth="yes"/>
      <point x="415" y="738"/>
      <point x="394" y="760"/>
      <point x="360" y="760" type="curve" smooth="yes"/>
    </contour>
    <contour>
      <point x="125" y="760"/>
      <point x="100" y="738"/>
      <point x="100" y="700" type="curve" smooth="yes"/>
      <point x="100" y="662"/>
      <point x="121" y="640"/>
      <point x="155" y="640" type="curve" smooth="yes"/>
      <point x="185" y="640"/>
      <point x="210" y="662"/>
      <point x="210" y="700" type="curve" smooth="yes"/>
      <point x="210" y="738"/>
      <point x="189" y="760"/>
      <point x="155" y="760" type="curve" smooth="yes"/>
    </contour>
  </outline>
</glyph>
<glyph name="copyright" format="1">
  <advance width="820"/>
  <unicode hex="00A9"/>
  <outline>
    <contour>
      <point x="45" y="135"/>
      <point x="190" y="-10"/>
      <point x="400" y="-10" type="curve" smooth="yes"/>
      <point x="610" y="-10"/>
      <point x="775" y="145"/>
      <point x="775" y="355" type="curve" smooth="yes"/>
      <point x="775" y="565"/>
      <point x="620" y="710"/>
      <point x="410" y="710" type="curve" smooth="yes"/>
      <point x="200" y="710"/>
      <point x="45" y="555"/>
      <point x="45" y="345" type="curve" smooth="yes"/>
    </contour>
    <contour>
      <point x="125" y="520"/>
      <point x="235" y="638"/>
      <point x="405" y="638" type="curve" smooth="yes"/>
      <point x="575" y="638"/>
      <point x="695" y="520"/>
      <point x="695" y="350" type="curve" smooth="yes"/>
      <point x="695" y="180"/>
      <point x="575" y="62"/>
      <point x="405" y="62" type="curve" smooth="yes"/>
      <point x="235" y="62"/>
      <point x="125" y="180"/>
      <point x="125" y="350" type="curve" smooth="yes"/>
    </contour>
    <contour>
      <point x="542" y="414" type="line"/>
      <point x="544" y="520" type="line"/>
      <point x="544" y="520"/>
      <point x="480" y="551"/>
      <point x="417" y="551" type="curve" smooth="yes"/>
      <point x="300" y="551"/>
      <point x="230" y="468"/>
      <point x="230" y="343" type="curve" smooth="yes"/>
      <point x="230" y="218"/>
      <point x="300" y="155"/>
      <point x="410" y="155" type="curve" smooth="yes"/>
      <point x="490" y="155"/>
      <point x="549" y="218"/>
      <point x="549" y="218" type="curve"/>
      <point x="522" y="264" type="line"/>
      <point x="522" y="264"/>
      <point x="469" y="220"/>
      <point x="415" y="220" type="curve" smooth="yes"/>
      <point x="355" y="220"/>
      <point x="315" y="258"/>
      <point x="315" y="348" type="curve" smooth="yes"/>
      <point x="315" y="438"/>
      <point x="345" y="490"/>
      <point x="410" y="490" type="curve" smooth="yes"/>
      <point x="437" y="490"/>
      <point x="462" y="485"/>
      <point x="472" y="482" type="curve"/>
      <point x="486" y="414" type="line"/>
    </contour>
  </outline>
</glyph>
<glyph name="ordfeminine" format="1">
  <advance width="468"/>
  <unicode hex="00AA"/>
  <outline>
    <contour>
      <point x="68" y="580" type="line"/>
      <point x="123" y="580" type="line"/>
      <point x="133" y="632" type="line"/>
      <point x="133" y="632"/>
      <point x="168" y="642"/>
      <point x="204" y="642" type="curve" smooth="yes"/>
      <point x="243" y="642"/>
      <point x="266" y="621"/>
      <point x="266" y="589" type="curve" smooth="yes"/>
      <point x="266" y="539" type="line"/>
      <point x="212" y="539" type="line" smooth="yes"/>
      <point x="112" y="539"/>
      <point x="50" y="510"/>
      <point x="50" y="428" type="curve" smooth="yes"/>
      <point x="50" y="355"/>
      <point x="89" y="316"/>
      <point x="161" y="316" type="curve" smooth="yes"/>
      <point x="223" y="316"/>
      <point x="278" y="375"/>
      <point x="278" y="375" type="curve"/>
      <point x="294" y="323" type="line"/>
      <point x="403" y="328" type="line"/>
      <point x="403" y="373" type="line"/>
      <point x="346" y="387" type="line"/>
      <point x="346" y="595" type="line" smooth="yes"/>
      <point x="346" y="675"/>
      <point x="303" y="710"/>
      <point x="218" y="710" type="curve" smooth="yes"/>
      <point x="158" y="710"/>
      <point x="63" y="680"/>
      <point x="63" y="680" type="curve"/>
    </contour>
    <contour>
      <point x="266" y="485" type="line"/>
      <point x="266" y="427" type="line"/>
      <point x="266" y="427"/>
      <point x="227" y="382"/>
      <point x="180" y="382" type="curve" smooth="yes"/>
      <point x="148" y="382"/>
      <point x="128" y="400"/>
      <point x="128" y="428" type="curve" smooth="yes"/>
      <point x="128" y="472"/>
      <point x="158" y="485"/>
      <point x="218" y="485" type="curve" smooth="yes"/>
    </contour>
    <contour>
      <point x="58" y="165" type="line"/>
      <point x="403" y="165" type="line"/>
      <point x="403" y="235" type="line"/>
      <point x="58" y="235" type="line"/>
    </contour>
  </outline>
</glyph>
<glyph name="guillemotleft" format="1">
  <advance width="540"/>
  <unicode hex="00AB"/>
  <outline>
    <contour>
      <point x="275" y="295" type="line"/>
      <point x="275" y="235" type="line"/>
      <point x="420" y="75" type="line"/>
      <point x="480" y="115" type="line"/>
      <point x="365" y="265" type="line"/>
      <point x="480" y="415" type="line"/>
      <point x="420" y="455" type="line"/>
    </contour>
    <contour>
      <point x="60" y="295" type="line"/>
      <point x="60" y="235" type="line"/>
      <point x="200" y="75" type="line"/>
      <point x="260" y="115" type="line"/>
      <point x="150" y="265" type="line"/>
      <point x="260" y="415" type="line"/>
      <point x="200" y="455" type="line"/>
    </contour>
  </outline>
</glyph>
<glyph name="logicalnot" format="1">
  <advance width="615"/>
  <unicode hex="00AC"/>
  <outline>
    <contour>
      <point x="60" y="355" type="line"/>
      <point x="60" y="275" type="line"/>
      <point x="475" y="275" type="line"/>
      <point x="475" y="85" type="line"/>
      <point x="560" y="85" type="line"/>
      <point x="560" y="355" type="line"/>
    </contour>
  </outline>
</glyph>
<glyph name="registered" format="1">
  <advance width="720"/>
  <unicode hex="00AE"/>
  <outline>
    <contour>
      <point x="185" y="755"/>
      <point x="55" y="625"/>
      <point x="55" y="450" type="curve" smooth="yes"/>
      <point x="55" y="275"/>
      <point x="175" y="155"/>
      <point x="350" y="155" type="curve" smooth="yes"/>
      <point x="525" y="155"/>
      <point x="665" y="285"/>
      <point x="665" y="460" type="curve" smooth="yes"/>
      <point x="665" y="635"/>
      <point x="535" y="755"/>
      <point x="360" y="755" type="curve" smooth="yes"/>
    </contour>
    <contour>
      <point x="495" y="690"/>
      <point x="590" y="595"/>
      <point x="590" y="455" type="curve" smooth="yes"/>
      <point x="590" y="315"/>
      <point x="495" y="220"/>
      <point x="355" y="220" type="curve" smooth="yes"/>
      <point x="215" y="220"/>
      <point x="130" y="315"/>
      <point x="130" y="455" type="curve" smooth="yes"/>
      <point x="130" y="595"/>
      <point x="215" y="690"/>
      <point x="355" y="690" type="curve" smooth="yes"/>
    </contour>
    <contour>
      <point x="215" y="622" type="line"/>
      <point x="215" y="585" type="line"/>
      <point x="255" y="577" type="line"/>
      <point x="255" y="345" type="line"/>
      <point x="215" y="335" type="line"/>
      <point x="215" y="295" type="line"/>
      <point x="360" y="295" type="line"/>
      <point x="360" y="335" type="line"/>
      <point x="320" y="345" type="line"/>
      <point x="320" y="432" type="line"/>
      <point x="339" y="432" type="line" smooth="yes"/>
      <point x="365" y="432"/>
      <point x="372" y="427"/>
      <point x="394" y="380" type="curve" smooth="yes"/>
      <point x="434" y="295" type="line"/>
      <point x="520" y="295" type="line"/>
      <point x="520" y="335" type="line"/>
      <point x="480" y="345" type="line"/>
      <point x="448" y="408" type="line" smooth="yes"/>
      <point x="433" y="437"/>
      <point x="421" y="444"/>
      <point x="420" y="445" type="curve"/>
      <point x="460" y="460"/>
      <point x="482" y="488"/>
      <point x="482" y="533" type="curve" smooth="yes"/>
      <point x="482" y="593"/>
      <point x="430" y="625"/>
      <point x="365" y="625" type="curve"/>
    </contour>
    <contour>
      <point x="395" y="575"/>
      <point x="415" y="557"/>
      <point x="415" y="528" type="curve" smooth="yes"/>
      <point x="415" y="496"/>
      <point x="390" y="478"/>
      <point x="355" y="478" type="curve" smooth="yes"/>
      <point x="320" y="478" type="line"/>
      <point x="320" y="575" type="line"/>
      <point x="360" y="575" type="line"/>
    </contour>
  </outline>
</glyph>
<glyph name="macron" format="1">
  <advance width="280"/>
  <unicode hex="00AF"/>
  <outline>
    <contour>
      <point x="5" y="660" type="line"/>
      <point x="275" y="660" type="line"/>
      <point x="275" y="735" type="line"/>
      <point x="5" y="735" type="line"/>
    </contour>
  </outline>
</glyph>
<glyph name="degree" format="1">
  <advance width="410"/>
  <unicode hex="00B0"/>
  <outline>
    <contour>
      <point x="50" y="490"/>
      <point x="115" y="435"/>
      <point x="205" y="435" type="curve" smooth="yes"/>
      <point x="295" y="435"/>
      <point x="360" y="495"/>
      <point x="360" y="590" type="curve" smooth="yes"/>
      <point x="360" y="680"/>
      <point x="295" y="735"/>
      <point x="205" y="735" type="curve" smooth="yes"/>
      <point x="115" y="735"/>
      <point x="50" y="675"/>
      <point x="50" y="585" type="curve" smooth="yes"/>
    </contour>
    <contour>
      <point x="120" y="645"/>
      <point x="155" y="675"/>
      <point x="205" y="675" type="curve" smooth="yes"/>
      <point x="255" y="675"/>
      <point x="290" y="645"/>
      <point x="290" y="590" type="curve" smooth="yes"/>
      <point x="290" y="530"/>
      <point x="260" y="495"/>
      <point x="205" y="495" type="curve" smooth="yes"/>
      <point x="150" y="495"/>
      <point x="120" y="530"/>
      <point x="120" y="590" type="curve" smooth="yes"/>
    </contour>
  </outline>
</glyph>
<glyph name="plusminus" format="1">
  <advance width="615"/>
  <unicode hex="00B1"/>
  <outline>
    <contour>
      <point x="265" y="540" type="line"/>
      <point x="265" y="380" type="line"/>
      <point x="55" y="380" type="line"/>
      <point x="55" y="302" type="line"/>
      <point x="265" y="302" type="line"/>
      <point x="265" y="140" type="line"/>
      <point x="350" y="140" type="line"/>
      <point x="350" y="302" type="line"/>
      <point x="560" y="302" type="line"/>
      <point x="560" y="380" type="line"/>
      <point x="350" y="380" type="line"/>
      <point x="350" y="540" type="line"/>
    </contour>
    <contour>
      <point x="55" y="78" type="line"/>
      <point x="55" y="0" type="line"/>
      <point x="560" y="0" type="line"/>
      <point x="560" y="78" type="line"/>
    </contour>
  </outline>
</glyph>
<glyph name="twosuperior" format="1">
  <advance width="390"/>
  <unicode hex="00B2"/>
  <outline>
    <contour>
      <point x="115" y="705"/>
      <point x="43" y="679"/>
      <point x="43" y="679" type="curve"/>
      <point x="46" y="570" type="line"/>
      <point x="106" y="570" type="line"/>
      <point x="113" y="630" type="line"/>
      <point x="113" y="630"/>
      <point x="139" y="640"/>
      <point x="175" y="640" type="curve" smooth="yes"/>
      <point x="231" y="640"/>
      <point x="250" y="615"/>
      <point x="250" y="580" type="curve" smooth="yes"/>
      <point x="250" y="515"/>
      <point x="190" y="476"/>
      <point x="35" y="349" type="curve"/>
      <point x="35" y="280" type="line"/>
      <point x="350" y="280" type="line"/>
      <point x="350" y="351" type="line"/>
      <point x="155" y="351" type="line"/>
      <point x="295" y="461"/>
      <point x="340" y="505"/>
      <point x="340" y="585" type="curve" smooth="yes"/>
      <point x="340" y="669"/>
      <point x="277" y="705"/>
      <point x="178" y="705" type="curve" smooth="yes"/>
    </contour>
  </outline>
</glyph>
<glyph name="threesuperior" format="1">
  <advance width="378"/>
  <unicode hex="00B3"/>
  <outline>
    <contour>
      <point x="97" y="575" type="line"/>
      <point x="102" y="631" type="line"/>
      <point x="102" y="631"/>
      <point x="127" y="640"/>
      <point x="170" y="640" type="curve" smooth="yes"/>
      <point x="220" y="640"/>
      <point x="240" y="619"/>
      <point x="240" y="588" type="curve" smooth="yes"/>
      <point x="240" y="545"/>
      <point x="211" y="524"/>
      <point x="156" y="524" type="curve" smooth="yes"/>
      <point x="110" y="524" type="line"/>
      <point x="110" y="463" type="line"/>
      <point x="151" y="463" type="line" smooth="yes"/>
      <point x="215" y="463"/>
      <point x="245" y="445"/>
      <point x="245" y="405" type="curve" smooth="yes"/>
      <point x="245" y="365"/>
      <point x="215" y="342"/>
      <point x="163" y="342" type="curve" smooth="yes"/>
      <point x="100" y="342"/>
      <point x="40" y="372"/>
      <point x="40" y="372" type="curve"/>
      <point x="20" y="312" type="line"/>
      <point x="20" y="312"/>
      <point x="85" y="275"/>
      <point x="159" y="275" type="curve" smooth="yes"/>
      <point x="259" y="275"/>
      <point x="333" y="315"/>
      <point x="333" y="406" type="curve" smooth="yes"/>
      <point x="333" y="458"/>
      <point x="284" y="494"/>
      <point x="237" y="499" type="curve"/>
      <point x="287" y="509"/>
      <point x="325" y="541"/>
      <point x="325" y="598" type="curve" smooth="yes"/>
      <point x="325" y="666"/>
      <point x="270" y="705"/>
      <point x="175" y="705" type="curve" smooth="yes"/>
      <point x="115" y="705"/>
      <point x="35" y="686"/>
      <point x="35" y="686" type="curve"/>
      <point x="39" y="575" type="line"/>
    </contour>
  </outline>
</glyph>
<glyph name="acute" format="1">
  <advance width="245"/>
  <unicode hex="00B4"/>
  <outline>
    <contour>
      <point x="245" y="725" type="line"/>
      <point x="195" y="800" type="line"/>
      <point x="0" y="645" type="line"/>
      <point x="35" y="595" type="line"/>
    </contour>
  </outline>
</glyph>
<glyph name="paragraph" format="1">
  <advance width="630"/>
  <unicode hex="00B6"/>
  <outline>
    <contour>
      <point x="265" y="700" type="line" smooth="yes"/>
      <point x="135" y="700"/>
      <point x="60" y="615"/>
      <point x="60" y="505" type="curve" smooth="yes"/>
      <point x="60" y="397"/>
      <point x="134" y="316"/>
      <point x="230" y="306" type="curve"/>
      <point x="230" y="-90" type="line"/>
      <point x="140" y="-110" type="line"/>
      <point x="140" y="-170" type="line"/>
      <point x="314" y="-170" type="line"/>
      <point x="314" y="620" type="line"/>
      <point x="393" y="620" type="line"/>
      <point x="393" y="-170" type="line"/>
      <point x="480" y="-170" type="line"/>
      <point x="480" y="620" type="line"/>
      <point x="565" y="640" type="line"/>
      <point x="565" y="695" type="line"/>
      <point x="393" y="700" type="line"/>
    </contour>
  </outline>
</glyph>
<glyph name="periodcentered" format="1">
  <advance width="264"/>
  <unicode hex="00B7"/>
  <outline>
    <contour>
      <point x="65" y="258"/>
      <point x="90" y="233"/>
      <point x="132" y="233" type="curve" smooth="yes"/>
      <point x="169" y="233"/>
      <point x="199" y="258"/>
      <point x="199" y="305" type="curve" smooth="yes"/>
      <point x="199" y="352"/>
      <point x="174" y="377"/>
      <point x="132" y="377" type="curve" smooth="yes"/>
      <point x="95" y="377"/>
      <point x="65" y="352"/>
      <point x="65" y="305" type="curve" smooth="yes"/>
    </contour>
  </outline>
</glyph>
<glyph name="cedilla" format="1">
  <advance width="436"/>
  <unicode hex="00B8"/>
  <outline>
    <contour>
      <point x="184" y="0" type="line"/>
      <point x="184" y="-79" type="line"/>
      <point x="235" y="-79"/>
      <point x="266" y="-97"/>
      <point x="266" y="-128" type="curve" smooth="yes"/>
      <point x="266" y="-154"/>
      <point x="244" y="-171"/>
      <point x="211" y="-171" type="curve" smooth="yes"/>
      <point x="175" y="-171"/>
      <point x="134" y="-150"/>
      <point x="134" y="-150" type="curve"/>
      <point x="110" y="-191" type="line"/>
      <point x="110" y="-191"/>
      <point x="157" y="-219"/>
      <point x="222" y="-219" type="curve" smooth="yes"/>
      <point x="287" y="-219"/>
      <point x="331" y="-183"/>
      <point x="331" y="-130" type="curve" smooth="yes"/>
      <point x="331" y="-84"/>
      <point x="298" y="-52"/>
      <point x="244" y="-43" type="curve"/>
      <point x="244" y="0" type="line"/>
    </contour>
  </outline>
</glyph>
<glyph name="onesuperior" format="1">
  <advance width="350"/>
  <unicode hex="00B9"/>
  <outline>
    <contour>
      <point x="166" y="700" type="line"/>
      <point x="15" y="605" type="line"/>
      <point x="50" y="545" type="line"/>
      <point x="155" y="610" type="line"/>
      <point x="155" y="345" type="line"/>
      <point x="60" y="345" type="line"/>
      <point x="60" y="280" type="line"/>
      <point x="330" y="280" type="line"/>
      <point x="330" y="345" type="line"/>
      <point x="240" y="345" type="line"/>
      <point x="240" y="700" type="line"/>
    </contour>
  </outline>
</glyph>
<glyph name="ordmasculine" format="1">
  <advance width="495"/>
  <unicode hex="00BA"/>
  <outline>
    <contour>
      <point x="130" y="710"/>
      <point x="50" y="630"/>
      <point x="50" y="505" type="curve" smooth="yes"/>
      <point x="50" y="380"/>
      <point x="120" y="315"/>
      <point x="235" y="315" type="curve" smooth="yes"/>
      <point x="350" y="315"/>
      <point x="425" y="395"/>
      <point x="425" y="520" type="curve" smooth="yes"/>
      <point x="425" y="640"/>
      <point x="360" y="710"/>
      <point x="245" y="710" type="curve" smooth="yes"/>
    </contour>
    <contour>
      <point x="300" y="640"/>
      <point x="340" y="595"/>
      <point x="340" y="515" type="curve" smooth="yes"/>
      <point x="340" y="425"/>
      <point x="300" y="385"/>
      <point x="240" y="385" type="curve" smooth="yes"/>
      <point x="180" y="385"/>
      <point x="135" y="425"/>
      <point x="135" y="510" type="curve" smooth="yes"/>
      <point x="135" y="600"/>
      <point x="180" y="640"/>
      <point x="240" y="640" type="curve" smooth="yes"/>
    </contour>
    <contour>
      <point x="60" y="165" type="line"/>
      <point x="415" y="165" type="line"/>
      <point x="415" y="235" type="line"/>
      <point x="60" y="235" type="line"/>
    </contour>
  </outline>
</glyph>
<glyph name="guillemotright" format="1">
  <advance width="540"/>
  <unicode hex="00BB"/>
  <outline>
    <contour>
      <point x="60" y="415" type="line"/>
      <point x="175" y="265" type="line"/>
      <point x="60" y="115" type="line"/>
      <point x="120" y="75" type="line"/>
      <point x="265" y="235" type="line"/>
      <point x="265" y="295" type="line"/>
      <point x="120" y="455" type="line"/>
    </contour>
    <contour>
      <point x="280" y="415" type="line"/>
      <point x="390" y="265" type="line"/>
      <point x="280" y="115" type="line"/>
      <point x="340" y="75" type="line"/>
      <point x="480" y="235" type="line"/>
      <point x="480" y="295" type="line"/>
      <point x="340" y="455" type="line"/>
    </contour>
  </outline>
</glyph>
<glyph name="onequarter" format="1">
  <advance width="970"/>
  <unicode hex="00BC"/>
  <outline>
    <contour>
      <point x="630" y="700" type="line"/>
      <point x="225" y="0" type="line"/>
      <point x="315" y="0" type="line"/>
      <point x="720" y="700" type="line"/>
    </contour>
    <contour>
      <point x="191" y="700" type="line"/>
      <point x="40" y="605" type="line"/>
      <point x="75" y="545" type="line"/>
      <point x="180" y="610" type="line"/>
      <point x="180" y="345" type="line"/>
      <point x="85" y="345" type="line"/>
      <point x="85" y="280" type="line"/>
      <point x="350" y="280" type="line"/>
      <point x="350" y="345" type="line"/>
      <point x="265" y="345" type="line"/>
      <point x="265" y="700" type="line"/>
    </contour>
    <contour>
      <point x="765" y="156" type="line"/>
      <point x="636" y="156" type="line"/>
      <point x="765" y="335" type="line"/>
    </contour>
    <contour>
      <point x="549" y="150" type="line"/>
      <point x="555" y="91" type="line"/>
      <point x="765" y="91" type="line"/>
      <point x="765" y="0" type="line"/>
      <point x="850" y="0" type="line"/>
      <point x="850" y="91" type="line"/>
      <point x="920" y="91" type="line"/>
      <point x="920" y="156" type="line"/>
      <point x="850" y="156" type="line"/>
      <point x="850" y="420" type="line"/>
      <point x="752" y="430" type="line"/>
    </contour>
  </outline>
</glyph>
<glyph name="onehalf" format="1">
  <advance width="950"/>
  <unicode hex="00BD"/>
  <outline>
    <contour>
      <point x="225" y="0" type="line"/>
      <point x="315" y="0" type="line"/>
      <point x="720" y="700" type="line"/>
      <point x="630" y="700" type="line"/>
    </contour>
    <contour>
      <point x="350" y="345" type="line"/>
      <point x="265" y="345" type="line"/>
      <point x="265" y="700" type="line"/>
      <point x="191" y="700" type="line"/>
      <point x="40" y="605" type="line"/>
      <point x="75" y="545" type="line"/>
      <point x="180" y="610" type="line"/>
      <point x="180" y="345" type="line"/>
      <point x="85" y="345" type="line"/>
      <point x="85" y="280" type="line"/>
      <point x="350" y="280" type="line"/>
    </contour>
    <contour>
      <point x="580" y="0" type="line"/>
      <point x="895" y="0" type="line"/>
      <point x="895" y="71" type="line"/>
      <point x="700" y="71" type="line"/>
      <point x="840" y="181"/>
      <point x="885" y="225"/>
      <point x="885" y="305" type="curve" smooth="yes"/>
      <point x="885" y="389"/>
      <point x="822" y="425"/>
      <point x="723" y="425" type="curve" smooth="yes"/>
      <point x="660" y="425"/>
      <point x="588" y="399"/>
      <point x="588" y="399" type="curve"/>
      <point x="591" y="290" type="line"/>
      <point x="651" y="290" type="line"/>
      <point x="658" y="350" type="line"/>
      <point x="658" y="350"/>
      <point x="684" y="360"/>
      <point x="720" y="360" type="curve" smooth="yes"/>
      <point x="776" y="360"/>
      <point x="795" y="335"/>
      <point x="795" y="300" type="curve" smooth="yes"/>
      <point x="795" y="235"/>
      <point x="735" y="196"/>
      <point x="580" y="69" type="curve"/>
    </contour>
  </outline>
</glyph>
<glyph name="threequarters" format="1">
  <advance width="963"/>
  <unicode hex="00BE"/>
  <outline>
    <contour>
      <point x="623" y="700" type="line"/>
      <point x="218" y="0" type="line"/>
      <point x="308" y="0" type="line"/>
      <point x="713" y="700" type="line"/>
    </contour>
    <contour>
      <point x="130" y="705"/>
      <point x="50" y="686"/>
      <point x="50" y="686" type="curve"/>
      <point x="54" y="575" type="line"/>
      <point x="112" y="575" type="line"/>
      <point x="117" y="631" type="line"/>
      <point x="117" y="631"/>
      <point x="142" y="640"/>
      <point x="185" y="640" type="curve" smooth="yes"/>
      <point x="235" y="640"/>
      <point x="255" y="619"/>
      <point x="255" y="588" type="curve" smooth="yes"/>
      <point x="255" y="545"/>
      <point x="226" y="524"/>
      <point x="171" y="524" type="curve" smooth="yes"/>
      <point x="125" y="524" type="line"/>
      <point x="125" y="463" type="line"/>
      <point x="166" y="463" type="line" smooth="yes"/>
      <point x="230" y="463"/>
      <point x="260" y="445"/>
      <point x="260" y="405" type="curve" smooth="yes"/>
      <point x="260" y="365"/>
      <point x="230" y="342"/>
      <point x="178" y="342" type="curve" smooth="yes"/>
      <point x="115" y="342"/>
      <point x="55" y="372"/>
      <point x="55" y="372" type="curve"/>
      <point x="35" y="312" type="line"/>
      <point x="35" y="312"/>
      <point x="100" y="275"/>
      <point x="174" y="275" type="curve" smooth="yes"/>
      <point x="274" y="275"/>
      <point x="348" y="315"/>
      <point x="348" y="406" type="curve" smooth="yes"/>
      <point x="348" y="458"/>
      <point x="299" y="494"/>
      <point x="252" y="499" type="curve"/>
      <point x="302" y="509"/>
      <point x="340" y="541"/>
      <point x="340" y="598" type="curve" smooth="yes"/>
      <point x="340" y="666"/>
      <point x="285" y="705"/>
      <point x="190" y="705" type="curve" smooth="yes"/>
    </contour>
    <contour>
      <point x="758" y="156" type="line"/>
      <point x="629" y="156" type="line"/>
      <point x="758" y="335" type="line"/>
    </contour>
    <contour>
      <point x="542" y="150" type="line"/>
      <point x="548" y="91" type="line"/>
      <point x="758" y="91" type="line"/>
      <point x="758" y="0" type="line"/>
      <point x="843" y="0" type="line"/>
      <point x="843" y="91" type="line"/>
      <point x="913" y="91" type="line"/>
      <point x="913" y="156" type="line"/>
      <point x="843" y="156" type="line"/>
      <point x="843" y="420" type="line"/>
      <point x="745" y="430" type="line"/>
    </contour>
  </outline>
</glyph>
<glyph name="questiondown" format="1">
  <advance width="476"/>
  <unicode hex="00BF"/>
  <outline>
    <contour>
      <point x="248" y="306" type="line"/>
      <point x="248" y="306"/>
      <point x="250" y="278"/>
      <point x="250" y="244" type="curve" smooth="yes"/>
      <point x="250" y="155"/>
      <point x="65" y="100"/>
      <point x="65" y="-50" type="curve" smooth="yes"/>
      <point x="65" y="-170"/>
      <point x="165" y="-205"/>
      <point x="270" y="-205" type="curve" smooth="yes"/>
      <point x="330" y="-205"/>
      <point x="396" y="-182"/>
      <point x="396" y="-182" type="curve"/>
      <point x="380" y="-107" type="line"/>
      <point x="380" y="-107"/>
      <point x="325" y="-120"/>
      <point x="275" y="-120" type="curve" smooth="yes"/>
      <point x="205" y="-120"/>
      <point x="170" y="-95"/>
      <point x="170" y="-40" type="curve" smooth="yes"/>
      <point x="170" y="71"/>
      <point x="347" y="127"/>
      <point x="347" y="214" type="curve" smooth="yes"/>
      <point x="347" y="244"/>
      <point x="338" y="312"/>
      <point x="338" y="312" type="curve"/>
    </contour>
    <contour>
      <point x="250" y="550"/>
      <point x="220" y="525"/>
      <point x="220" y="480" type="curve" smooth="yes"/>
      <point x="220" y="435"/>
      <point x="245" y="410"/>
      <point x="285" y="410" type="curve" smooth="yes"/>
      <point x="320" y="410"/>
      <point x="350" y="435"/>
      <point x="350" y="480" type="curve" smooth="yes"/>
      <point x="350" y="525"/>
      <point x="325" y="550"/>
      <point x="285" y="550" type="curve" smooth="yes"/>
    </contour>
  </outline>
</glyph>
<glyph name="Acircumflex" format="1">
  <advance width="726"/>
  <unicode hex="00C2"/>
  <outline>
    <contour>
      <point x="315" y="695" type="line"/>
      <point x="87" y="79" type="line"/>
      <point x="5" y="60" type="line"/>
      <point x="5" y="0" type="line"/>
      <point x="280" y="0" type="line"/>
      <point x="280" y="60" type="line"/>
      <point x="186" y="79" type="line"/>
      <point x="225" y="190" type="line"/>
      <point x="485" y="190" type="line"/>
      <point x="523" y="79" type="line"/>
      <point x="430" y="60" type="line"/>
      <point x="430" y="0" type="line"/>
      <point x="720" y="0" type="line"/>
      <point x="720" y="60" type="line"/>
      <point x="637" y="79" type="line"/>
      <point x="415" y="700" type="line"/>
    </contour>
    <contour>
      <point x="458" y="270" type="line"/>
      <point x="252" y="270" type="line"/>
      <point x="357" y="571" type="line"/>
    </contour>
    <contour>
      <point x="330" y="915" type="line"/>
      <point x="185" y="795" type="line"/>
      <point x="225" y="750" type="line"/>
      <point x="362" y="843" type="line"/>
      <point x="495" y="750" type="line"/>
      <point x="535" y="795" type="line"/>
      <point x="390" y="920" type="line"/>
    </contour>
  </outline>
</glyph>
<glyph name="Atilde" format="1">
  <advance width="725"/>
  <unicode hex="00C3"/>
  <outline>
    <contour>
      <point x="315" y="695" type="line"/>
      <point x="87" y="79" type="line"/>
      <point x="5" y="60" type="line"/>
      <point x="5" y="0" type="line"/>
      <point x="280" y="0" type="line"/>
      <point x="280" y="60" type="line"/>
      <point x="186" y="79" type="line"/>
      <point x="225" y="190" type="line"/>
      <point x="485" y="190" type="line"/>
      <point x="523" y="79" type="line"/>
      <point x="430" y="60" type="line"/>
      <point x="430" y="0" type="line"/>
      <point x="720" y="0" type="line"/>
      <point x="720" y="60" type="line"/>
      <point x="637" y="79" type="line"/>
      <point x="415" y="700" type="line"/>
    </contour>
    <contour>
      <point x="458" y="270" type="line"/>
      <point x="252" y="270" type="line"/>
      <point x="357" y="571" type="line"/>
    </contour>
    <contour>
      <point x="243" y="890"/>
      <point x="203" y="796"/>
      <point x="203" y="796" type="curve"/>
      <point x="238" y="766" type="line"/>
      <point x="238" y="766"/>
      <point x="268" y="810"/>
      <point x="308" y="810" type="curve" smooth="yes"/>
      <point x="368" y="810"/>
      <point x="413" y="766"/>
      <point x="483" y="766" type="curve" smooth="yes"/>
      <point x="553" y="766"/>
      <point x="588" y="856"/>
      <point x="588" y="856" type="curve"/>
      <point x="553" y="886" type="line"/>
      <point x="553" y="886"/>
      <point x="528" y="844"/>
      <point x="488" y="844" type="curve" smooth="yes"/>
      <point x="428" y="844"/>
      <point x="383" y="890"/>
      <point x="313" y="890" type="curve" smooth="yes"/>
    </contour>
  </outline>
</glyph>
<glyph name="Adieresis" format="1">
  <advance width="725"/>
  <unicode hex="00C4"/>
  <outline>
    <contour>
      <point x="315" y="695" type="line"/>
      <point x="87" y="79" type="line"/>
      <point x="5" y="60" type="line"/>
      <point x="5" y="0" type="line"/>
      <point x="280" y="0" type="line"/>
      <point x="280" y="60" type="line"/>
      <point x="186" y="79" type="line"/>
      <point x="225" y="190" type="line"/>
      <point x="485" y="190" type="line"/>
      <point x="523" y="79" type="line"/>
      <point x="430" y="60" type="line"/>
      <point x="430" y="0" type="line"/>
      <point x="720" y="0" type="line"/>
      <point x="720" y="60" type="line"/>
      <point x="637" y="79" type="line"/>
      <point x="415" y="700" type="line"/>
    </contour>
    <contour>
      <point x="458" y="270" type="line"/>
      <point x="252" y="270" type="line"/>
      <point x="357" y="571" type="line"/>
    </contour>
    <contour>
      <point x="240" y="885"/>
      <point x="215" y="863"/>
      <point x="215" y="825" type="curve" smooth="yes"/>
      <point x="215" y="787"/>
      <point x="236" y="765"/>
      <point x="270" y="765" type="curve" smooth="yes"/>
      <point x="300" y="765"/>
      <point x="325" y="787"/>
      <point x="325" y="825" type="curve" smooth="yes"/>
      <point x="325" y="863"/>
      <point x="304" y="885"/>
      <point x="270" y="885" type="curve" smooth="yes"/>
    </contour>
    <contour>
      <point x="445" y="885"/>
      <point x="420" y="863"/>
      <point x="420" y="825" type="curve" smooth="yes"/>
      <point x="420" y="787"/>
      <point x="441" y="765"/>
      <point x="475" y="765" type="curve" smooth="yes"/>
      <point x="505" y="765"/>
      <point x="530" y="787"/>
      <point x="530" y="825" type="curve" smooth="yes"/>
      <point x="530" y="863"/>
      <point x="509" y="885"/>
      <point x="475" y="885" type="curve" smooth="yes"/>
    </contour>
  </outline>
</glyph>
<glyph name="Aring" format="1">
  <advance width="725"/>
  <unicode hex="00C5"/>
  <outline>
    <contour>
      <point x="308" y="910"/>
      <point x="250" y="866"/>
      <point x="250" y="795" type="curve" smooth="yes"/>
      <point x="250" y="745"/>
      <point x="278" y="711"/>
      <point x="315" y="695" type="curve"/>
      <point x="87" y="79" type="line"/>
      <point x="5" y="60" type="line"/>
      <point x="5" y="0" type="line"/>
      <point x="280" y="0" type="line"/>
      <point x="280" y="60" type="line"/>
      <point x="186" y="79" type="line"/>
      <point x="225" y="190" type="line"/>
      <point x="485" y="190" type="line"/>
      <point x="523" y="79" type="line"/>
      <point x="430" y="60" type="line"/>
      <point x="430" y="0" type="line"/>
      <point x="720" y="0" type="line"/>
      <point x="720" y="60" type="line"/>
      <point x="637" y="79" type="line"/>
      <point x="416" y="697" type="line"/>
      <point x="452" y="714"/>
      <point x="480" y="750"/>
      <point x="480" y="800" type="curve" smooth="yes"/>
      <point x="480" y="871"/>
      <point x="422" y="910"/>
      <point x="365" y="910" type="curve" smooth="yes"/>
    </contour>
    <contour>
      <point x="458" y="270" type="line"/>
      <point x="252" y="270" type="line"/>
      <point x="357" y="571" type="line"/>
    </contour>
    <contour>
      <point x="400" y="860"/>
      <point x="420" y="838"/>
      <point x="420" y="798" type="curve" smooth="yes"/>
      <point x="420" y="758"/>
      <point x="396" y="735"/>
      <point x="365" y="735" type="curve" smooth="yes"/>
      <point x="330" y="735"/>
      <point x="310" y="757"/>
      <point x="310" y="797" type="curve" smooth="yes"/>
      <point x="310" y="837"/>
      <point x="334" y="860"/>
      <point x="365" y="860" type="curve" smooth="yes"/>
    </contour>
  </outline>
</glyph>
<glyph name="AE" format="1">
  <advance width="959"/>
  <unicode hex="00C6"/>
  <outline>
    <contour>
      <point x="412" y="700" type="line"/>
      <point x="286" y="695" type="line"/>
      <point x="286" y="640" type="line"/>
      <point x="371" y="620" type="line"/>
      <point x="94" y="80" type="line"/>
      <point x="5" y="60" type="line"/>
      <point x="5" y="0" type="line"/>
      <point x="275" y="0" type="line"/>
      <point x="275" y="60" type="line"/>
      <point x="197" y="77" type="line"/>
      <point x="260" y="205" type="line"/>
      <point x="480" y="205" type="line"/>
      <point x="480" y="80" type="line"/>
      <point x="390" y="60" type="line"/>
      <point x="390" y="0" type="line"/>
      <point x="899" y="0" type="line"/>
      <point x="899" y="180" type="line"/>
      <point x="834" y="180" type="line"/>
      <point x="814" y="80" type="line"/>
      <point x="585" y="80" type="line"/>
      <point x="585" y="325" type="line"/>
      <point x="814" y="325" type="line"/>
      <point x="814" y="405" type="line"/>
      <point x="585" y="405" type="line"/>
      <point x="585" y="620" type="line"/>
      <point x="799" y="620" type="line"/>
      <point x="824" y="530" type="line"/>
      <point x="889" y="530" type="line"/>
      <point x="889" y="700" type="line"/>
    </contour>
    <contour>
      <point x="480" y="285" type="line"/>
      <point x="300" y="285" type="line"/>
      <point x="465" y="620" type="line"/>
      <point x="480" y="620" type="line"/>
    </contour>
  </outline>
</glyph>
<glyph name="Ccedilla" format="1">
  <advance width="665"/>
  <unicode hex="00C7"/>
  <outline>
    <contour>
      <point x="190" y="710"/>
      <point x="60" y="565"/>
      <point x="60" y="335" type="curve" smooth="yes"/>
      <point x="60" y="117"/>
      <point x="172" y="-1"/>
      <point x="360" y="-9" type="curve"/>
      <point x="360" y="-80" type="line"/>
      <point x="410" y="-80"/>
      <point x="440" y="-100"/>
      <point x="440" y="-130" type="curve" smooth="yes"/>
      <point x="440" y="-155"/>
      <point x="420" y="-170"/>
      <point x="395" y="-170" type="curve" smooth="yes"/>
      <point x="355" y="-170"/>
      <point x="309" y="-147"/>
      <point x="309" y="-147" type="curve"/>
      <point x="283" y="-189" type="line"/>
      <point x="283" y="-189"/>
      <point x="335" y="-220"/>
      <point x="400" y="-220" type="curve" smooth="yes"/>
      <point x="460" y="-220"/>
      <point x="510" y="-185"/>
      <point x="510" y="-133" type="curve" smooth="yes"/>
      <point x="510" y="-82"/>
      <point x="476" y="-53"/>
      <point x="425" y="-44" type="curve"/>
      <point x="425" y="-7" type="line"/>
      <point x="549" y="11"/>
      <point x="630" y="95"/>
      <point x="630" y="95" type="curve"/>
      <point x="590" y="160" type="line"/>
      <point x="590" y="160"/>
      <point x="495" y="80"/>
      <point x="390" y="80" type="curve" smooth="yes"/>
      <point x="265" y="80"/>
      <point x="175" y="160"/>
      <point x="175" y="340" type="curve" smooth="yes"/>
      <point x="175" y="525"/>
      <point x="250" y="625"/>
      <point x="385" y="625" type="curve" smooth="yes"/>
      <point x="460" y="625"/>
      <point x="513" y="605"/>
      <point x="513" y="605" type="curve"/>
      <point x="540" y="491" type="line"/>
      <point x="615" y="491" type="line"/>
      <point x="620" y="660" type="line"/>
      <point x="620" y="660"/>
      <point x="505" y="710"/>
      <point x="395" y="710" type="curve" smooth="yes"/>
    </contour>
  </outline>
</glyph>
<glyph name="Ecircumflex" format="1">
  <advance width="615"/>
  <unicode hex="00CA"/>
  <outline>
    <contour>
      <point x="240" y="700" type="line"/>
      <point x="50" y="695" type="line"/>
      <point x="50" y="640" type="line"/>
      <point x="135" y="620" type="line"/>
      <point x="135" y="80" type="line"/>
      <point x="50" y="60" type="line"/>
      <point x="50" y="0" type="line"/>
      <point x="555" y="0" type="line"/>
      <point x="555" y="180" type="line"/>
      <point x="490" y="180" type="line"/>
      <point x="470" y="80" type="line"/>
      <point x="240" y="80" type="line"/>
      <point x="240" y="325" type="line"/>
      <point x="470" y="325" type="line"/>
      <point x="470" y="405" type="line"/>
      <point x="240" y="405" type="line"/>
      <point x="240" y="620" type="line"/>
      <point x="455" y="620" type="line"/>
      <point x="480" y="530" type="line"/>
      <point x="545" y="530" type="line"/>
      <point x="545" y="700" type="line"/>
    </contour>
    <contour>
      <point x="280" y="915" type="line"/>
      <point x="135" y="795" type="line"/>
      <point x="175" y="750" type="line"/>
      <point x="312" y="843" type="line"/>
      <point x="445" y="750" type="line"/>
      <point x="485" y="795" type="line"/>
      <point x="340" y="920" type="line"/>
    </contour>
  </outline>
</glyph>
<glyph name="Igrave" format="1">
  <advance width="360"/>
  <unicode hex="00CC"/>
  <outline>
    <contour>
      <point x="193" y="651" type="move"/>
    </contour>
    <component base="I" xOffset="5"/>
    <component base="grave.Cup" xOffset="25"/>
  </outline>
</glyph>
<glyph name="Icircumflex" format="1">
  <advance width="376"/>
  <unicode hex="00CE"/>
  <outline>
    <contour>
      <point x="53" y="695" type="line"/>
      <point x="53" y="640" type="line"/>
      <point x="138" y="620" type="line"/>
      <point x="138" y="80" type="line"/>
      <point x="53" y="60" type="line"/>
      <point x="53" y="0" type="line"/>
      <point x="328" y="0" type="line"/>
      <point x="328" y="60" type="line"/>
      <point x="243" y="80" type="line"/>
      <point x="243" y="620" type="line"/>
      <point x="328" y="640" type="line"/>
      <point x="328" y="700" type="line"/>
    </contour>
    <contour>
      <point x="158" y="915" type="line"/>
      <point x="20" y="795" type="line"/>
      <point x="60" y="750" type="line"/>
      <point x="190" y="843" type="line"/>
      <point x="316" y="750" type="line"/>
      <point x="356" y="795" type="line"/>
      <point x="218" y="920" type="line"/>
    </contour>
  </outline>
</glyph>
<glyph name="Idieresis" format="1">
  <advance width="355"/>
  <unicode hex="00CF"/>
  <outline>
    <contour>
      <point x="315" y="60" type="line"/>
      <point x="230" y="80" type="line"/>
      <point x="230" y="620" type="line"/>
      <point x="315" y="640" type="line"/>
      <point x="315" y="700" type="line"/>
      <point x="40" y="695" type="line"/>
      <point x="40" y="640" type="line"/>
      <point x="125" y="620" type="line"/>
      <point x="125" y="80" type="line"/>
      <point x="40" y="60" type="line"/>
      <point x="40" y="0" type="line"/>
      <point x="315" y="0" type="line"/>
    </contour>
    <contour>
      <point x="20" y="787"/>
      <point x="41" y="765"/>
      <point x="75" y="765" type="curve" smooth="yes"/>
      <point x="105" y="765"/>
      <point x="130" y="787"/>
      <point x="130" y="825" type="curve" smooth="yes"/>
      <point x="130" y="863"/>
      <point x="109" y="885"/>
      <point x="75" y="885" type="curve" smooth="yes"/>
      <point x="45" y="885"/>
      <point x="20" y="863"/>
      <point x="20" y="825" type="curve" smooth="yes"/>
    </contour>
    <contour>
      <point x="225" y="787"/>
      <point x="246" y="765"/>
      <point x="280" y="765" type="curve" smooth="yes"/>
      <point x="310" y="765"/>
      <point x="335" y="787"/>
      <point x="335" y="825" type="curve" smooth="yes"/>
      <point x="335" y="863"/>
      <point x="314" y="885"/>
      <point x="280" y="885" type="curve" smooth="yes"/>
      <point x="250" y="885"/>
      <point x="225" y="863"/>
      <point x="225" y="825" type="curve" smooth="yes"/>
    </contour>
  </outline>
</glyph>
<glyph name="Eth" format="1">
  <advance width="738"/>
  <unicode hex="00D0"/>
  <outline>
    <contour>
      <point x="235" y="700" type="line"/>
      <point x="45" y="695" type="line"/>
      <point x="45" y="640" type="line"/>
      <point x="130" y="620" type="line"/>
      <point x="130" y="409" type="line"/>
      <point x="45" y="409" type="line"/>
      <point x="45" y="330" type="line"/>
      <point x="130" y="330" type="line"/>
      <point x="130" y="80" type="line"/>
      <point x="45" y="60" type="line"/>
      <point x="45" y="0" type="line"/>
      <point x="348" y="0" type="line" smooth="yes"/>
      <point x="548" y="0"/>
      <point x="678" y="140"/>
      <point x="678" y="360" type="curve" smooth="yes"/>
      <point x="678" y="580"/>
      <point x="558" y="700"/>
      <point x="363" y="700" type="curve" smooth="yes"/>
    </contour>
    <contour>
      <point x="483" y="620"/>
      <point x="563" y="540"/>
      <point x="563" y="355" type="curve" smooth="yes"/>
      <point x="563" y="165"/>
      <point x="478" y="80"/>
      <point x="353" y="80" type="curve" smooth="yes"/>
      <point x="234" y="80" type="line"/>
      <point x="234" y="330" type="line"/>
      <point x="390" y="330" type="line"/>
      <point x="390" y="409" type="line"/>
      <point x="234" y="409" type="line"/>
      <point x="234" y="620" type="line"/>
      <point x="358" y="620" type="line"/>
    </contour>
  </outline>
</glyph>
<glyph name="Ntilde" format="1">
  <advance width="790"/>
  <unicode hex="00D1"/>
  <outline>
    <contour>
      <point x="755" y="700" type="line"/>
      <point x="495" y="695" type="line"/>
      <point x="495" y="640" type="line"/>
      <point x="580" y="620" type="line"/>
      <point x="580" y="141" type="line"/>
      <point x="250" y="700" type="line"/>
      <point x="40" y="695" type="line"/>
      <point x="40" y="640" type="line"/>
      <point x="125" y="620" type="line"/>
      <point x="125" y="80" type="line"/>
      <point x="40" y="60" type="line"/>
      <point x="40" y="0" type="line"/>
      <point x="310" y="0" type="line"/>
      <point x="310" y="60" type="line"/>
      <point x="215" y="80" type="line"/>
      <point x="215" y="551" type="line"/>
      <point x="545" y="0" type="line"/>
      <point x="670" y="0" type="line"/>
      <point x="670" y="620" type="line"/>
      <point x="755" y="640" type="line"/>
    </contour>
    <contour>
      <point x="230" y="766" type="line"/>
      <point x="230" y="766"/>
      <point x="260" y="810"/>
      <point x="300" y="810" type="curve" smooth="yes"/>
      <point x="360" y="810"/>
      <point x="405" y="766"/>
      <point x="475" y="766" type="curve" smooth="yes"/>
      <point x="545" y="766"/>
      <point x="580" y="856"/>
      <point x="580" y="856" type="curve"/>
      <point x="545" y="886" type="line"/>
      <point x="545" y="886"/>
      <point x="520" y="844"/>
      <point x="480" y="844" type="curve" smooth="yes"/>
      <point x="420" y="844"/>
      <point x="375" y="890"/>
      <point x="305" y="890" type="curve" smooth="yes"/>
      <point x="235" y="890"/>
      <point x="195" y="796"/>
      <point x="195" y="796" type="curve"/>
    </contour>
  </outline>
</glyph>
<glyph name="Ocircumflex" format="1">
  <advance width="755"/>
  <unicode hex="00D4"/>
  <outline>
    <contour>
      <point x="185" y="710"/>
      <point x="60" y="565"/>
      <point x="60" y="345" type="curve" smooth="yes"/>
      <point x="60" y="115"/>
      <point x="170" y="-10"/>
      <point x="365" y="-10" type="curve" smooth="yes"/>
      <point x="560" y="-10"/>
      <point x="695" y="140"/>
      <point x="695" y="360" type="curve" smooth="yes"/>
      <point x="695" y="575"/>
      <point x="580" y="710"/>
      <point x="385" y="710" type="curve" smooth="yes"/>
    </contour>
    <contour>
      <point x="510" y="625"/>
      <point x="580" y="535"/>
      <point x="580" y="355" type="curve" smooth="yes"/>
      <point x="580" y="165"/>
      <point x="500" y="75"/>
      <point x="370" y="75" type="curve" smooth="yes"/>
      <point x="240" y="75"/>
      <point x="175" y="170"/>
      <point x="175" y="350" type="curve" smooth="yes"/>
      <point x="175" y="540"/>
      <point x="250" y="625"/>
      <point x="380" y="625" type="curve" smooth="yes"/>
    </contour>
    <contour>
      <point x="509" y="750" type="line"/>
      <point x="549" y="795" type="line"/>
      <point x="404" y="920" type="line"/>
      <point x="344" y="915" type="line"/>
      <point x="199" y="795" type="line"/>
      <point x="239" y="750" type="line"/>
      <point x="376" y="843" type="line"/>
    </contour>
  </outline>
</glyph>
<glyph name="Otilde" format="1">
  <advance width="755"/>
  <unicode hex="00D5"/>
  <outline>
    <contour>
      <point x="185" y="710"/>
      <point x="60" y="565"/>
      <point x="60" y="345" type="curve" smooth="yes"/>
      <point x="60" y="115"/>
      <point x="170" y="-10"/>
      <point x="365" y="-10" type="curve" smooth="yes"/>
      <point x="560" y="-10"/>
      <point x="695" y="140"/>
      <point x="695" y="360" type="curve" smooth="yes"/>
      <point x="695" y="575"/>
      <point x="580" y="710"/>
      <point x="385" y="710" type="curve" smooth="yes"/>
    </contour>
    <contour>
      <point x="510" y="625"/>
      <point x="580" y="535"/>
      <point x="580" y="355" type="curve" smooth="yes"/>
      <point x="580" y="165"/>
      <point x="500" y="75"/>
      <point x="370" y="75" type="curve" smooth="yes"/>
      <point x="240" y="75"/>
      <point x="175" y="170"/>
      <point x="175" y="350" type="curve" smooth="yes"/>
      <point x="175" y="540"/>
      <point x="250" y="625"/>
      <point x="380" y="625" type="curve" smooth="yes"/>
    </contour>
    <contour>
      <point x="219" y="766" type="line"/>
      <point x="219" y="766"/>
      <point x="249" y="810"/>
      <point x="289" y="810" type="curve" smooth="yes"/>
      <point x="349" y="810"/>
      <point x="394" y="766"/>
      <point x="464" y="766" type="curve" smooth="yes"/>
      <point x="534" y="766"/>
      <point x="569" y="856"/>
      <point x="569" y="856" type="curve"/>
      <point x="534" y="886" type="line"/>
      <point x="534" y="886"/>
      <point x="509" y="844"/>
      <point x="469" y="844" type="curve" smooth="yes"/>
      <point x="409" y="844"/>
      <point x="364" y="890"/>
      <point x="294" y="890" type="curve" smooth="yes"/>
      <point x="224" y="890"/>
      <point x="184" y="796"/>
      <point x="184" y="796" type="curve"/>
    </contour>
  </outline>
</glyph>
<glyph name="Odieresis" format="1">
  <advance width="755"/>
  <unicode hex="00D6"/>
  <outline>
    <contour>
      <point x="185" y="710"/>
      <point x="60" y="565"/>
      <point x="60" y="345" type="curve" smooth="yes"/>
      <point x="60" y="115"/>
      <point x="170" y="-10"/>
      <point x="365" y="-10" type="curve" smooth="yes"/>
      <point x="560" y="-10"/>
      <point x="695" y="140"/>
      <point x="695" y="360" type="curve" smooth="yes"/>
      <point x="695" y="575"/>
      <point x="580" y="710"/>
      <point x="385" y="710" type="curve" smooth="yes"/>
    </contour>
    <contour>
      <point x="510" y="625"/>
      <point x="580" y="535"/>
      <point x="580" y="355" type="curve" smooth="yes"/>
      <point x="580" y="165"/>
      <point x="500" y="75"/>
      <point x="370" y="75" type="curve" smooth="yes"/>
      <point x="240" y="75"/>
      <point x="175" y="170"/>
      <point x="175" y="350" type="curve" smooth="yes"/>
      <point x="175" y="540"/>
      <point x="250" y="625"/>
      <point x="380" y="625" type="curve" smooth="yes"/>
    </contour>
    <contour>
      <point x="245" y="885"/>
      <point x="220" y="863"/>
      <point x="220" y="825" type="curve" smooth="yes"/>
      <point x="220" y="787"/>
      <point x="241" y="765"/>
      <point x="275" y="765" type="curve" smooth="yes"/>
      <point x="305" y="765"/>
      <point x="330" y="787"/>
      <point x="330" y="825" type="curve" smooth="yes"/>
      <point x="330" y="863"/>
      <point x="309" y="885"/>
      <point x="275" y="885" type="curve" smooth="yes"/>
    </contour>
    <contour>
      <point x="450" y="885"/>
      <point x="425" y="863"/>
      <point x="425" y="825" type="curve" smooth="yes"/>
      <point x="425" y="787"/>
      <point x="446" y="765"/>
      <point x="480" y="765" type="curve" smooth="yes"/>
      <point x="510" y="765"/>
      <point x="535" y="787"/>
      <point x="535" y="825" type="curve" smooth="yes"/>
      <point x="535" y="863"/>
      <point x="514" y="885"/>
      <point x="480" y="885" type="curve" smooth="yes"/>
    </contour>
  </outline>
</glyph>
<glyph name="multiply" format="1">
  <advance width="600"/>
  <unicode hex="00D7"/>
  <outline>
    <contour>
      <point x="60" y="449" type="line"/>
      <point x="244" y="265" type="line"/>
      <point x="60" y="81" type="line"/>
      <point x="116" y="25" type="line"/>
      <point x="300" y="209" type="line"/>
      <point x="484" y="25" type="line"/>
      <point x="540" y="81" type="line"/>
      <point x="356" y="265" type="line"/>
      <point x="540" y="449" type="line"/>
      <point x="484" y="505" type="line"/>
      <point x="300" y="321" type="line"/>
      <point x="116" y="505" type="line"/>
    </contour>
  </outline>
</glyph>
<glyph name="Oslash" format="1">
  <advance width="765"/>
  <unicode hex="00D8"/>
  <outline>
    <contour>
      <point x="600" y="785" type="line"/>
      <point x="536" y="678" type="line"/>
      <point x="494" y="699"/>
      <point x="445" y="710"/>
      <point x="390" y="710" type="curve" smooth="yes"/>
      <point x="190" y="710"/>
      <point x="65" y="565"/>
      <point x="65" y="345" type="curve" smooth="yes"/>
      <point x="65" y="216"/>
      <point x="99" y="120"/>
      <point x="164" y="61" type="curve"/>
      <point x="85" y="-70" type="line"/>
      <point x="150" y="-105" type="line"/>
      <point x="225" y="20" type="line"/>
      <point x="266" y="0"/>
      <point x="314" y="-10"/>
      <point x="370" y="-10" type="curve" smooth="yes"/>
      <point x="565" y="-10"/>
      <point x="700" y="140"/>
      <point x="700" y="360" type="curve" smooth="yes"/>
      <point x="700" y="481"/>
      <point x="663" y="576"/>
      <point x="597" y="637" type="curve"/>
      <point x="665" y="750" type="line"/>
    </contour>
    <contour>
      <point x="542" y="546" type="line"/>
      <point x="570" y="501"/>
      <point x="585" y="437"/>
      <point x="585" y="355" type="curve" smooth="yes"/>
      <point x="585" y="165"/>
      <point x="505" y="75"/>
      <point x="375" y="75" type="curve" smooth="yes"/>
      <point x="335" y="75"/>
      <point x="301" y="84"/>
      <point x="274" y="101" type="curve"/>
    </contour>
    <contour>
      <point x="221" y="156" type="line"/>
      <point x="194" y="202"/>
      <point x="180" y="267"/>
      <point x="180" y="350" type="curve" smooth="yes"/>
      <point x="180" y="540"/>
      <point x="255" y="625"/>
      <point x="385" y="625" type="curve" smooth="yes"/>
      <point x="425" y="625"/>
      <point x="459" y="616"/>
      <point x="488" y="599" type="curve"/>
    </contour>
  </outline>
</glyph>
<glyph name="Ucircumflex" format="1">
  <advance width="790"/>
  <unicode hex="00DB"/>
  <outline>
    <contour>
      <point x="665" y="620" type="line"/>
      <point x="750" y="640" type="line"/>
      <point x="750" y="700" type="line"/>
      <point x="465" y="695" type="line"/>
      <point x="465" y="640" type="line"/>
      <point x="560" y="620" type="line"/>
      <point x="560" y="285" type="line" smooth="yes"/>
      <point x="560" y="130"/>
      <point x="520" y="75"/>
      <point x="395" y="75" type="curve" smooth="yes"/>
      <point x="280" y="75"/>
      <point x="230" y="120"/>
      <point x="230" y="270" type="curve" smooth="yes"/>
      <point x="230" y="620" type="line"/>
      <point x="325" y="640" type="line"/>
      <point x="325" y="700" type="line"/>
      <point x="40" y="695" type="line"/>
      <point x="40" y="640" type="line"/>
      <point x="125" y="620" type="line"/>
      <point x="125" y="270" type="line" smooth="yes"/>
      <point x="125" y="85"/>
      <point x="195" y="-10"/>
      <point x="390" y="-10" type="curve" smooth="yes"/>
      <point x="600" y="-10"/>
      <point x="665" y="100"/>
      <point x="665" y="285" type="curve" smooth="yes"/>
    </contour>
    <contour>
      <point x="530" y="750" type="line"/>
      <point x="570" y="795" type="line"/>
      <point x="425" y="920" type="line"/>
      <point x="365" y="915" type="line"/>
      <point x="220" y="795" type="line"/>
      <point x="260" y="750" type="line"/>
      <point x="397" y="843" type="line"/>
    </contour>
  </outline>
</glyph>
<glyph name="Udieresis" format="1">
  <advance width="791"/>
  <unicode hex="00DC"/>
  <outline>
    <contour>
      <point x="465" y="695" type="line"/>
      <point x="465" y="640" type="line"/>
      <point x="560" y="620" type="line"/>
      <point x="560" y="285" type="line" smooth="yes"/>
      <point x="560" y="130"/>
      <point x="520" y="75"/>
      <point x="395" y="75" type="curve" smooth="yes"/>
      <point x="280" y="75"/>
      <point x="230" y="120"/>
      <point x="230" y="270" type="curve" smooth="yes"/>
      <point x="230" y="620" type="line"/>
      <point x="325" y="640" type="line"/>
      <point x="325" y="700" type="line"/>
      <point x="40" y="695" type="line"/>
      <point x="40" y="640" type="line"/>
      <point x="125" y="620" type="line"/>
      <point x="125" y="270" type="line" smooth="yes"/>
      <point x="125" y="85"/>
      <point x="195" y="-10"/>
      <point x="390" y="-10" type="curve" smooth="yes"/>
      <point x="600" y="-10"/>
      <point x="665" y="100"/>
      <point x="665" y="285" type="curve" smooth="yes"/>
      <point x="665" y="620" type="line"/>
      <point x="750" y="640" type="line"/>
      <point x="750" y="700" type="line"/>
    </contour>
    <contour>
      <point x="260" y="885"/>
      <point x="235" y="863"/>
      <point x="235" y="825" type="curve" smooth="yes"/>
      <point x="235" y="787"/>
      <point x="256" y="765"/>
      <point x="290" y="765" type="curve" smooth="yes"/>
      <point x="320" y="765"/>
      <point x="345" y="787"/>
      <point x="345" y="825" type="curve" smooth="yes"/>
      <point x="345" y="863"/>
      <point x="324" y="885"/>
      <point x="290" y="885" type="curve" smooth="yes"/>
    </contour>
    <contour>
      <point x="465" y="885"/>
      <point x="440" y="863"/>
      <point x="440" y="825" type="curve" smooth="yes"/>
      <point x="440" y="787"/>
      <point x="461" y="765"/>
      <point x="495" y="765" type="curve" smooth="yes"/>
      <point x="525" y="765"/>
      <point x="550" y="787"/>
      <point x="550" y="825" type="curve" smooth="yes"/>
      <point x="550" y="863"/>
      <point x="529" y="885"/>
      <point x="495" y="885" type="curve" smooth="yes"/>
    </contour>
  </outline>
</glyph>
<glyph name="Thorn" format="1">
  <advance width="595"/>
  <unicode hex="00DE"/>
  <outline>
    <contour>
      <point x="230" y="620" type="line"/>
      <point x="315" y="640" type="line"/>
      <point x="315" y="700" type="line"/>
      <point x="40" y="695" type="line"/>
      <point x="40" y="640" type="line"/>
      <point x="125" y="620" type="line"/>
      <point x="125" y="80" type="line"/>
      <point x="40" y="60" type="line"/>
      <point x="40" y="0" type="line"/>
      <point x="315" y="0" type="line"/>
      <point x="315" y="60" type="line"/>
      <point x="230" y="80" type="line"/>
      <point x="230" y="155" type="line"/>
      <point x="300" y="155" type="line" smooth="yes"/>
      <point x="470" y="155"/>
      <point x="565" y="235"/>
      <point x="565" y="380" type="curve" smooth="yes"/>
      <point x="565" y="495"/>
      <point x="480" y="565"/>
      <point x="335" y="565" type="curve" smooth="yes"/>
      <point x="230" y="565" type="line"/>
    </contour>
    <contour>
      <point x="230" y="485" type="line"/>
      <point x="330" y="485" type="line"/>
      <point x="415" y="485"/>
      <point x="465" y="435"/>
      <point x="465" y="365" type="curve" smooth="yes"/>
      <point x="465" y="280"/>
      <point x="405" y="235"/>
      <point x="300" y="235" type="curve" smooth="yes"/>
      <point x="230" y="235" type="line"/>
    </contour>
  </outline>
</glyph>
<glyph name="germandbls" format="1">
  <advance width="700"/>
  <unicode hex="00DF"/>
  <outline>
    <contour>
      <point x="220" y="780"/>
      <point x="135" y="705"/>
      <point x="135" y="580" type="curve" smooth="yes"/>
      <point x="135" y="525" type="line"/>
      <point x="30" y="515" type="line"/>
      <point x="30" y="450" type="line"/>
      <point x="135" y="450" type="line"/>
      <point x="135" y="80" type="line"/>
      <point x="50" y="55" type="line"/>
      <point x="50" y="0" type="line"/>
      <point x="235" y="0" type="line"/>
      <point x="235" y="600" type="line" smooth="yes"/>
      <point x="235" y="665"/>
      <point x="285" y="705"/>
      <point x="355" y="705" type="curve" smooth="yes"/>
      <point x="420" y="705"/>
      <point x="485" y="685"/>
      <point x="485" y="615" type="curve" smooth="yes"/>
      <point x="485" y="520"/>
      <point x="350" y="515"/>
      <point x="350" y="395" type="curve" smooth="yes"/>
      <point x="350" y="215"/>
      <point x="576" y="255"/>
      <point x="580" y="145" type="curve" smooth="yes"/>
      <point x="582" y="91"/>
      <point x="534" y="67"/>
      <point x="479" y="65" type="curve" smooth="yes"/>
      <point x="431" y="63"/>
      <point x="410" y="75"/>
      <point x="410" y="75" type="curve"/>
      <point x="395" y="156" type="line"/>
      <point x="330" y="156" type="line"/>
      <point x="331" y="12" type="line"/>
      <point x="331" y="12"/>
      <point x="393" y="-10"/>
      <point x="478" y="-10" type="curve" smooth="yes"/>
      <point x="583" y="-10"/>
      <point x="687" y="60"/>
      <point x="685" y="165" type="curve" smooth="yes"/>
      <point x="682" y="330"/>
      <point x="454" y="300"/>
      <point x="454" y="410" type="curve" smooth="yes"/>
      <point x="454" y="485"/>
      <point x="585" y="510"/>
      <point x="585" y="625" type="curve" smooth="yes"/>
      <point x="585" y="735"/>
      <point x="485" y="780"/>
      <point x="350" y="780" type="curve" smooth="yes"/>
    </contour>
  </outline>
</glyph>
<glyph name="atilde" format="1">
  <advance width="565"/>
  <unicode hex="00E3"/>
  <outline>
    <contour>
      <point x="185" y="540"/>
      <point x="75" y="500"/>
      <point x="75" y="500" type="curve"/>
      <point x="80" y="375" type="line"/>
      <point x="145" y="375" type="line"/>
      <point x="159" y="450" type="line"/>
      <point x="159" y="450"/>
      <point x="200" y="465"/>
      <point x="260" y="465" type="curve" smooth="yes"/>
      <point x="320" y="465"/>
      <point x="355" y="435"/>
      <point x="355" y="375" type="curve" smooth="yes"/>
      <point x="355" y="295" type="line"/>
      <point x="275" y="295" type="line" smooth="yes"/>
      <point x="135" y="295"/>
      <point x="45" y="255"/>
      <point x="45" y="140" type="curve" smooth="yes"/>
      <point x="45" y="45"/>
      <point x="100" y="-10"/>
      <point x="195" y="-10" type="curve" smooth="yes"/>
      <point x="265" y="-10"/>
      <point x="325" y="36"/>
      <point x="359" y="70" type="curve"/>
      <point x="380" y="0" type="line"/>
      <point x="535" y="5" type="line"/>
      <point x="535" y="60" type="line"/>
      <point x="455" y="80" type="line"/>
      <point x="455" y="385" type="line" smooth="yes"/>
      <point x="455" y="500"/>
      <point x="386" y="540"/>
      <point x="270" y="540" type="curve" smooth="yes"/>
    </contour>
    <contour>
      <point x="355" y="150" type="line"/>
      <point x="355" y="150"/>
      <point x="295" y="70"/>
      <point x="220" y="70" type="curve" smooth="yes"/>
      <point x="175" y="70"/>
      <point x="147" y="100"/>
      <point x="147" y="145" type="curve" smooth="yes"/>
      <point x="147" y="205"/>
      <point x="185" y="230"/>
      <point x="285" y="230" type="curve" smooth="yes"/>
      <point x="355" y="230" type="line"/>
    </contour>
    <contour>
      <point x="110" y="764"/>
      <point x="73" y="671"/>
      <point x="73" y="671" type="curve"/>
      <point x="108" y="636" type="line"/>
      <point x="108" y="636"/>
      <point x="135" y="680"/>
      <point x="178" y="680" type="curve" smooth="yes"/>
      <point x="238" y="680"/>
      <point x="275" y="635"/>
      <point x="345" y="635" type="curve" smooth="yes"/>
      <point x="418" y="635"/>
      <point x="453" y="726"/>
      <point x="453" y="726" type="curve"/>
      <point x="418" y="761" type="line"/>
      <point x="418" y="761"/>
      <point x="387" y="719"/>
      <point x="350" y="719" type="curve" smooth="yes"/>
      <point x="290" y="719"/>
      <point x="253" y="764"/>
      <point x="183" y="764" type="curve" smooth="yes"/>
    </contour>
  </outline>
</glyph>
<glyph name="adieresis" format="1">
  <advance width="565"/>
  <unicode hex="00E4"/>
  <outline>
    <contour>
      <point x="185" y="540"/>
      <point x="75" y="500"/>
      <point x="75" y="500" type="curve"/>
      <point x="80" y="375" type="line"/>
      <point x="145" y="375" type="line"/>
      <point x="159" y="450" type="line"/>
      <point x="159" y="450"/>
      <point x="200" y="465"/>
      <point x="260" y="465" type="curve" smooth="yes"/>
      <point x="320" y="465"/>
      <point x="355" y="435"/>
      <point x="355" y="375" type="curve" smooth="yes"/>
      <point x="355" y="295" type="line"/>
      <point x="275" y="295" type="line" smooth="yes"/>
      <point x="135" y="295"/>
      <point x="45" y="255"/>
      <point x="45" y="140" type="curve" smooth="yes"/>
      <point x="45" y="45"/>
      <point x="100" y="-10"/>
      <point x="195" y="-10" type="curve" smooth="yes"/>
      <point x="265" y="-10"/>
      <point x="325" y="36"/>
      <point x="359" y="70" type="curve"/>
      <point x="380" y="0" type="line"/>
      <point x="535" y="5" type="line"/>
      <point x="535" y="60" type="line"/>
      <point x="455" y="80" type="line"/>
      <point x="455" y="385" type="line" smooth="yes"/>
      <point x="455" y="500"/>
      <point x="386" y="540"/>
      <point x="270" y="540" type="curve" smooth="yes"/>
    </contour>
    <contour>
      <point x="355" y="150" type="line"/>
      <point x="355" y="150"/>
      <point x="295" y="70"/>
      <point x="220" y="70" type="curve" smooth="yes"/>
      <point x="175" y="70"/>
      <point x="147" y="100"/>
      <point x="147" y="145" type="curve" smooth="yes"/>
      <point x="147" y="205"/>
      <point x="185" y="230"/>
      <point x="285" y="230" type="curve" smooth="yes"/>
      <point x="355" y="230" type="line"/>
    </contour>
    <contour>
      <point x="130" y="760"/>
      <point x="105" y="738"/>
      <point x="105" y="700" type="curve" smooth="yes"/>
      <point x="105" y="662"/>
      <point x="126" y="640"/>
      <point x="160" y="640" type="curve" smooth="yes"/>
      <point x="190" y="640"/>
      <point x="215" y="662"/>
      <point x="215" y="700" type="curve" smooth="yes"/>
      <point x="215" y="738"/>
      <point x="194" y="760"/>
      <point x="160" y="760" type="curve" smooth="yes"/>
    </contour>
    <contour>
      <point x="335" y="760"/>
      <point x="310" y="738"/>
      <point x="310" y="700" type="curve" smooth="yes"/>
      <point x="310" y="662"/>
      <point x="331" y="640"/>
      <point x="365" y="640" type="curve" smooth="yes"/>
      <point x="395" y="640"/>
      <point x="420" y="662"/>
      <point x="420" y="700" type="curve" smooth="yes"/>
      <point x="420" y="738"/>
      <point x="399" y="760"/>
      <point x="365" y="760" type="curve" smooth="yes"/>
    </contour>
  </outline>
</glyph>
<glyph name="ae" format="1">
  <advance width="835"/>
  <unicode hex="00E6"/>
  <outline>
    <contour>
      <point x="522" y="540"/>
      <point x="466" y="514"/>
      <point x="426" y="470" type="curve"/>
      <point x="400" y="520"/>
      <point x="346" y="540"/>
      <point x="270" y="540" type="curve" smooth="yes"/>
      <point x="185" y="540"/>
      <point x="75" y="500"/>
      <point x="75" y="500" type="curve"/>
      <point x="80" y="375" type="line"/>
      <point x="145" y="375" type="line"/>
      <point x="159" y="450" type="line"/>
      <point x="159" y="450"/>
      <point x="200" y="465"/>
      <point x="260" y="465" type="curve" smooth="yes"/>
      <point x="320" y="465"/>
      <point x="355" y="435"/>
      <point x="355" y="375" type="curve" smooth="yes"/>
      <point x="355" y="295" type="line"/>
      <point x="275" y="295" type="line" smooth="yes"/>
      <point x="135" y="295"/>
      <point x="45" y="255"/>
      <point x="45" y="140" type="curve" smooth="yes"/>
      <point x="45" y="45"/>
      <point x="100" y="-10"/>
      <point x="195" y="-10" type="curve" smooth="yes"/>
      <point x="297" y="-10"/>
      <point x="369" y="71"/>
      <point x="388" y="96" type="curve"/>
      <point x="424" y="28"/>
      <point x="488" y="-10"/>
      <point x="585" y="-10" type="curve" smooth="yes"/>
      <point x="705" y="-10"/>
      <point x="798" y="73"/>
      <point x="798" y="73" type="curve"/>
      <point x="763" y="125" type="line"/>
      <point x="763" y="125"/>
      <point x="695" y="70"/>
      <point x="595" y="70" type="curve" smooth="yes"/>
      <point x="509" y="70"/>
      <point x="450" y="140"/>
      <point x="450" y="250" type="curve"/>
      <point x="795" y="252" type="line"/>
      <point x="795" y="252"/>
      <point x="800" y="280"/>
      <point x="800" y="305" type="curve" smooth="yes"/>
      <point x="800" y="455"/>
      <point x="735" y="540"/>
      <point x="590" y="540" type="curve" smooth="yes"/>
    </contour>
    <contour>
      <point x="355" y="155" type="line"/>
      <point x="355" y="155"/>
      <point x="295" y="70"/>
      <point x="220" y="70" type="curve" smooth="yes"/>
      <point x="175" y="70"/>
      <point x="145" y="100"/>
      <point x="145" y="145" type="curve" smooth="yes"/>
      <point x="145" y="205"/>
      <point x="185" y="230"/>
      <point x="285" y="230" type="curve" smooth="yes"/>
      <point x="355" y="230" type="line"/>
    </contour>
    <contour>
      <point x="665" y="462"/>
      <point x="694" y="400"/>
      <point x="694" y="325" type="curve"/>
      <point x="454" y="325" type="line"/>
      <point x="460" y="400"/>
      <point x="505" y="462"/>
      <point x="585" y="462" type="curve" smooth="yes"/>
    </contour>
  </outline>
</glyph>
<glyph name="ccedilla" format="1">
  <advance width="510"/>
  <unicode hex="00E7"/>
  <outline>
    <contour>
      <point x="465" y="365" type="line"/>
      <point x="470" y="500" type="line"/>
      <point x="470" y="500"/>
      <point x="390" y="540"/>
      <point x="300" y="540" type="curve" smooth="yes"/>
      <point x="140" y="540"/>
      <point x="40" y="425"/>
      <point x="40" y="265" type="curve" smooth="yes"/>
      <point x="40" y="105"/>
      <point x="114" y="3"/>
      <point x="260" y="-8" type="curve"/>
      <point x="260" y="-79" type="line"/>
      <point x="310" y="-79"/>
      <point x="342" y="-99"/>
      <point x="342" y="-130" type="curve" smooth="yes"/>
      <point x="342" y="-156"/>
      <point x="321" y="-171"/>
      <point x="295" y="-171" type="curve" smooth="yes"/>
      <point x="255" y="-171"/>
      <point x="210" y="-150"/>
      <point x="210" y="-150" type="curve"/>
      <point x="186" y="-191" type="line"/>
      <point x="186" y="-191"/>
      <point x="235" y="-219"/>
      <point x="300" y="-219" type="curve" smooth="yes"/>
      <point x="360" y="-219"/>
      <point x="407" y="-185"/>
      <point x="407" y="-133" type="curve" smooth="yes"/>
      <point x="407" y="-86"/>
      <point x="373" y="-54"/>
      <point x="320" y="-44" type="curve"/>
      <point x="320" y="-8" type="line"/>
      <point x="415" y="4"/>
      <point x="490" y="70"/>
      <point x="490" y="70" type="curve"/>
      <point x="455" y="130" type="line"/>
      <point x="455" y="130"/>
      <point x="395" y="70"/>
      <point x="300" y="70" type="curve" smooth="yes"/>
      <point x="205" y="70"/>
      <point x="145" y="140"/>
      <point x="145" y="275" type="curve" smooth="yes"/>
      <point x="145" y="400"/>
      <point x="200" y="460"/>
      <point x="295" y="460" type="curve" smooth="yes"/>
      <point x="345" y="460"/>
      <point x="385" y="450"/>
      <point x="385" y="450" type="curve"/>
      <point x="400" y="365" type="line"/>
    </contour>
  </outline>
</glyph>
<glyph name="ecircumflex" format="1">
  <advance width="530"/>
  <unicode hex="00EA"/>
  <outline>
    <contour>
      <point x="411" y="600" type="line"/>
      <point x="451" y="645" type="line"/>
      <point x="301" y="785" type="line"/>
      <point x="241" y="780" type="line"/>
      <point x="91" y="645" type="line"/>
      <point x="131" y="600" type="line"/>
      <point x="273" y="708" type="line"/>
    </contour>
    <contour>
      <point x="490" y="252" type="line"/>
      <point x="490" y="252"/>
      <point x="495" y="280"/>
      <point x="495" y="305" type="curve"/>
      <point x="495" y="455"/>
      <point x="430" y="540"/>
      <point x="285" y="540" type="curve" smooth="yes"/>
      <point x="140" y="540"/>
      <point x="40" y="420"/>
      <point x="40" y="260" type="curve" smooth="yes"/>
      <point x="40" y="95"/>
      <point x="120" y="-10"/>
      <point x="280" y="-10" type="curve" smooth="yes"/>
      <point x="400" y="-10"/>
      <point x="493" y="73"/>
      <point x="493" y="73" type="curve"/>
      <point x="458" y="125" type="line"/>
      <point x="458" y="125"/>
      <point x="390" y="70"/>
      <point x="290" y="70" type="curve" smooth="yes"/>
      <point x="204" y="70"/>
      <point x="145" y="140"/>
      <point x="145" y="250" type="curve"/>
    </contour>
    <contour>
      <point x="149" y="325" type="line"/>
      <point x="155" y="400"/>
      <point x="200" y="462"/>
      <point x="280" y="462" type="curve" smooth="yes"/>
      <point x="360" y="462"/>
      <point x="389" y="400"/>
      <point x="389" y="325" type="curve"/>
    </contour>
  </outline>
</glyph>
<glyph name="icircumflex" format="1">
  <advance width="345"/>
  <unicode hex="00EE"/>
  <outline>
    <contour>
      <point x="45" y="525" type="line"/>
      <point x="45" y="470" type="line"/>
      <point x="130" y="450" type="line"/>
      <point x="130" y="80" type="line"/>
      <point x="45" y="55" type="line"/>
      <point x="45" y="0" type="line"/>
      <point x="305" y="0" type="line"/>
      <point x="305" y="55" type="line"/>
      <point x="230" y="80" type="line"/>
      <point x="230" y="530" type="line"/>
    </contour>
    <contour>
      <point x="140" y="780" type="line"/>
      <point x="0" y="645" type="line"/>
      <point x="40" y="600" type="line"/>
      <point x="172" y="708" type="line"/>
      <point x="300" y="600" type="line"/>
      <point x="340" y="645" type="line"/>
      <point x="200" y="785" type="line"/>
    </contour>
  </outline>
</glyph>
<glyph name="idieresis" format="1">
  <advance width="335"/>
  <unicode hex="00EF"/>
  <outline>
    <contour>
      <point x="15" y="662"/>
      <point x="36" y="640"/>
      <point x="70" y="640" type="curve" smooth="yes"/>
      <point x="100" y="640"/>
      <point x="125" y="662"/>
      <point x="125" y="700" type="curve" smooth="yes"/>
      <point x="125" y="738"/>
      <point x="104" y="760"/>
      <point x="70" y="760" type="curve" smooth="yes"/>
      <point x="40" y="760"/>
      <point x="15" y="738"/>
      <point x="15" y="700" type="curve" smooth="yes"/>
    </contour>
    <contour>
      <point x="210" y="662"/>
      <point x="231" y="640"/>
      <point x="265" y="640" type="curve" smooth="yes"/>
      <point x="295" y="640"/>
      <point x="320" y="662"/>
      <point x="320" y="700" type="curve" smooth="yes"/>
      <point x="320" y="738"/>
      <point x="299" y="760"/>
      <point x="265" y="760" type="curve" smooth="yes"/>
      <point x="235" y="760"/>
      <point x="210" y="738"/>
      <point x="210" y="700" type="curve" smooth="yes"/>
    </contour>
    <component base="dotlessi"/>
  </outline>
</glyph>
<glyph name="eth" format="1">
  <advance width="575"/>
  <unicode hex="00F0"/>
  <outline>
    <contour>
      <point x="466" y="727" type="line"/>
      <point x="425" y="783" type="line"/>
      <point x="313" y="722" type="line"/>
      <point x="267" y="751"/>
      <point x="217" y="771"/>
      <point x="165" y="783" type="curve"/>
      <point x="135" y="720" type="line"/>
      <point x="171" y="708"/>
      <point x="204" y="694"/>
      <point x="233" y="678" type="curve"/>
      <point x="125" y="620" type="line"/>
      <point x="165" y="565" type="line"/>
      <point x="296" y="635" type="line"/>
      <point x="349" y="591"/>
      <point x="385" y="536"/>
      <point x="408" y="473" type="curve"/>
      <point x="377" y="497"/>
      <point x="336" y="515"/>
      <point x="285" y="515" type="curve" smooth="yes"/>
      <point x="135" y="515"/>
      <point x="40" y="415"/>
      <point x="40" y="245" type="curve" smooth="yes"/>
      <point x="40" y="80"/>
      <point x="130" y="-10"/>
      <point x="280" y="-10" type="curve" smooth="yes"/>
      <point x="430" y="-10"/>
      <point x="530" y="100"/>
      <point x="530" y="265" type="curve" smooth="yes"/>
      <point x="530" y="457"/>
      <point x="466" y="591"/>
      <point x="372" y="676" type="curve"/>
    </contour>
    <contour>
      <point x="390" y="435"/>
      <point x="425" y="365"/>
      <point x="425" y="255" type="curve" smooth="yes"/>
      <point x="425" y="135"/>
      <point x="385" y="70"/>
      <point x="285" y="70" type="curve" smooth="yes"/>
      <point x="190" y="70"/>
      <point x="145" y="140"/>
      <point x="145" y="250" type="curve" smooth="yes"/>
      <point x="145" y="370"/>
      <point x="190" y="435"/>
      <point x="290" y="435" type="curve" smooth="yes"/>
    </contour>
  </outline>
</glyph>
<glyph name="ntilde" format="1">
  <advance width="665"/>
  <unicode hex="00F1"/>
  <outline>
    <contour>
      <point x="317" y="540"/>
      <point x="238" y="480"/>
      <point x="214" y="459" type="curve"/>
      <point x="205" y="530" type="line"/>
      <point x="40" y="525" type="line"/>
      <point x="40" y="470" type="line"/>
      <point x="125" y="450" type="line"/>
      <point x="125" y="80" type="line"/>
      <point x="40" y="55" type="line"/>
      <point x="40" y="0" type="line"/>
      <point x="290" y="0" type="line"/>
      <point x="290" y="55" type="line"/>
      <point x="225" y="80" type="line"/>
      <point x="225" y="375" type="line"/>
      <point x="225" y="375"/>
      <point x="285" y="455"/>
      <point x="370" y="455" type="curve" smooth="yes"/>
      <point x="435" y="455"/>
      <point x="460" y="420"/>
      <point x="460" y="350" type="curve" smooth="yes"/>
      <point x="460" y="80" type="line"/>
      <point x="395" y="55" type="line"/>
      <point x="395" y="0" type="line"/>
      <point x="635" y="0" type="line"/>
      <point x="635" y="55" type="line"/>
      <point x="560" y="80" type="line"/>
      <point x="560" y="360" type="line"/>
      <point x="560" y="470"/>
      <point x="510" y="540"/>
      <point x="400" y="540" type="curve" smooth="yes"/>
    </contour>
    <contour>
      <point x="180" y="764"/>
      <point x="143" y="671"/>
      <point x="143" y="671" type="curve"/>
      <point x="178" y="636" type="line"/>
      <point x="178" y="636"/>
      <point x="205" y="680"/>
      <point x="248" y="680" type="curve" smooth="yes"/>
      <point x="308" y="680"/>
      <point x="345" y="635"/>
      <point x="415" y="635" type="curve" smooth="yes"/>
      <point x="488" y="635"/>
      <point x="523" y="726"/>
      <point x="523" y="726" type="curve"/>
      <point x="488" y="761" type="line"/>
      <point x="488" y="761"/>
      <point x="457" y="719"/>
      <point x="420" y="719" type="curve" smooth="yes"/>
      <point x="360" y="719"/>
      <point x="323" y="764"/>
      <point x="253" y="764" type="curve" smooth="yes"/>
    </contour>
  </outline>
</glyph>
<glyph name="ocircumflex" format="1">
  <advance width="570"/>
  <unicode hex="00F4"/>
  <outline>
    <contour>
      <point x="430" y="600" type="line"/>
      <point x="470" y="645" type="line"/>
      <point x="320" y="785" type="line"/>
      <point x="260" y="780" type="line"/>
      <point x="110" y="645" type="line"/>
      <point x="150" y="600" type="line"/>
      <point x="292" y="708" type="line"/>
    </contour>
    <contour>
      <point x="145" y="540"/>
      <point x="40" y="430"/>
      <point x="40" y="260" type="curve" smooth="yes"/>
      <point x="40" y="80"/>
      <point x="130" y="-10"/>
      <point x="280" y="-10" type="curve" smooth="yes"/>
      <point x="430" y="-10"/>
      <point x="530" y="105"/>
      <point x="530" y="275" type="curve" smooth="yes"/>
      <point x="530" y="435"/>
      <point x="445" y="540"/>
      <point x="295" y="540" type="curve" smooth="yes"/>
    </contour>
    <contour>
      <point x="390" y="460"/>
      <point x="425" y="380"/>
      <point x="425" y="270" type="curve" smooth="yes"/>
      <point x="425" y="140"/>
      <point x="385" y="70"/>
      <point x="285" y="70" type="curve" smooth="yes"/>
      <point x="185" y="70"/>
      <point x="145" y="145"/>
      <point x="145" y="265" type="curve" smooth="yes"/>
      <point x="145" y="395"/>
      <point x="190" y="460"/>
      <point x="290" y="460" type="curve" smooth="yes"/>
    </contour>
  </outline>
</glyph>
<glyph name="otilde" format="1">
  <advance width="570"/>
  <unicode hex="00F5"/>
  <outline>
    <contour>
      <point x="145" y="540"/>
      <point x="40" y="430"/>
      <point x="40" y="260" type="curve" smooth="yes"/>
      <point x="40" y="80"/>
      <point x="130" y="-10"/>
      <point x="280" y="-10" type="curve" smooth="yes"/>
      <point x="430" y="-10"/>
      <point x="530" y="105"/>
      <point x="530" y="275" type="curve" smooth="yes"/>
      <point x="530" y="435"/>
      <point x="445" y="540"/>
      <point x="295" y="540" type="curve" smooth="yes"/>
    </contour>
    <contour>
      <point x="390" y="460"/>
      <point x="425" y="380"/>
      <point x="425" y="270" type="curve" smooth="yes"/>
      <point x="425" y="140"/>
      <point x="385" y="70"/>
      <point x="285" y="70" type="curve" smooth="yes"/>
      <point x="185" y="70"/>
      <point x="145" y="145"/>
      <point x="145" y="265" type="curve" smooth="yes"/>
      <point x="145" y="395"/>
      <point x="190" y="460"/>
      <point x="290" y="460" type="curve" smooth="yes"/>
    </contour>
    <contour>
      <point x="130" y="635" type="line"/>
      <point x="130" y="635"/>
      <point x="160" y="679"/>
      <point x="200" y="679" type="curve" smooth="yes"/>
      <point x="260" y="679"/>
      <point x="300" y="635"/>
      <point x="370" y="635" type="curve" smooth="yes"/>
      <point x="440" y="635"/>
      <point x="475" y="725"/>
      <point x="475" y="725" type="curve"/>
      <point x="440" y="760" type="line"/>
      <point x="440" y="760"/>
      <point x="415" y="718"/>
      <point x="375" y="718" type="curve" smooth="yes"/>
      <point x="315" y="718"/>
      <point x="275" y="764"/>
      <point x="205" y="764" type="curve" smooth="yes"/>
      <point x="135" y="764"/>
      <point x="95" y="670"/>
      <point x="95" y="670" type="curve"/>
    </contour>
  </outline>
</glyph>
<glyph name="odieresis" format="1">
  <advance width="570"/>
  <unicode hex="00F6"/>
  <outline>
    <contour>
      <point x="145" y="540"/>
      <point x="40" y="430"/>
      <point x="40" y="260" type="curve" smooth="yes"/>
      <point x="40" y="80"/>
      <point x="130" y="-10"/>
      <point x="280" y="-10" type="curve" smooth="yes"/>
      <point x="430" y="-10"/>
      <point x="530" y="105"/>
      <point x="530" y="275" type="curve" smooth="yes"/>
      <point x="530" y="435"/>
      <point x="445" y="540"/>
      <point x="295" y="540" type="curve" smooth="yes"/>
    </contour>
    <contour>
      <point x="390" y="460"/>
      <point x="425" y="380"/>
      <point x="425" y="270" type="curve" smooth="yes"/>
      <point x="425" y="140"/>
      <point x="385" y="70"/>
      <point x="285" y="70" type="curve" smooth="yes"/>
      <point x="185" y="70"/>
      <point x="145" y="145"/>
      <point x="145" y="265" type="curve" smooth="yes"/>
      <point x="145" y="395"/>
      <point x="190" y="460"/>
      <point x="290" y="460" type="curve" smooth="yes"/>
    </contour>
    <contour>
      <point x="125" y="662"/>
      <point x="146" y="640"/>
      <point x="180" y="640" type="curve" smooth="yes"/>
      <point x="210" y="640"/>
      <point x="235" y="662"/>
      <point x="235" y="700" type="curve" smooth="yes"/>
      <point x="235" y="738"/>
      <point x="214" y="760"/>
      <point x="180" y="760" type="curve" smooth="yes"/>
      <point x="150" y="760"/>
      <point x="125" y="738"/>
      <point x="125" y="700" type="curve" smooth="yes"/>
    </contour>
    <contour>
      <point x="330" y="662"/>
      <point x="351" y="640"/>
      <point x="385" y="640" type="curve" smooth="yes"/>
      <point x="415" y="640"/>
      <point x="440" y="662"/>
      <point x="440" y="700" type="curve" smooth="yes"/>
      <point x="440" y="738"/>
      <point x="419" y="760"/>
      <point x="385" y="760" type="curve" smooth="yes"/>
      <point x="355" y="760"/>
      <point x="330" y="738"/>
      <point x="330" y="700" type="curve" smooth="yes"/>
    </contour>
  </outline>
</glyph>
<glyph name="divide" format="1">
  <advance width="620"/>
  <unicode hex="00F7"/>
  <outline>
    <contour>
      <point x="50" y="305" type="line"/>
      <point x="50" y="225" type="line"/>
      <point x="570" y="225" type="line"/>
      <point x="570" y="305" type="line"/>
    </contour>
    <contour>
      <point x="275" y="130"/>
      <point x="245" y="105"/>
      <point x="245" y="60" type="curve" smooth="yes"/>
      <point x="245" y="15"/>
      <point x="270" y="-10"/>
      <point x="310" y="-10" type="curve" smooth="yes"/>
      <point x="345" y="-10"/>
      <point x="375" y="15"/>
      <point x="375" y="60" type="curve" smooth="yes"/>
      <point x="375" y="105"/>
      <point x="350" y="130"/>
      <point x="310" y="130" type="curve" smooth="yes"/>
    </contour>
    <contour>
      <point x="275" y="540"/>
      <point x="245" y="515"/>
      <point x="245" y="470" type="curve" smooth="yes"/>
      <point x="245" y="425"/>
      <point x="270" y="400"/>
      <point x="310" y="400" type="curve" smooth="yes"/>
      <point x="345" y="400"/>
      <point x="375" y="425"/>
      <point x="375" y="470" type="curve" smooth="yes"/>
      <point x="375" y="515"/>
      <point x="350" y="540"/>
      <point x="310" y="540" type="curve" smooth="yes"/>
    </contour>
  </outline>
</glyph>
<glyph name="oslash" format="1">
  <advance width="580"/>
  <unicode hex="00F8"/>
  <outline>
    <contour>
      <point x="50" y="-70" type="line"/>
      <point x="110" y="-105" type="line"/>
      <point x="178" y="9" type="line"/>
      <point x="209" y="-3"/>
      <point x="245" y="-10"/>
      <point x="285" y="-10" type="curve" smooth="yes"/>
      <point x="435" y="-10"/>
      <point x="535" y="105"/>
      <point x="535" y="275" type="curve" smooth="yes"/>
      <point x="535" y="363"/>
      <point x="509" y="435"/>
      <point x="460" y="481" type="curve"/>
      <point x="525" y="590" type="line"/>
      <point x="465" y="625" type="line"/>
      <point x="402" y="520" type="line"/>
      <point x="372" y="533"/>
      <point x="338" y="540"/>
      <point x="300" y="540" type="curve" smooth="yes"/>
      <point x="150" y="540"/>
      <point x="45" y="430"/>
      <point x="45" y="260" type="curve" smooth="yes"/>
      <point x="45" y="162"/>
      <point x="71" y="91"/>
      <point x="119" y="46" type="curve"/>
    </contour>
    <contour>
      <point x="320" y="460"/>
      <point x="340" y="455"/>
      <point x="358" y="446" type="curve"/>
      <point x="173" y="137" type="line"/>
      <point x="157" y="169"/>
      <point x="150" y="213"/>
      <point x="150" y="265" type="curve" smooth="yes"/>
      <point x="150" y="395"/>
      <point x="195" y="460"/>
      <point x="295" y="460" type="curve" smooth="yes"/>
    </contour>
    <contour>
      <point x="430" y="140"/>
      <point x="390" y="70"/>
      <point x="290" y="70" type="curve" smooth="yes"/>
      <point x="264" y="70"/>
      <point x="242" y="75"/>
      <point x="223" y="85" type="curve"/>
      <point x="407" y="393" type="line"/>
      <point x="423" y="360"/>
      <point x="430" y="318"/>
      <point x="430" y="270" type="curve" smooth="yes"/>
    </contour>
  </outline>
</glyph>
<glyph name="udieresis" format="1">
  <advance width="650"/>
  <unicode hex="00FC"/>
  <outline>
    <contour>
      <point x="355" y="525" type="line"/>
      <point x="355" y="470" type="line"/>
      <point x="440" y="450" type="line"/>
      <point x="440" y="154" type="line"/>
      <point x="440" y="154"/>
      <point x="380" y="75"/>
      <point x="295" y="75" type="curve" smooth="yes"/>
      <point x="230" y="75"/>
      <point x="205" y="109"/>
      <point x="205" y="179" type="curve" smooth="yes"/>
      <point x="205" y="530" type="line"/>
      <point x="20" y="525" type="line"/>
      <point x="20" y="470" type="line"/>
      <point x="105" y="450" type="line"/>
      <point x="105" y="169" type="line" smooth="yes"/>
      <point x="105" y="59"/>
      <point x="155" y="-10"/>
      <point x="265" y="-10" type="curve" smooth="yes"/>
      <point x="347" y="-10"/>
      <point x="426" y="49"/>
      <point x="450" y="70" type="curve"/>
      <point x="460" y="0" type="line"/>
      <point x="625" y="5" type="line"/>
      <point x="625" y="60" type="line"/>
      <point x="540" y="80" type="line"/>
      <point x="540" y="530" type="line"/>
    </contour>
    <contour>
      <point x="180" y="760"/>
      <point x="155" y="738"/>
      <point x="155" y="700" type="curve" smooth="yes"/>
      <point x="155" y="662"/>
      <point x="176" y="640"/>
      <point x="210" y="640" type="curve" smooth="yes"/>
      <point x="240" y="640"/>
      <point x="265" y="662"/>
      <point x="265" y="700" type="curve" smooth="yes"/>
      <point x="265" y="738"/>
      <point x="244" y="760"/>
      <point x="210" y="760" type="curve" smooth="yes"/>
    </contour>
    <contour>
      <point x="385" y="760"/>
      <point x="360" y="738"/>
      <point x="360" y="700" type="curve" smooth="yes"/>
      <point x="360" y="662"/>
      <point x="381" y="640"/>
      <point x="415" y="640" type="curve" smooth="yes"/>
      <point x="445" y="640"/>
      <point x="470" y="662"/>
      <point x="470" y="700" type="curve" smooth="yes"/>
      <point x="470" y="738"/>
      <point x="449" y="760"/>
      <point x="415" y="760" type="curve" smooth="yes"/>
    </contour>
  </outline>
</glyph>
<glyph name="thorn" format="1">
  <advance width="615"/>
  <unicode hex="00FE"/>
  <outline>
    <contour>
      <point x="315" y="-175" type="line"/>
      <point x="210" y="-155" type="line"/>
      <point x="210" y="4" type="line"/>
      <point x="210" y="4"/>
      <point x="250" y="-10"/>
      <point x="300" y="-10" type="curve" smooth="yes"/>
      <point x="485" y="-10"/>
      <point x="570" y="110"/>
      <point x="570" y="280" type="curve" smooth="yes"/>
      <point x="570" y="435"/>
      <point x="500" y="540"/>
      <point x="355" y="540" type="curve" smooth="yes"/>
      <point x="275" y="540"/>
      <point x="210" y="480"/>
      <point x="210" y="480" type="curve"/>
      <point x="210" y="770" type="line"/>
      <point x="25" y="765" type="line"/>
      <point x="25" y="710" type="line"/>
      <point x="110" y="690" type="line"/>
      <point x="110" y="-155" type="line"/>
      <point x="30" y="-175" type="line"/>
      <point x="30" y="-230" type="line"/>
      <point x="315" y="-230" type="line"/>
    </contour>
    <contour>
      <point x="210" y="390" type="line"/>
      <point x="210" y="390"/>
      <point x="245" y="460"/>
      <point x="335" y="460" type="curve" smooth="yes"/>
      <point x="425" y="460"/>
      <point x="465" y="380"/>
      <point x="465" y="270" type="curve" smooth="yes"/>
      <point x="465" y="160"/>
      <point x="431" y="70"/>
      <point x="315" y="70" type="curve" smooth="yes"/>
      <point x="240" y="70"/>
      <point x="210" y="90"/>
      <point x="210" y="90" type="curve"/>
    </contour>
  </outline>
</glyph>
<glyph name="ydieresis" format="1">
  <advance width="577"/>
  <unicode hex="00FF"/>
  <outline>
    <contour>
      <point x="335" y="525" type="line"/>
      <point x="335" y="470" type="line"/>
      <point x="405" y="455" type="line"/>
      <point x="295" y="110" type="line"/>
      <point x="175" y="460" type="line"/>
      <point x="245" y="470" type="line"/>
      <point x="245" y="530" type="line"/>
      <point x="10" y="525" type="line"/>
      <point x="10" y="470" type="line"/>
      <point x="70" y="455" type="line"/>
      <point x="249" y="-2" type="line"/>
      <point x="205" y="-99"/>
      <point x="160" y="-165"/>
      <point x="90" y="-165" type="curve" smooth="yes"/>
      <point x="40" y="-165" type="line"/>
      <point x="31" y="-235" type="line"/>
      <point x="31" y="-235"/>
      <point x="70" y="-240"/>
      <point x="95" y="-240" type="curve" smooth="yes"/>
      <point x="260" y="-240"/>
      <point x="312" y="-75"/>
      <point x="365" y="64" type="curve"/>
      <point x="507" y="460" type="line"/>
      <point x="572" y="470" type="line"/>
      <point x="572" y="530" type="line"/>
    </contour>
    <contour>
      <point x="160" y="760"/>
      <point x="135" y="738"/>
      <point x="135" y="700" type="curve" smooth="yes"/>
      <point x="135" y="662"/>
      <point x="156" y="640"/>
      <point x="190" y="640" type="curve" smooth="yes"/>
      <point x="220" y="640"/>
      <point x="245" y="662"/>
      <point x="245" y="700" type="curve" smooth="yes"/>
      <point x="245" y="738"/>
      <point x="224" y="760"/>
      <point x="190" y="760" type="curve" smooth="yes"/>
    </contour>
    <contour>
      <point x="365" y="760"/>
      <point x="340" y="738"/>
      <point x="340" y="700" type="curve" smooth="yes"/>
      <point x="340" y="662"/>
      <point x="361" y="640"/>
      <point x="395" y="640" type="curve" smooth="yes"/>
      <point x="425" y="640"/>
      <point x="450" y="662"/>
      <point x="450" y="700" type="curve" smooth="yes"/>
      <point x="450" y="738"/>
      <point x="429" y="760"/>
      <point x="395" y="760" type="curve" smooth="yes"/>
    </contour>
  </outline>
</glyph>
<glyph name="Amacron" format="1">
  <advance width="725"/>
  <unicode hex="0100"/>
  <outline>
    <contour>
      <point x="5" y="0" type="line"/>
      <point x="280" y="0" type="line"/>
      <point x="280" y="60" type="line"/>
      <point x="186" y="79" type="line"/>
      <point x="225" y="190" type="line"/>
      <point x="485" y="190" type="line"/>
      <point x="523" y="79" type="line"/>
      <point x="430" y="60" type="line"/>
      <point x="430" y="0" type="line"/>
      <point x="720" y="0" type="line"/>
      <point x="720" y="60" type="line"/>
      <point x="637" y="79" type="line"/>
      <point x="415" y="700" type="line"/>
      <point x="315" y="695" type="line"/>
      <point x="87" y="79" type="line"/>
      <point x="5" y="60" type="line"/>
    </contour>
    <contour>
      <point x="357" y="571" type="line"/>
      <point x="458" y="270" type="line"/>
      <point x="252" y="270" type="line"/>
    </contour>
    <contour>
      <point x="235" y="790" type="line"/>
      <point x="505" y="790" type="line"/>
      <point x="505" y="865" type="line"/>
      <point x="235" y="865" type="line"/>
    </contour>
  </outline>
</glyph>
<glyph name="Aogonek" format="1">
  <advance width="725"/>
  <unicode hex="0104"/>
  <outline>
    <contour>
      <point x="5" y="0" type="line"/>
      <point x="280" y="0" type="line"/>
      <point x="280" y="60" type="line"/>
      <point x="186" y="79" type="line"/>
      <point x="225" y="190" type="line"/>
      <point x="485" y="190" type="line"/>
      <point x="523" y="79" type="line"/>
      <point x="430" y="60" type="line"/>
      <point x="430" y="0" type="line"/>
      <point x="580" y="0" type="line"/>
      <point x="550" y="-13"/>
      <point x="470" y="-55"/>
      <point x="470" y="-125" type="curve" smooth="yes"/>
      <point x="470" y="-185"/>
      <point x="515" y="-220"/>
      <point x="570" y="-220" type="curve" smooth="yes"/>
      <point x="610" y="-220"/>
      <point x="650" y="-200"/>
      <point x="650" y="-200" type="curve"/>
      <point x="640" y="-153" type="line"/>
      <point x="640" y="-153"/>
      <point x="615" y="-160"/>
      <point x="595" y="-160" type="curve" smooth="yes"/>
      <point x="570" y="-160"/>
      <point x="550" y="-145"/>
      <point x="550" y="-115" type="curve" smooth="yes"/>
      <point x="550" y="-57"/>
      <point x="650" y="-15"/>
      <point x="720" y="0" type="curve"/>
      <point x="720" y="59" type="line"/>
      <point x="638" y="75" type="line"/>
      <point x="415" y="700" type="line"/>
      <point x="315" y="695" type="line"/>
      <point x="87" y="79" type="line"/>
      <point x="5" y="60" type="line"/>
    </contour>
    <contour>
      <point x="357" y="571" type="line"/>
      <point x="458" y="270" type="line"/>
      <point x="252" y="270" type="line"/>
    </contour>
  </outline>
</glyph>
<glyph name="aogonek" format="1">
  <advance width="570"/>
  <unicode hex="0105"/>
  <outline>
    <contour>
      <point x="535" y="60" type="line"/>
      <point x="455" y="80" type="line"/>
      <point x="455" y="385" type="line" smooth="yes"/>
      <point x="455" y="500"/>
      <point x="386" y="540"/>
      <point x="270" y="540" type="curve" smooth="yes"/>
      <point x="185" y="540"/>
      <point x="75" y="500"/>
      <point x="75" y="500" type="curve"/>
      <point x="80" y="375" type="line"/>
      <point x="145" y="375" type="line"/>
      <point x="159" y="450" type="line"/>
      <point x="159" y="450"/>
      <point x="200" y="465"/>
      <point x="260" y="465" type="curve" smooth="yes"/>
      <point x="320" y="465"/>
      <point x="355" y="435"/>
      <point x="355" y="375" type="curve" smooth="yes"/>
      <point x="355" y="295" type="line"/>
      <point x="275" y="295" type="line" smooth="yes"/>
      <point x="135" y="295"/>
      <point x="45" y="255"/>
      <point x="45" y="140" type="curve" smooth="yes"/>
      <point x="45" y="45"/>
      <point x="100" y="-10"/>
      <point x="195" y="-10" type="curve" smooth="yes"/>
      <point x="265" y="-10"/>
      <point x="325" y="36"/>
      <point x="359" y="70" type="curve"/>
      <point x="380" y="0" type="line"/>
      <point x="438" y="2" type="line"/>
      <point x="415" y="-8"/>
      <point x="335" y="-51"/>
      <point x="335" y="-125" type="curve" smooth="yes"/>
      <point x="335" y="-185"/>
      <point x="380" y="-220"/>
      <point x="435" y="-220" type="curve" smooth="yes"/>
      <point x="475" y="-220"/>
      <point x="515" y="-200"/>
      <point x="515" y="-200" type="curve"/>
      <point x="505" y="-153" type="line"/>
      <point x="505" y="-153"/>
      <point x="480" y="-160"/>
      <point x="460" y="-160" type="curve" smooth="yes"/>
      <point x="435" y="-160"/>
      <point x="415" y="-145"/>
      <point x="415" y="-115" type="curve" smooth="yes"/>
      <point x="415" y="-50"/>
      <point x="535" y="5"/>
      <point x="535" y="5" type="curve"/>
    </contour>
    <contour>
      <point x="147" y="205"/>
      <point x="185" y="230"/>
      <point x="285" y="230" type="curve" smooth="yes"/>
      <point x="355" y="230" type="line"/>
      <point x="355" y="150" type="line"/>
      <point x="355" y="150"/>
      <point x="295" y="70"/>
      <point x="220" y="70" type="curve" smooth="yes"/>
      <point x="175" y="70"/>
      <point x="147" y="100"/>
      <point x="147" y="145" type="curve" smooth="yes"/>
    </contour>
  </outline>
</glyph>
